<svg width="55" height="55" viewBox="0 0 55 55" fill="none" xmlns="http://www.w3.org/2000/svg">
<g clip-path="url(#clip0_371_578)">
<path d="M19.9055 9.16683L25.8798 3.19245C26.3096 2.76283 26.8924 2.52148 27.5 2.52148C28.1077 2.52148 28.6905 2.76283 29.1202 3.19245L35.0946 9.16683H43.5417C44.1495 9.16683 44.7324 9.40827 45.1622 9.83804C45.5919 10.2678 45.8334 10.8507 45.8334 11.4585V19.9056L51.8078 25.88C52.2374 26.3097 52.4787 26.8925 52.4787 27.5002C52.4787 28.1078 52.2374 28.6906 51.8078 29.1204L45.8334 35.0947V43.5418C45.8334 44.1496 45.5919 44.7325 45.1622 45.1623C44.7324 45.5921 44.1495 45.8335 43.5417 45.8335H35.0946L29.1202 51.8079C28.6905 52.2375 28.1077 52.4788 27.5 52.4788C26.8924 52.4788 26.3096 52.2375 25.8798 51.8079L19.9055 45.8335H11.4584C10.8506 45.8335 10.2677 45.5921 9.83792 45.1623C9.40815 44.7325 9.16671 44.1496 9.16671 43.5418V35.0947L3.19233 29.1204C2.76271 28.6906 2.52136 28.1078 2.52136 27.5002C2.52136 26.8925 2.76271 26.3097 3.19233 25.88L9.16671 19.9056V11.4585C9.16671 10.8507 9.40815 10.2678 9.83792 9.83804C10.2677 9.40827 10.8506 9.16683 11.4584 9.16683H19.9055ZM13.75 13.7502V21.8054L8.05525 27.5002L13.75 33.195V41.2502H21.8053L27.5 46.945L33.1948 41.2502H41.25V33.195L46.9448 27.5002L41.25 21.8054V13.7502H33.1948L27.5 8.05537L21.8053 13.7502H13.75ZM27.5 36.6668C25.0689 36.6668 22.7373 35.7011 21.0182 33.982C19.2991 32.2629 18.3334 29.9313 18.3334 27.5002C18.3334 25.069 19.2991 22.7374 21.0182 21.0184C22.7373 19.2993 25.0689 18.3335 27.5 18.3335C29.9312 18.3335 32.2628 19.2993 33.9819 21.0184C35.7009 22.7374 36.6667 25.069 36.6667 27.5002C36.6667 29.9313 35.7009 32.2629 33.9819 33.982C32.2628 35.7011 29.9312 36.6668 27.5 36.6668ZM27.5 32.0835C28.7156 32.0835 29.8814 31.6006 30.7409 30.7411C31.6005 29.8815 32.0834 28.7157 32.0834 27.5002C32.0834 26.2846 31.6005 25.1188 30.7409 24.2593C29.8814 23.3997 28.7156 22.9168 27.5 22.9168C26.2845 22.9168 25.1187 23.3997 24.2591 24.2593C23.3996 25.1188 22.9167 26.2846 22.9167 27.5002C22.9167 28.7157 23.3996 29.8815 24.2591 30.7411C25.1187 31.6006 26.2845 32.0835 27.5 32.0835Z" fill="white"/>
</g>
<defs>
<clipPath id="clip0_371_578">
<rect width="55" height="55" fill="white"/>
</clipPath>
</defs>
</svg>
