<svg width="55" height="55" viewBox="0 0 55 55" fill="none" xmlns="http://www.w3.org/2000/svg">
<g clip-path="url(#clip0_368_675)">
<path d="M40.3746 13.6765L43.7044 10.3467L46.9448 13.5871L43.615 16.9169C46.9053 21.0354 48.4938 26.2575 48.0541 31.5106C47.6145 36.7636 45.1802 41.649 41.2511 45.1634C37.322 48.6777 32.1965 50.5542 26.927 50.4075C21.6576 50.2608 16.6444 48.1021 12.9169 44.3746C9.18943 40.6471 7.03066 35.6339 6.88397 30.3645C6.73728 25.095 8.6138 19.9695 12.1281 16.0404C15.6425 12.1113 20.5279 9.67698 25.7809 9.23736C31.034 8.79774 36.2561 10.3862 40.3746 13.6765ZM27.5 45.8332C29.6066 45.8332 31.6926 45.4182 33.6389 44.6121C35.5851 43.8059 37.3536 42.6243 38.8432 41.1347C40.3328 39.6451 41.5144 37.8767 42.3206 35.9304C43.1267 33.9841 43.5417 31.8981 43.5417 29.7915C43.5417 27.6849 43.1267 25.5989 42.3206 23.6526C41.5144 21.7064 40.3328 19.9379 38.8432 18.4483C37.3536 16.9587 35.5851 15.7771 33.6389 14.9709C31.6926 14.1648 29.6066 13.7498 27.5 13.7498C23.2455 13.7498 19.1652 15.4399 16.1568 18.4483C13.1484 21.4567 11.4583 25.537 11.4583 29.7915C11.4583 34.046 13.1484 38.1263 16.1568 41.1347C19.1652 44.1431 23.2455 45.8332 27.5 45.8332ZM25.2083 18.3332H29.7917V32.0832H25.2083V18.3332ZM18.3333 2.2915H36.6667V6.87484H18.3333V2.2915Z" fill="white"/>
</g>
<defs>
<clipPath id="clip0_368_675">
<rect width="55" height="55" fill="white"/>
</clipPath>
</defs>
</svg>
