<svg width="55" height="55" viewBox="0 0 55 55" fill="none" xmlns="http://www.w3.org/2000/svg">
<g clip-path="url(#clip0_370_584)">
<path d="M34.2261 16.5093L20.4761 9.63433L9.16671 14.4812V43.4662L20.774 38.4933L34.524 45.3683L45.8334 40.5168V11.5341L34.2261 16.507V16.5093ZM4.58337 11.4585L20.625 4.5835L34.375 11.4585L48.8194 5.2687C48.9938 5.19396 49.184 5.16368 49.3729 5.18057C49.5619 5.19747 49.7437 5.26102 49.902 5.36552C50.0604 5.47001 50.1903 5.61219 50.2801 5.77928C50.3699 5.94638 50.4169 6.13316 50.4167 6.32287V43.5418L34.375 50.4168L20.625 43.5418L6.18067 49.7316C6.0063 49.8064 5.81611 49.8366 5.62715 49.8198C5.43819 49.8029 5.25639 49.7393 5.09805 49.6348C4.93972 49.5303 4.8098 49.3881 4.71997 49.221C4.63014 49.0539 4.58321 48.8672 4.58337 48.6774V11.4585ZM13.75 25.2085H18.3334V29.7918H13.75V25.2085ZM22.9167 25.2085H27.5V29.7918H22.9167V25.2085ZM36.6621 25.0641L39.4992 22.2293L41.9284 24.6585L39.0936 27.4956L41.9284 30.3327L39.4992 32.7618L36.6621 29.927L33.8273 32.7618L31.3959 30.3327L34.2307 27.4956L31.3959 24.6608L33.825 22.2293L36.6621 25.0641Z" fill="white"/>
</g>
<defs>
<clipPath id="clip0_370_584">
<rect width="55" height="55" fill="white"/>
</clipPath>
</defs>
</svg>
