<svg xmlns="http://www.w3.org/2000/svg" xmlns:xlink="http://www.w3.org/1999/xlink" width="500" zoomAndPan="magnify" viewBox="0 0 375 374.999991" height="500" preserveAspectRatio="xMidYMid meet" version="1.0"><defs><clipPath id="11762fe779"><path d="M 37.503906 37.492188 L 55.3125 37.492188 L 55.3125 319.683594 L 37.503906 319.683594 Z M 37.503906 37.492188 " clip-rule="nonzero"/></clipPath><clipPath id="e87687dc0f"><path d="M 0.503906 0.492188 L 18.3125 0.492188 L 18.3125 282.683594 L 0.503906 282.683594 Z M 0.503906 0.492188 " clip-rule="nonzero"/></clipPath><clipPath id="543cb057dd"><rect x="0" width="19" y="0" height="283"/></clipPath><clipPath id="efc5b3819c"><path d="M 55.3125 55.304688 L 73.121094 55.304688 L 73.121094 337.492188 L 55.3125 337.492188 Z M 55.3125 55.304688 " clip-rule="nonzero"/></clipPath><clipPath id="8af14e1041"><path d="M 0.3125 0.304688 L 18.121094 0.304688 L 18.121094 282.492188 L 0.3125 282.492188 Z M 0.3125 0.304688 " clip-rule="nonzero"/></clipPath><clipPath id="b1cc9696db"><rect x="0" width="19" y="0" height="283"/></clipPath><clipPath id="d607263d5f"><path d="M 55.308594 319.691406 L 227.617188 319.691406 L 227.617188 337.5 L 55.308594 337.5 Z M 55.308594 319.691406 " clip-rule="nonzero"/></clipPath><clipPath id="f22628ed71"><path d="M 0.308594 0.691406 L 172.617188 0.691406 L 172.617188 18.5 L 0.308594 18.5 Z M 0.308594 0.691406 " clip-rule="nonzero"/></clipPath><clipPath id="faf379e3e4"><rect x="0" width="173" y="0" height="19"/></clipPath><clipPath id="f13b1f6a76"><path d="M 55.308594 301.882812 L 209.808594 301.882812 L 209.808594 319.691406 L 55.308594 319.691406 Z M 55.308594 301.882812 " clip-rule="nonzero"/></clipPath><clipPath id="68254aa123"><path d="M 0.308594 0.882812 L 154.808594 0.882812 L 154.808594 18.691406 L 0.308594 18.691406 Z M 0.308594 0.882812 " clip-rule="nonzero"/></clipPath><clipPath id="b6186f15a2"><rect x="0" width="155" y="0" height="19"/></clipPath><clipPath id="b3079f990b"><path d="M 319.683594 55.304688 L 337.492188 55.304688 L 337.492188 337.496094 L 319.683594 337.496094 Z M 319.683594 55.304688 " clip-rule="nonzero"/></clipPath><clipPath id="7a242b1154"><path d="M 0.683594 0.304688 L 18.492188 0.304688 L 18.492188 282.496094 L 0.683594 282.496094 Z M 0.683594 0.304688 " clip-rule="nonzero"/></clipPath><clipPath id="6b346ef462"><rect x="0" width="19" y="0" height="283"/></clipPath><clipPath id="8049ddfc78"><path d="M 301.875 37.496094 L 319.683594 37.496094 L 319.683594 319.6875 L 301.875 319.6875 Z M 301.875 37.496094 " clip-rule="nonzero"/></clipPath><clipPath id="30fa28a7c6"><path d="M 0.875 0.496094 L 18.683594 0.496094 L 18.683594 282.6875 L 0.875 282.6875 Z M 0.875 0.496094 " clip-rule="nonzero"/></clipPath><clipPath id="8d883b6219"><rect x="0" width="19" y="0" height="283"/></clipPath><clipPath id="3487100501"><path d="M 147.375 37.492188 L 319.683594 37.492188 L 319.683594 55.300781 L 147.375 55.300781 Z M 147.375 37.492188 " clip-rule="nonzero"/></clipPath><clipPath id="8966004f7d"><path d="M 0.375 0.492188 L 172.683594 0.492188 L 172.683594 18.300781 L 0.375 18.300781 Z M 0.375 0.492188 " clip-rule="nonzero"/></clipPath><clipPath id="7f7a731f66"><rect x="0" width="173" y="0" height="19"/></clipPath><clipPath id="8a8fb8ded6"><path d="M 165.179688 55.300781 L 319.679688 55.300781 L 319.679688 73.109375 L 165.179688 73.109375 Z M 165.179688 55.300781 " clip-rule="nonzero"/></clipPath><clipPath id="f8eae3428a"><path d="M 0.179688 0.300781 L 154.679688 0.300781 L 154.679688 18.109375 L 0.179688 18.109375 Z M 0.179688 0.300781 " clip-rule="nonzero"/></clipPath><clipPath id="235f564ab7"><rect x="0" width="155" y="0" height="19"/></clipPath><clipPath id="4e774dbfbe"><path d="M 46.40625 55.300781 L 64.214844 55.300781 L 64.214844 319.683594 L 46.40625 319.683594 Z M 46.40625 55.300781 " clip-rule="nonzero"/></clipPath><clipPath id="2eb65b0f7e"><path d="M 0.40625 0.300781 L 18.214844 0.300781 L 18.214844 264.683594 L 0.40625 264.683594 Z M 0.40625 0.300781 " clip-rule="nonzero"/></clipPath><clipPath id="dca322f675"><rect x="0" width="19" y="0" height="265"/></clipPath><clipPath id="9005c4c773"><path d="M 55.308594 310.785156 L 209.808594 310.785156 L 209.808594 328.59375 L 55.308594 328.59375 Z M 55.308594 310.785156 " clip-rule="nonzero"/></clipPath><clipPath id="a59fc943f1"><path d="M 0.308594 0.785156 L 154.808594 0.785156 L 154.808594 18.59375 L 0.308594 18.59375 Z M 0.308594 0.785156 " clip-rule="nonzero"/></clipPath><clipPath id="4d1890f155"><rect x="0" width="155" y="0" height="19"/></clipPath><clipPath id="636c83ea40"><path d="M 310.777344 55.308594 L 328.585938 55.308594 L 328.585938 319.691406 L 310.777344 319.691406 Z M 310.777344 55.308594 " clip-rule="nonzero"/></clipPath><clipPath id="f0885660fa"><path d="M 0.777344 0.308594 L 18.585938 0.308594 L 18.585938 264.691406 L 0.777344 264.691406 Z M 0.777344 0.308594 " clip-rule="nonzero"/></clipPath><clipPath id="7d1de6c6ed"><rect x="0" width="19" y="0" height="265"/></clipPath><clipPath id="077a70ddc2"><path d="M 165.179688 46.394531 L 319.679688 46.394531 L 319.679688 64.207031 L 165.179688 64.207031 Z M 165.179688 46.394531 " clip-rule="nonzero"/></clipPath><clipPath id="7856d1db42"><path d="M 0.179688 0.394531 L 154.679688 0.394531 L 154.679688 18.207031 L 0.179688 18.207031 Z M 0.179688 0.394531 " clip-rule="nonzero"/></clipPath><clipPath id="673556553e"><rect x="0" width="155" y="0" height="19"/></clipPath><clipPath id="40d2e590e7"><path d="M 105.203125 162.886719 L 114.6875 162.886719 L 114.6875 254.933594 L 105.203125 254.933594 Z M 105.203125 162.886719 " clip-rule="nonzero"/></clipPath><clipPath id="afc03179f7"><path d="M 0.203125 0.886719 L 9.6875 0.886719 L 9.6875 92.933594 L 0.203125 92.933594 Z M 0.203125 0.886719 " clip-rule="nonzero"/></clipPath><clipPath id="c8eeb75e07"><rect x="0" width="10" y="0" height="93"/></clipPath><clipPath id="e6f79150e8"><path d="M 105.195312 246.46875 L 133.605469 246.46875 L 133.605469 254.9375 L 105.195312 254.9375 Z M 105.195312 246.46875 " clip-rule="nonzero"/></clipPath><clipPath id="1a8a0bfb87"><path d="M 0.195312 0.46875 L 28.605469 0.46875 L 28.605469 8.9375 L 0.195312 8.9375 Z M 0.195312 0.46875 " clip-rule="nonzero"/></clipPath><clipPath id="08b581560e"><rect x="0" width="29" y="0" height="9"/></clipPath><clipPath id="d725a02bbc"><path d="M 121.617188 254.25 L 154.726562 254.25 L 154.726562 262.71875 L 121.617188 262.71875 Z M 121.617188 254.25 " clip-rule="nonzero"/></clipPath><clipPath id="25e445c037"><path d="M 0.617188 0.25 L 33.726562 0.25 L 33.726562 8.71875 L 0.617188 8.71875 Z M 0.617188 0.25 " clip-rule="nonzero"/></clipPath><clipPath id="e48b212632"><rect x="0" width="34" y="0" height="9"/></clipPath><clipPath id="bbc137cac6"><path d="M 146.929688 262.035156 L 166.957031 262.035156 L 166.957031 270.503906 L 146.929688 270.503906 Z M 146.929688 262.035156 " clip-rule="nonzero"/></clipPath><clipPath id="fc905e33c8"><path d="M 0.929688 0.0351562 L 20.957031 0.0351562 L 20.957031 8.503906 L 0.929688 8.503906 Z M 0.929688 0.0351562 " clip-rule="nonzero"/></clipPath><clipPath id="8902109f45"><rect x="0" width="21" y="0" height="9"/></clipPath><clipPath id="9cc6a6357c"><path d="M 159.285156 268.675781 L 173.597656 268.675781 L 173.597656 277.140625 L 159.285156 277.140625 Z M 159.285156 268.675781 " clip-rule="nonzero"/></clipPath><clipPath id="b49b327d3b"><path d="M 0.285156 0.675781 L 14.597656 0.675781 L 14.597656 9.140625 L 0.285156 9.140625 Z M 0.285156 0.675781 " clip-rule="nonzero"/></clipPath><clipPath id="ee9deb5caf"><rect x="0" width="15" y="0" height="10"/></clipPath><clipPath id="176fcbc33e"><path d="M 169.867188 276.199219 L 204.753906 276.199219 L 204.753906 283.523438 L 169.867188 283.523438 Z M 169.867188 276.199219 " clip-rule="nonzero"/></clipPath><clipPath id="f4f5ada1ac"><path d="M 0.867188 0.199219 L 35.753906 0.199219 L 35.753906 7.523438 L 0.867188 7.523438 Z M 0.867188 0.199219 " clip-rule="nonzero"/></clipPath><clipPath id="fd9c972935"><rect x="0" width="36" y="0" height="8"/></clipPath><clipPath id="13809e46f0"><path d="M 199.445312 268.675781 L 213.757812 268.675781 L 213.757812 277.140625 L 199.445312 277.140625 Z M 199.445312 268.675781 " clip-rule="nonzero"/></clipPath><clipPath id="81c6a470f6"><path d="M 0.445312 0.675781 L 14.757812 0.675781 L 14.757812 9.140625 L 0.445312 9.140625 Z M 0.445312 0.675781 " clip-rule="nonzero"/></clipPath><clipPath id="9594f3341b"><rect x="0" width="15" y="0" height="10"/></clipPath><clipPath id="2ab8d14c90"><path d="M 206.601562 262.035156 L 226.628906 262.035156 L 226.628906 270.503906 L 206.601562 270.503906 Z M 206.601562 262.035156 " clip-rule="nonzero"/></clipPath><clipPath id="dc33384629"><path d="M 0.601562 0.0351562 L 20.628906 0.0351562 L 20.628906 8.503906 L 0.601562 8.503906 Z M 0.601562 0.0351562 " clip-rule="nonzero"/></clipPath><clipPath id="4a615f487c"><rect x="0" width="21" y="0" height="9"/></clipPath><clipPath id="f699ffdbcc"><path d="M 219.347656 254.25 L 252.460938 254.25 L 252.460938 262.71875 L 219.347656 262.71875 Z M 219.347656 254.25 " clip-rule="nonzero"/></clipPath><clipPath id="b0a0c01a1e"><path d="M 0.347656 0.25 L 33.460938 0.25 L 33.460938 8.71875 L 0.347656 8.71875 Z M 0.347656 0.25 " clip-rule="nonzero"/></clipPath><clipPath id="e56dbf22ca"><rect x="0" width="34" y="0" height="9"/></clipPath><clipPath id="8d16365750"><path d="M 241.382812 246.46875 L 269.792969 246.46875 L 269.792969 254.9375 L 241.382812 254.9375 Z M 241.382812 246.46875 " clip-rule="nonzero"/></clipPath><clipPath id="4a8bef6975"><path d="M 0.382812 0.46875 L 28.792969 0.46875 L 28.792969 8.9375 L 0.382812 8.9375 Z M 0.382812 0.46875 " clip-rule="nonzero"/></clipPath><clipPath id="280678e3ec"><rect x="0" width="29" y="0" height="9"/></clipPath><clipPath id="f102e79526"><path d="M 260.3125 162.886719 L 269.796875 162.886719 L 269.796875 254.933594 L 260.3125 254.933594 Z M 260.3125 162.886719 " clip-rule="nonzero"/></clipPath><clipPath id="304cf49299"><path d="M 0.3125 0.886719 L 9.796875 0.886719 L 9.796875 92.933594 L 0.3125 92.933594 Z M 0.3125 0.886719 " clip-rule="nonzero"/></clipPath><clipPath id="a08318c881"><rect x="0" width="10" y="0" height="93"/></clipPath><clipPath id="2b816d0d2a"><path d="M 119.695312 167.691406 L 148.105469 167.691406 L 148.105469 240.238281 L 119.695312 240.238281 Z M 119.695312 167.691406 " clip-rule="nonzero"/></clipPath><clipPath id="3d1b8828d9"><path d="M 0.695312 0.691406 L 29.105469 0.691406 L 29.105469 73.238281 L 0.695312 73.238281 Z M 0.695312 0.691406 " clip-rule="nonzero"/></clipPath><clipPath id="d64e04c443"><rect x="0" width="30" y="0" height="74"/></clipPath><clipPath id="86d919e83a"><path d="M 138.597656 238.285156 L 167.011719 238.285156 L 167.011719 246.753906 L 138.597656 246.753906 Z M 138.597656 238.285156 " clip-rule="nonzero"/></clipPath><clipPath id="2c771c51d3"><path d="M 0.597656 0.285156 L 29.011719 0.285156 L 29.011719 8.753906 L 0.597656 8.753906 Z M 0.597656 0.285156 " clip-rule="nonzero"/></clipPath><clipPath id="9e6b8a754f"><rect x="0" width="30" y="0" height="9"/></clipPath><clipPath id="25cad0e05a"><path d="M 160.070312 176.371094 L 214.113281 176.371094 L 214.113281 254.652344 L 160.070312 254.652344 Z M 160.070312 176.371094 " clip-rule="nonzero"/></clipPath><clipPath id="8118f6d50a"><path d="M 0.0703125 0.371094 L 54.113281 0.371094 L 54.113281 78.652344 L 0.0703125 78.652344 Z M 0.0703125 0.371094 " clip-rule="nonzero"/></clipPath><clipPath id="d8812ad9d9"><rect x="0" width="55" y="0" height="79"/></clipPath><clipPath id="800a83d4aa"><path d="M 172.136719 252.488281 L 200.867188 252.488281 L 200.867188 260.957031 L 172.136719 260.957031 Z M 172.136719 252.488281 " clip-rule="nonzero"/></clipPath><clipPath id="eafd9a039d"><path d="M 0.136719 0.488281 L 28.867188 0.488281 L 28.867188 8.957031 L 0.136719 8.957031 Z M 0.136719 0.488281 " clip-rule="nonzero"/></clipPath><clipPath id="2b814d834d"><rect x="0" width="29" y="0" height="9"/></clipPath><clipPath id="3f9b15632f"><path d="M 178.976562 259.222656 L 194.140625 259.222656 L 194.140625 267.691406 L 178.976562 267.691406 Z M 178.976562 259.222656 " clip-rule="nonzero"/></clipPath><clipPath id="4724d9455d"><path d="M 0.976562 0.222656 L 16.140625 0.222656 L 16.140625 8.691406 L 0.976562 8.691406 Z M 0.976562 0.222656 " clip-rule="nonzero"/></clipPath><clipPath id="fc2713ca9c"><rect x="0" width="17" y="0" height="9"/></clipPath><clipPath id="dad9f449cf"><path d="M 207.492188 238.285156 L 235.90625 238.285156 L 235.90625 246.753906 L 207.492188 246.753906 Z M 207.492188 238.285156 " clip-rule="nonzero"/></clipPath><clipPath id="57dbe93042"><path d="M 0.492188 0.285156 L 28.90625 0.285156 L 28.90625 8.753906 L 0.492188 8.753906 Z M 0.492188 0.285156 " clip-rule="nonzero"/></clipPath><clipPath id="281affba23"><rect x="0" width="29" y="0" height="9"/></clipPath><clipPath id="f5605ef4db"><path d="M 226.628906 167.691406 L 255.039062 167.691406 L 255.039062 240.238281 L 226.628906 240.238281 Z M 226.628906 167.691406 " clip-rule="nonzero"/></clipPath><clipPath id="535bd59e97"><path d="M 0.628906 0.691406 L 29.039062 0.691406 L 29.039062 73.238281 L 0.628906 73.238281 Z M 0.628906 0.691406 " clip-rule="nonzero"/></clipPath><clipPath id="d9c9196497"><rect x="0" width="30" y="0" height="74"/></clipPath><clipPath id="65787020f5"><path d="M 126.621094 149.242188 L 160.421875 149.242188 L 160.421875 188.417969 L 126.621094 188.417969 Z M 126.621094 149.242188 " clip-rule="nonzero"/></clipPath><clipPath id="c2ebaf89cd"><path d="M 0.621094 0.242188 L 34.421875 0.242188 L 34.421875 39.417969 L 0.621094 39.417969 Z M 0.621094 0.242188 " clip-rule="nonzero"/></clipPath><clipPath id="9a3e6436b5"><rect x="0" width="35" y="0" height="40"/></clipPath><clipPath id="1394cf1c92"><path d="M 141.992188 162.566406 L 176.003906 162.566406 L 176.003906 246.191406 L 141.992188 246.191406 Z M 141.992188 162.566406 " clip-rule="nonzero"/></clipPath><clipPath id="bb81354563"><path d="M 0.992188 0.566406 L 35.003906 0.566406 L 35.003906 84.191406 L 0.992188 84.191406 Z M 0.992188 0.566406 " clip-rule="nonzero"/></clipPath><clipPath id="385339563b"><rect x="0" width="36" y="0" height="85"/></clipPath><clipPath id="977d53c2b2"><path d="M 176.007812 176.371094 L 194.144531 176.371094 L 194.144531 248.855469 L 176.007812 248.855469 Z M 176.007812 176.371094 " clip-rule="nonzero"/></clipPath><clipPath id="b4027c1413"><path d="M 0.0078125 0.371094 L 18.144531 0.371094 L 18.144531 72.855469 L 0.0078125 72.855469 Z M 0.0078125 0.371094 " clip-rule="nonzero"/></clipPath><clipPath id="816048187e"><rect x="0" width="19" y="0" height="73"/></clipPath><clipPath id="5a0656a141"><path d="M 194.140625 162.570312 L 227.941406 162.570312 L 227.941406 246.191406 L 194.140625 246.191406 Z M 194.140625 162.570312 " clip-rule="nonzero"/></clipPath><clipPath id="dbc48d4be0"><path d="M 0.140625 0.570312 L 33.941406 0.570312 L 33.941406 84.191406 L 0.140625 84.191406 Z M 0.140625 0.570312 " clip-rule="nonzero"/></clipPath><clipPath id="1243f9b479"><rect x="0" width="34" y="0" height="85"/></clipPath><clipPath id="efc769d2de"><path d="M 218.472656 149.238281 L 249.386719 149.238281 L 249.386719 187.953125 L 218.472656 187.953125 Z M 218.472656 149.238281 " clip-rule="nonzero"/></clipPath><clipPath id="518f62a8ae"><path d="M 0.472656 0.238281 L 31.386719 0.238281 L 31.386719 38.953125 L 0.472656 38.953125 Z M 0.472656 0.238281 " clip-rule="nonzero"/></clipPath><clipPath id="28c08c783f"><rect x="0" width="32" y="0" height="39"/></clipPath><clipPath id="213c5857b9"><path d="M 146.125 200.640625 L 159.453125 200.640625 L 159.453125 214.554688 L 146.125 214.554688 Z M 146.125 200.640625 " clip-rule="nonzero"/></clipPath><clipPath id="b2bd610f1d"><path d="M 0.125 0.640625 L 13.453125 0.640625 L 13.453125 14.554688 L 0.125 14.554688 Z M 0.125 0.640625 " clip-rule="nonzero"/></clipPath><clipPath id="78881f1aaf"><rect x="0" width="14" y="0" height="15"/></clipPath><clipPath id="bd80c9281b"><path d="M 153.066406 208.972656 L 166.394531 208.972656 L 166.394531 221.925781 L 153.066406 221.925781 Z M 153.066406 208.972656 " clip-rule="nonzero"/></clipPath><clipPath id="fdd882c506"><path d="M 0.0664062 0.972656 L 13.394531 0.972656 L 13.394531 13.925781 L 0.0664062 13.925781 Z M 0.0664062 0.972656 " clip-rule="nonzero"/></clipPath><clipPath id="a7275ea4df"><rect x="0" width="14" y="0" height="14"/></clipPath><clipPath id="31204af895"><path d="M 160.421875 215.445312 L 173.65625 215.445312 L 173.65625 229.082031 L 160.421875 229.082031 Z M 160.421875 215.445312 " clip-rule="nonzero"/></clipPath><clipPath id="90ae2d20f2"><path d="M 0.421875 0.445312 L 13.65625 0.445312 L 13.65625 14.082031 L 0.421875 14.082031 Z M 0.421875 0.445312 " clip-rule="nonzero"/></clipPath><clipPath id="c761fd01dc"><rect x="0" width="14" y="0" height="15"/></clipPath><clipPath id="d038c1166b"><path d="M 167.472656 222.460938 L 187.007812 222.460938 L 187.007812 235.5625 L 167.472656 235.5625 Z M 167.472656 222.460938 " clip-rule="nonzero"/></clipPath><clipPath id="94326c263b"><path d="M 0.472656 0.460938 L 20.007812 0.460938 L 20.007812 13.5625 L 0.472656 13.5625 Z M 0.472656 0.460938 " clip-rule="nonzero"/></clipPath><clipPath id="7a3f4ebc3a"><rect x="0" width="21" y="0" height="14"/></clipPath><clipPath id="2c869a0263"><path d="M 173.914062 235.292969 L 181.238281 235.292969 L 181.238281 242.003906 L 173.914062 242.003906 Z M 173.914062 235.292969 " clip-rule="nonzero"/></clipPath><clipPath id="de18f2a4a3"><path d="M 0.914062 0.292969 L 8.238281 0.292969 L 8.238281 7.003906 L 0.914062 7.003906 Z M 0.914062 0.292969 " clip-rule="nonzero"/></clipPath><clipPath id="108f1c8e6f"><rect x="0" width="9" y="0" height="8"/></clipPath><clipPath id="15e4cc60a9"><path d="M 180.90625 215.640625 L 194.140625 215.640625 L 194.140625 229.273438 L 180.90625 229.273438 Z M 180.90625 215.640625 " clip-rule="nonzero"/></clipPath><clipPath id="f04bb9590c"><path d="M 0.90625 0.640625 L 14.140625 0.640625 L 14.140625 14.273438 L 0.90625 14.273438 Z M 0.90625 0.640625 " clip-rule="nonzero"/></clipPath><clipPath id="8fe068eafc"><rect x="0" width="15" y="0" height="15"/></clipPath><clipPath id="96ec5de49e"><path d="M 188.078125 208.972656 L 201.40625 208.972656 L 201.40625 221.925781 L 188.078125 221.925781 Z M 188.078125 208.972656 " clip-rule="nonzero"/></clipPath><clipPath id="0eb123b303"><path d="M 0.078125 0.972656 L 13.40625 0.972656 L 13.40625 13.925781 L 0.078125 13.925781 Z M 0.078125 0.972656 " clip-rule="nonzero"/></clipPath><clipPath id="aaece7b4d6"><rect x="0" width="14" y="0" height="14"/></clipPath><clipPath id="5ceaddd10b"><path d="M 194.742188 201.121094 L 208.066406 201.121094 L 208.066406 215.144531 L 194.742188 215.144531 Z M 194.742188 201.121094 " clip-rule="nonzero"/></clipPath><clipPath id="f282db8fad"><path d="M 0.742188 0.121094 L 14.066406 0.121094 L 14.066406 14.144531 L 0.742188 14.144531 Z M 0.742188 0.121094 " clip-rule="nonzero"/></clipPath><clipPath id="34bfef0edb"><rect x="0" width="15" y="0" height="15"/></clipPath><clipPath id="9b65266e4e"><path d="M 201.363281 194.285156 L 214.691406 194.285156 L 214.691406 208.132812 L 201.363281 208.132812 Z M 201.363281 194.285156 " clip-rule="nonzero"/></clipPath><clipPath id="28b57b0f16"><path d="M 0.363281 0.285156 L 13.691406 0.285156 L 13.691406 14.132812 L 0.363281 14.132812 Z M 0.363281 0.285156 " clip-rule="nonzero"/></clipPath><clipPath id="869b7613ba"><rect x="0" width="14" y="0" height="15"/></clipPath><clipPath id="cfe4fb896a"><path d="M 208.84375 187.339844 L 221.207031 187.339844 L 221.207031 201.722656 L 208.84375 201.722656 Z M 208.84375 187.339844 " clip-rule="nonzero"/></clipPath><clipPath id="4f5683339e"><path d="M 0.84375 0.339844 L 13.207031 0.339844 L 13.207031 14.722656 L 0.84375 14.722656 Z M 0.84375 0.339844 " clip-rule="nonzero"/></clipPath><clipPath id="791cf2dfd2"><rect x="0" width="14" y="0" height="15"/></clipPath><clipPath id="82eb46cb79"><path d="M 215.578125 180.761719 L 227.945312 180.761719 L 227.945312 195.140625 L 215.578125 195.140625 Z M 215.578125 180.761719 " clip-rule="nonzero"/></clipPath><clipPath id="585a258fc0"><path d="M 0.578125 0.761719 L 12.945312 0.761719 L 12.945312 15.140625 L 0.578125 15.140625 Z M 0.578125 0.761719 " clip-rule="nonzero"/></clipPath><clipPath id="191217721d"><rect x="0" width="13" y="0" height="16"/></clipPath><clipPath id="932c6a2496"><path d="M 194.25 137.191406 L 205.996094 137.191406 L 205.996094 148.9375 L 194.25 148.9375 Z M 194.25 137.191406 " clip-rule="nonzero"/></clipPath><clipPath id="3db8e22312"><path d="M 0.25 0.191406 L 11.996094 0.191406 L 11.996094 11.9375 L 0.25 11.9375 Z M 0.25 0.191406 " clip-rule="nonzero"/></clipPath><clipPath id="5f542a636a"><rect x="0" width="12" y="0" height="12"/></clipPath><clipPath id="443ff21ecb"><path d="M 169.789062 114.546875 L 181.539062 114.546875 L 181.539062 126.296875 L 169.789062 126.296875 Z M 169.789062 114.546875 " clip-rule="nonzero"/></clipPath><clipPath id="c7657c33c7"><path d="M 0.789062 0.546875 L 12.539062 0.546875 L 12.539062 12.296875 L 0.789062 12.296875 Z M 0.789062 0.546875 " clip-rule="nonzero"/></clipPath><clipPath id="1b4bbe70c1"><rect x="0" width="13" y="0" height="13"/></clipPath><clipPath id="439490efe6"><path d="M 194.25 91.472656 L 205.996094 91.472656 L 205.996094 103.222656 L 194.25 103.222656 Z M 194.25 91.472656 " clip-rule="nonzero"/></clipPath><clipPath id="6d91a5975f"><path d="M 0.25 0.472656 L 11.996094 0.472656 L 11.996094 12.222656 L 0.25 12.222656 Z M 0.25 0.472656 " clip-rule="nonzero"/></clipPath><clipPath id="3b54396e64"><rect x="0" width="12" y="0" height="13"/></clipPath></defs><g clip-path="url(#11762fe779)"><g transform="matrix(1, 0, 0, 1, 37, 37)"><g clip-path="url(#543cb057dd)"><g clip-path="url(#e87687dc0f)"><path fill="#1553ad" d="M 0.503906 282.683594 L 0.503906 0.523438 L 18.3125 0.523438 L 18.3125 282.683594 Z M 0.503906 282.683594 " fill-opacity="1" fill-rule="nonzero"/></g></g></g></g><g clip-path="url(#efc5b3819c)"><g transform="matrix(1, 0, 0, 1, 55, 55)"><g clip-path="url(#b1cc9696db)"><g clip-path="url(#8af14e1041)"><path fill="#1553ad" d="M 0.3125 282.492188 L 0.3125 0.332031 L 18.121094 0.332031 L 18.121094 282.492188 Z M 0.3125 282.492188 " fill-opacity="1" fill-rule="nonzero"/></g></g></g></g><g clip-path="url(#d607263d5f)"><g transform="matrix(1, 0, 0, 1, 55, 319)"><g clip-path="url(#faf379e3e4)"><g clip-path="url(#f22628ed71)"><path fill="#1553ad" d="M 0.308594 0.691406 L 172.625 0.691406 L 172.625 18.5 L 0.308594 18.5 Z M 0.308594 0.691406 " fill-opacity="1" fill-rule="nonzero"/></g></g></g></g><g clip-path="url(#f13b1f6a76)"><g transform="matrix(1, 0, 0, 1, 55, 301)"><g clip-path="url(#b6186f15a2)"><g clip-path="url(#68254aa123)"><path fill="#1553ad" d="M 0.308594 0.882812 L 154.816406 0.882812 L 154.816406 18.691406 L 0.308594 18.691406 Z M 0.308594 0.882812 " fill-opacity="1" fill-rule="nonzero"/></g></g></g></g><g clip-path="url(#b3079f990b)"><g transform="matrix(1, 0, 0, 1, 319, 55)"><g clip-path="url(#6b346ef462)"><g clip-path="url(#7a242b1154)"><path fill="#faf3ff" d="M 18.492188 0.304688 L 18.492188 282.46875 L 0.683594 282.46875 L 0.683594 0.304688 Z M 18.492188 0.304688 " fill-opacity="1" fill-rule="nonzero"/></g></g></g></g><g clip-path="url(#8049ddfc78)"><g transform="matrix(1, 0, 0, 1, 301, 37)"><g clip-path="url(#8d883b6219)"><g clip-path="url(#30fa28a7c6)"><path fill="#faf3ff" d="M 18.683594 0.496094 L 18.683594 282.65625 L 0.875 282.65625 L 0.875 0.496094 Z M 18.683594 0.496094 " fill-opacity="1" fill-rule="nonzero"/></g></g></g></g><g clip-path="url(#3487100501)"><g transform="matrix(1, 0, 0, 1, 147, 37)"><g clip-path="url(#7f7a731f66)"><g clip-path="url(#8966004f7d)"><path fill="#faf3ff" d="M 172.683594 18.300781 L 0.367188 18.300781 L 0.367188 0.492188 L 172.683594 0.492188 Z M 172.683594 18.300781 " fill-opacity="1" fill-rule="nonzero"/></g></g></g></g><g clip-path="url(#8a8fb8ded6)"><g transform="matrix(1, 0, 0, 1, 165, 55)"><g clip-path="url(#235f564ab7)"><g clip-path="url(#f8eae3428a)"><path fill="#faf3ff" d="M 154.679688 18.109375 L 0.175781 18.109375 L 0.175781 0.300781 L 154.679688 0.300781 Z M 154.679688 18.109375 " fill-opacity="1" fill-rule="nonzero"/></g></g></g></g><g clip-path="url(#4e774dbfbe)"><g transform="matrix(1, 0, 0, 1, 46, 55)"><g clip-path="url(#dca322f675)"><g clip-path="url(#2eb65b0f7e)"><path fill="#1553ad" d="M 0.40625 264.683594 L 0.40625 0.332031 L 18.214844 0.332031 L 18.214844 264.683594 Z M 0.40625 264.683594 " fill-opacity="1" fill-rule="nonzero"/></g></g></g></g><g clip-path="url(#9005c4c773)"><g transform="matrix(1, 0, 0, 1, 55, 310)"><g clip-path="url(#4d1890f155)"><g clip-path="url(#a59fc943f1)"><path fill="#1553ad" d="M 0.308594 0.785156 L 154.816406 0.785156 L 154.816406 18.59375 L 0.308594 18.59375 Z M 0.308594 0.785156 " fill-opacity="1" fill-rule="nonzero"/></g></g></g></g><g clip-path="url(#636c83ea40)"><g transform="matrix(1, 0, 0, 1, 310, 55)"><g clip-path="url(#7d1de6c6ed)"><g clip-path="url(#f0885660fa)"><path fill="#faf3ff" d="M 18.585938 0.308594 L 18.585938 264.660156 L 0.777344 264.660156 L 0.777344 0.308594 Z M 18.585938 0.308594 " fill-opacity="1" fill-rule="nonzero"/></g></g></g></g><g clip-path="url(#077a70ddc2)"><g transform="matrix(1, 0, 0, 1, 165, 46)"><g clip-path="url(#673556553e)"><g clip-path="url(#7856d1db42)"><path fill="#faf3ff" d="M 154.679688 18.207031 L 0.175781 18.207031 L 0.175781 0.394531 L 154.679688 0.394531 Z M 154.679688 18.207031 " fill-opacity="1" fill-rule="nonzero"/></g></g></g></g><g clip-path="url(#40d2e590e7)"><g transform="matrix(1, 0, 0, 1, 105, 162)"><g clip-path="url(#c8eeb75e07)"><g clip-path="url(#afc03179f7)"><path fill="#1350a7" d="M 0.203125 0.886719 L 9.6875 0.886719 L 9.6875 92.953125 L 0.203125 92.953125 Z M 0.203125 0.886719 " fill-opacity="1" fill-rule="nonzero"/></g></g></g></g><g clip-path="url(#e6f79150e8)"><g transform="matrix(1, 0, 0, 1, 105, 246)"><g clip-path="url(#08b581560e)"><g clip-path="url(#1a8a0bfb87)"><path fill="#1350a7" d="M 28.605469 0.46875 L 28.605469 8.9375 L 0.191406 8.9375 L 0.191406 0.46875 Z M 28.605469 0.46875 " fill-opacity="1" fill-rule="nonzero"/></g></g></g></g><g clip-path="url(#d725a02bbc)"><g transform="matrix(1, 0, 0, 1, 121, 254)"><g clip-path="url(#e48b212632)"><g clip-path="url(#25e445c037)"><path fill="#1350a7" d="M 33.726562 0.25 L 33.726562 8.71875 L 0.613281 8.71875 L 0.613281 0.25 Z M 33.726562 0.25 " fill-opacity="1" fill-rule="nonzero"/></g></g></g></g><g clip-path="url(#bbc137cac6)"><g transform="matrix(1, 0, 0, 1, 146, 262)"><g clip-path="url(#8902109f45)"><g clip-path="url(#fc905e33c8)"><path fill="#1350a7" d="M 20.957031 0.0351562 L 20.957031 8.503906 L 0.945312 8.503906 L 0.945312 0.0351562 Z M 20.957031 0.0351562 " fill-opacity="1" fill-rule="nonzero"/></g></g></g></g><g clip-path="url(#9cc6a6357c)"><g transform="matrix(1, 0, 0, 1, 159, 268)"><g clip-path="url(#ee9deb5caf)"><g clip-path="url(#b49b327d3b)"><path fill="#1350a7" d="M 14.597656 0.675781 L 14.597656 9.140625 L 0.273438 9.140625 L 0.273438 0.675781 Z M 14.597656 0.675781 " fill-opacity="1" fill-rule="nonzero"/></g></g></g></g><g clip-path="url(#176fcbc33e)"><g transform="matrix(1, 0, 0, 1, 169, 276)"><g clip-path="url(#fd9c972935)"><g clip-path="url(#f4f5ada1ac)"><path fill="#1350a7" d="M 35.753906 0.199219 L 35.753906 7.523438 L 0.875 7.523438 L 0.875 0.199219 Z M 35.753906 0.199219 " fill-opacity="1" fill-rule="nonzero"/></g></g></g></g><g clip-path="url(#13809e46f0)"><g transform="matrix(1, 0, 0, 1, 199, 268)"><g clip-path="url(#9594f3341b)"><g clip-path="url(#81c6a470f6)"><path fill="#1350a7" d="M 14.757812 0.675781 L 14.757812 9.140625 L 0.433594 9.140625 L 0.433594 0.675781 Z M 14.757812 0.675781 " fill-opacity="1" fill-rule="nonzero"/></g></g></g></g><g clip-path="url(#2ab8d14c90)"><g transform="matrix(1, 0, 0, 1, 206, 262)"><g clip-path="url(#4a615f487c)"><g clip-path="url(#dc33384629)"><path fill="#1350a7" d="M 20.628906 0.0351562 L 20.628906 8.503906 L 0.617188 8.503906 L 0.617188 0.0351562 Z M 20.628906 0.0351562 " fill-opacity="1" fill-rule="nonzero"/></g></g></g></g><g clip-path="url(#f699ffdbcc)"><g transform="matrix(1, 0, 0, 1, 219, 254)"><g clip-path="url(#e56dbf22ca)"><g clip-path="url(#b0a0c01a1e)"><path fill="#1350a7" d="M 33.460938 0.25 L 33.460938 8.71875 L 0.347656 8.71875 L 0.347656 0.25 Z M 33.460938 0.25 " fill-opacity="1" fill-rule="nonzero"/></g></g></g></g><g clip-path="url(#8d16365750)"><g transform="matrix(1, 0, 0, 1, 241, 246)"><g clip-path="url(#280678e3ec)"><g clip-path="url(#4a8bef6975)"><path fill="#1350a7" d="M 28.792969 0.46875 L 28.792969 8.9375 L 0.375 8.9375 L 0.375 0.46875 Z M 28.792969 0.46875 " fill-opacity="1" fill-rule="nonzero"/></g></g></g></g><g clip-path="url(#f102e79526)"><g transform="matrix(1, 0, 0, 1, 260, 162)"><g clip-path="url(#a08318c881)"><g clip-path="url(#304cf49299)"><path fill="#1350a7" d="M 0.3125 0.886719 L 9.796875 0.886719 L 9.796875 92.953125 L 0.3125 92.953125 Z M 0.3125 0.886719 " fill-opacity="1" fill-rule="nonzero"/></g></g></g></g><g clip-path="url(#2b816d0d2a)"><g transform="matrix(1, 0, 0, 1, 119, 167)"><g clip-path="url(#d64e04c443)"><g clip-path="url(#3d1b8828d9)"><path fill="#faf3ff" d="M 29.105469 0.691406 L 29.105469 73.273438 L 0.695312 73.273438 L 0.695312 0.691406 Z M 29.105469 0.691406 " fill-opacity="1" fill-rule="nonzero"/></g></g></g></g><g clip-path="url(#86d919e83a)"><g transform="matrix(1, 0, 0, 1, 138, 238)"><g clip-path="url(#9e6b8a754f)"><g clip-path="url(#2c771c51d3)"><path fill="#faf3ff" d="M 29.011719 0.285156 L 29.011719 8.753906 L 0.59375 8.753906 L 0.59375 0.285156 Z M 29.011719 0.285156 " fill-opacity="1" fill-rule="nonzero"/></g></g></g></g><g clip-path="url(#25cad0e05a)"><g transform="matrix(1, 0, 0, 1, 160, 176)"><g clip-path="url(#d8812ad9d9)"><g clip-path="url(#8118f6d50a)"><path fill="#faf3ff" d="M 54.113281 0.371094 L 54.113281 78.695312 L 0.0703125 78.695312 L 0.0703125 0.371094 Z M 54.113281 0.371094 " fill-opacity="1" fill-rule="nonzero"/></g></g></g></g><g clip-path="url(#800a83d4aa)"><g transform="matrix(1, 0, 0, 1, 172, 252)"><g clip-path="url(#2b814d834d)"><g clip-path="url(#eafd9a039d)"><path fill="#faf3ff" d="M 28.867188 0.488281 L 28.867188 8.957031 L 0.121094 8.957031 L 0.121094 0.488281 Z M 28.867188 0.488281 " fill-opacity="1" fill-rule="nonzero"/></g></g></g></g><g clip-path="url(#3f9b15632f)"><g transform="matrix(1, 0, 0, 1, 178, 259)"><g clip-path="url(#fc2713ca9c)"><g clip-path="url(#4724d9455d)"><path fill="#faf3ff" d="M 16.140625 0.222656 L 16.140625 8.691406 L 0.992188 8.691406 L 0.992188 0.222656 Z M 16.140625 0.222656 " fill-opacity="1" fill-rule="nonzero"/></g></g></g></g><g clip-path="url(#dad9f449cf)"><g transform="matrix(1, 0, 0, 1, 207, 238)"><g clip-path="url(#281affba23)"><g clip-path="url(#57dbe93042)"><path fill="#faf3ff" d="M 28.90625 0.285156 L 28.90625 8.753906 L 0.488281 8.753906 L 0.488281 0.285156 Z M 28.90625 0.285156 " fill-opacity="1" fill-rule="nonzero"/></g></g></g></g><g clip-path="url(#f5605ef4db)"><g transform="matrix(1, 0, 0, 1, 226, 167)"><g clip-path="url(#d9c9196497)"><g clip-path="url(#535bd59e97)"><path fill="#faf3ff" d="M 29.039062 0.691406 L 29.039062 73.273438 L 0.628906 73.273438 L 0.628906 0.691406 Z M 29.039062 0.691406 " fill-opacity="1" fill-rule="nonzero"/></g></g></g></g><g clip-path="url(#65787020f5)"><g transform="matrix(1, 0, 0, 1, 126, 149)"><g clip-path="url(#9a3e6436b5)"><g clip-path="url(#c2ebaf89cd)"><path fill="#faf3ff" d="M 34.421875 0.242188 L 34.421875 39.453125 L 0.621094 39.453125 L 0.621094 0.242188 Z M 34.421875 0.242188 " fill-opacity="1" fill-rule="nonzero"/></g></g></g></g><g clip-path="url(#1394cf1c92)"><g transform="matrix(1, 0, 0, 1, 141, 162)"><g clip-path="url(#385339563b)"><g clip-path="url(#bb81354563)"><path fill="#faf3ff" d="M 35.003906 0.566406 L 35.003906 84.140625 L 0.992188 84.140625 L 0.992188 0.566406 Z M 35.003906 0.566406 " fill-opacity="1" fill-rule="nonzero"/></g></g></g></g><g clip-path="url(#977d53c2b2)"><g transform="matrix(1, 0, 0, 1, 176, 176)"><g clip-path="url(#816048187e)"><g clip-path="url(#b4027c1413)"><path fill="#faf3ff" d="M 18.144531 0.371094 L 18.144531 72.835938 L 0.0078125 72.835938 L 0.0078125 0.371094 Z M 18.144531 0.371094 " fill-opacity="1" fill-rule="nonzero"/></g></g></g></g><g clip-path="url(#5a0656a141)"><g transform="matrix(1, 0, 0, 1, 194, 162)"><g clip-path="url(#1243f9b479)"><g clip-path="url(#dbc48d4be0)"><path fill="#faf3ff" d="M 33.941406 0.570312 L 33.941406 84.144531 L 0.140625 84.144531 L 0.140625 0.570312 Z M 33.941406 0.570312 " fill-opacity="1" fill-rule="nonzero"/></g></g></g></g><g clip-path="url(#efc769d2de)"><g transform="matrix(1, 0, 0, 1, 218, 149)"><g clip-path="url(#28c08c783f)"><g clip-path="url(#518f62a8ae)"><path fill="#faf3ff" d="M 31.386719 0.238281 L 31.386719 39.007812 L 0.472656 39.007812 L 0.472656 0.238281 Z M 31.386719 0.238281 " fill-opacity="1" fill-rule="nonzero"/></g></g></g></g><g clip-path="url(#213c5857b9)"><g transform="matrix(1, 0, 0, 1, 146, 200)"><g clip-path="url(#78881f1aaf)"><g clip-path="url(#b2bd610f1d)"><path fill="#134b9a" d="M 13.453125 0.640625 L 13.453125 14.539062 L 0.125 14.539062 L 0.125 0.640625 Z M 13.453125 0.640625 " fill-opacity="1" fill-rule="nonzero"/></g></g></g></g><g clip-path="url(#bd80c9281b)"><g transform="matrix(1, 0, 0, 1, 153, 208)"><g clip-path="url(#a7275ea4df)"><g clip-path="url(#fdd882c506)"><path fill="#134b9a" d="M 13.394531 0.972656 L 13.394531 13.925781 L 0.0859375 13.925781 L 0.0859375 0.972656 Z M 13.394531 0.972656 " fill-opacity="1" fill-rule="nonzero"/></g></g></g></g><g clip-path="url(#31204af895)"><g transform="matrix(1, 0, 0, 1, 160, 215)"><g clip-path="url(#c761fd01dc)"><g clip-path="url(#90ae2d20f2)"><path fill="#134b9a" d="M 13.65625 0.445312 L 13.65625 14.09375 L 0.421875 14.09375 L 0.421875 0.445312 Z M 13.65625 0.445312 " fill-opacity="1" fill-rule="nonzero"/></g></g></g></g><g clip-path="url(#d038c1166b)"><g transform="matrix(1, 0, 0, 1, 167, 222)"><g clip-path="url(#7a3f4ebc3a)"><g clip-path="url(#94326c263b)"><path fill="#134b9a" d="M 20.007812 0.460938 L 20.007812 13.5625 L 0.460938 13.5625 L 0.460938 0.460938 Z M 20.007812 0.460938 " fill-opacity="1" fill-rule="nonzero"/></g></g></g></g><g clip-path="url(#2c869a0263)"><g transform="matrix(1, 0, 0, 1, 173, 235)"><g clip-path="url(#108f1c8e6f)"><g clip-path="url(#de18f2a4a3)"><path fill="#134b9a" d="M 8.238281 0.292969 L 8.238281 7.003906 L 0.921875 7.003906 L 0.921875 0.292969 Z M 8.238281 0.292969 " fill-opacity="1" fill-rule="nonzero"/></g></g></g></g><g clip-path="url(#15e4cc60a9)"><g transform="matrix(1, 0, 0, 1, 180, 215)"><g clip-path="url(#8fe068eafc)"><g clip-path="url(#f04bb9590c)"><path fill="#134b9a" d="M 14.140625 0.640625 L 14.140625 14.289062 L 0.90625 14.289062 L 0.90625 0.640625 Z M 14.140625 0.640625 " fill-opacity="1" fill-rule="nonzero"/></g></g></g></g><g clip-path="url(#96ec5de49e)"><g transform="matrix(1, 0, 0, 1, 188, 208)"><g clip-path="url(#aaece7b4d6)"><g clip-path="url(#0eb123b303)"><path fill="#134b9a" d="M 13.40625 0.972656 L 13.40625 13.925781 L 0.0976562 13.925781 L 0.0976562 0.972656 Z M 13.40625 0.972656 " fill-opacity="1" fill-rule="nonzero"/></g></g></g></g><g clip-path="url(#5ceaddd10b)"><g transform="matrix(1, 0, 0, 1, 194, 201)"><g clip-path="url(#34bfef0edb)"><g clip-path="url(#f282db8fad)"><path fill="#134b9a" d="M 14.066406 0.121094 L 14.066406 14.125 L 0.742188 14.125 L 0.742188 0.121094 Z M 14.066406 0.121094 " fill-opacity="1" fill-rule="nonzero"/></g></g></g></g><g clip-path="url(#9b65266e4e)"><g transform="matrix(1, 0, 0, 1, 201, 194)"><g clip-path="url(#869b7613ba)"><g clip-path="url(#28b57b0f16)"><path fill="#134b9a" d="M 13.691406 0.285156 L 13.691406 14.132812 L 0.363281 14.132812 L 0.363281 0.285156 Z M 13.691406 0.285156 " fill-opacity="1" fill-rule="nonzero"/></g></g></g></g><g clip-path="url(#cfe4fb896a)"><g transform="matrix(1, 0, 0, 1, 208, 187)"><g clip-path="url(#791cf2dfd2)"><g clip-path="url(#4f5683339e)"><path fill="#134b9a" d="M 13.207031 0.339844 L 13.207031 14.734375 L 0.84375 14.734375 L 0.84375 0.339844 Z M 13.207031 0.339844 " fill-opacity="1" fill-rule="nonzero"/></g></g></g></g><g clip-path="url(#82eb46cb79)"><g transform="matrix(1, 0, 0, 1, 215, 180)"><g clip-path="url(#191217721d)"><g clip-path="url(#585a258fc0)"><path fill="#134b9a" d="M 12.945312 0.761719 L 12.945312 15.15625 L 0.578125 15.15625 L 0.578125 0.761719 Z M 12.945312 0.761719 " fill-opacity="1" fill-rule="nonzero"/></g></g></g></g><g clip-path="url(#932c6a2496)"><g transform="matrix(1, 0, 0, 1, 194, 137)"><g clip-path="url(#5f542a636a)"><g clip-path="url(#3db8e22312)"><path fill="#faf3ff" d="M 0.25 0.191406 L 11.996094 0.191406 L 11.996094 11.9375 L 0.25 11.9375 Z M 0.25 0.191406 " fill-opacity="1" fill-rule="nonzero"/></g></g></g></g><g clip-path="url(#443ff21ecb)"><g transform="matrix(1, 0, 0, 1, 169, 114)"><g clip-path="url(#1b4bbe70c1)"><g clip-path="url(#c7657c33c7)"><path fill="#faf3ff" d="M 0.789062 0.546875 L 12.539062 0.546875 L 12.539062 12.296875 L 0.789062 12.296875 Z M 0.789062 0.546875 " fill-opacity="1" fill-rule="nonzero"/></g></g></g></g><g clip-path="url(#439490efe6)"><g transform="matrix(1, 0, 0, 1, 194, 91)"><g clip-path="url(#3b54396e64)"><g clip-path="url(#6d91a5975f)"><path fill="#faf3ff" d="M 0.25 0.472656 L 11.996094 0.472656 L 11.996094 12.222656 L 0.25 12.222656 Z M 0.25 0.472656 " fill-opacity="1" fill-rule="nonzero"/></g></g></g></g></svg>