<svg width="55" height="55" viewBox="0 0 55 55" fill="none" xmlns="http://www.w3.org/2000/svg">
<g clip-path="url(#clip0_368_642)">
<path d="M19.6485 30.7221L27.7472 38.8254L24.5091 42.0658L27.7518 45.3085L24.5114 48.549L18.8395 42.8771L12.3564 49.3602L9.11597 46.1198L15.5991 39.6344L9.92722 33.9648L13.1676 30.7244L16.4081 33.9625L19.6462 30.7221H19.6485ZM10.3672 6.875L18.4935 6.88188L45.5741 33.9648L48.8168 30.7244L52.0572 33.9648L46.3876 39.6367L52.8685 46.1198L49.6281 49.3602L43.1449 42.8771L37.4731 48.549L34.2326 45.3085L37.4731 42.0658L10.3741 14.9669L10.3672 6.875ZM43.4978 6.875L51.6172 6.88188L51.6218 14.9554L42.3337 24.2413L34.2303 16.1402L43.4978 6.875Z" fill="white"/>
</g>
<defs>
<clipPath id="clip0_368_642">
<rect width="55" height="55" fill="white"/>
</clipPath>
</defs>
</svg>
