<svg width="55" height="55" viewBox="0 0 55 55" fill="none" xmlns="http://www.w3.org/2000/svg">
<g clip-path="url(#clip0_368_679)">
<path d="M14.6254 13.6765C18.2778 10.7502 22.82 9.15904 27.5 9.1665C32.3698 9.1665 36.8454 10.8532 40.3746 13.6765L43.7044 10.3467L46.9448 13.5871L43.615 16.9169C46.0389 19.9514 47.5568 23.6087 47.9939 27.4677C48.4311 31.3268 47.7698 35.2309 46.0861 38.7307C44.4024 42.2305 41.7647 45.1838 38.4767 47.2508C35.1886 49.3177 31.3838 50.4143 27.5 50.4143C23.6163 50.4143 19.8114 49.3177 16.5234 47.2508C13.2353 45.1838 10.5977 42.2305 8.91396 38.7307C7.23026 35.2309 6.56893 31.3268 7.00608 27.4677C7.44324 23.6087 8.96111 19.9514 11.385 16.9169L8.05522 13.5894L11.2956 10.349L14.6254 13.6788V13.6765ZM27.5 45.8332C29.6066 45.8332 31.6926 45.4182 33.6389 44.6121C35.5852 43.8059 37.3536 42.6243 38.8432 41.1347C40.3328 39.6451 41.5144 37.8766 42.3206 35.9304C43.1268 33.9841 43.5417 31.8981 43.5417 29.7915C43.5417 27.6849 43.1268 25.5989 42.3206 23.6526C41.5144 21.7064 40.3328 19.9379 38.8432 18.4483C37.3536 16.9587 35.5852 15.7771 33.6389 14.9709C31.6926 14.1648 29.6066 13.7498 27.5 13.7498C23.2455 13.7498 19.1652 15.4399 16.1568 18.4483C13.1484 21.4567 11.4583 25.537 11.4583 29.7915C11.4583 34.046 13.1484 38.1263 16.1568 41.1347C19.1652 44.1431 23.2455 45.8332 27.5 45.8332ZM29.7917 27.4998H36.6667L25.2083 42.3957V32.0832H18.3333L29.7917 17.1759V27.4998ZM18.3333 2.2915H36.6667V6.87484H18.3333V2.2915Z" fill="white"/>
</g>
<defs>
<clipPath id="clip0_368_679">
<rect width="55" height="55" fill="white"/>
</clipPath>
</defs>
</svg>
