<svg xmlns="http://www.w3.org/2000/svg" xmlns:xlink="http://www.w3.org/1999/xlink" width="500" zoomAndPan="magnify" viewBox="0 0 375 374.999991" height="500" preserveAspectRatio="xMidYMid meet" version="1.2"><defs><clipPath id="154b07b821"><path d="M 58.941406 149.050781 L 73.757812 149.050781 L 73.757812 292.839844 L 58.941406 292.839844 Z M 58.941406 149.050781 "/></clipPath><clipPath id="bc129a77ad"><path d="M 58.933594 279.613281 L 103.3125 279.613281 L 103.3125 292.839844 L 58.933594 292.839844 Z M 58.933594 279.613281 "/></clipPath><clipPath id="c187bb1f46"><path d="M 84.582031 291.769531 L 136.304688 291.769531 L 136.304688 304.996094 L 84.582031 304.996094 Z M 84.582031 291.769531 "/></clipPath><clipPath id="a31f8b1301"><path d="M 124.125 303.929688 L 155.410156 303.929688 L 155.410156 317.160156 L 124.125 317.160156 Z M 124.125 303.929688 "/></clipPath><clipPath id="af5b3fa762"><path d="M 143.425781 314.300781 L 165.78125 314.300781 L 165.78125 327.527344 L 143.425781 327.527344 Z M 143.425781 314.300781 "/></clipPath><clipPath id="a635d42947"><path d="M 159.953125 326.054688 L 214.453125 326.054688 L 214.453125 337.5 L 159.953125 337.5 Z M 159.953125 326.054688 "/></clipPath><clipPath id="588249d1a7"><path d="M 206.160156 314.300781 L 228.515625 314.300781 L 228.515625 327.527344 L 206.160156 327.527344 Z M 206.160156 314.300781 "/></clipPath><clipPath id="6df48b7b0b"><path d="M 217.339844 303.929688 L 248.625 303.929688 L 248.625 317.160156 L 217.339844 317.160156 Z M 217.339844 303.929688 "/></clipPath><clipPath id="3ab7465ece"><path d="M 237.25 291.769531 L 288.972656 291.769531 L 288.972656 304.996094 L 237.25 304.996094 Z M 237.25 291.769531 "/></clipPath><clipPath id="af44ccdf7a"><path d="M 271.667969 279.613281 L 316.046875 279.613281 L 316.046875 292.839844 L 271.667969 292.839844 Z M 271.667969 279.613281 "/></clipPath><clipPath id="91f0183eac"><path d="M 301.242188 149.050781 L 316.058594 149.050781 L 316.058594 292.839844 L 301.242188 292.839844 Z M 301.242188 149.050781 "/></clipPath><clipPath id="247ec7dd86"><path d="M 81.582031 156.558594 L 125.960938 156.558594 L 125.960938 269.878906 L 81.582031 269.878906 Z M 81.582031 156.558594 "/></clipPath><clipPath id="e046ae1940"><path d="M 111.113281 266.832031 L 155.492188 266.832031 L 155.492188 280.058594 L 111.113281 280.058594 Z M 111.113281 266.832031 "/></clipPath><clipPath id="56d4f7dac9"><path d="M 144.648438 170.113281 L 229.074219 170.113281 L 229.074219 292.398438 L 144.648438 292.398438 Z M 144.648438 170.113281 "/></clipPath><clipPath id="f935ae949d"><path d="M 163.5 289.019531 L 208.382812 289.019531 L 208.382812 302.246094 L 163.5 302.246094 Z M 163.5 289.019531 "/></clipPath><clipPath id="b9ad56c46f"><path d="M 174.183594 299.535156 L 197.875 299.535156 L 197.875 312.765625 L 174.183594 312.765625 Z M 174.183594 299.535156 "/></clipPath><clipPath id="27ca1be2a2"><path d="M 218.730469 266.832031 L 263.113281 266.832031 L 263.113281 280.058594 L 218.730469 280.058594 Z M 218.730469 266.832031 "/></clipPath><clipPath id="5f9c07891e"><path d="M 248.621094 156.558594 L 293.003906 156.558594 L 293.003906 269.878906 L 248.621094 269.878906 Z M 248.621094 156.558594 "/></clipPath><clipPath id="487bdc6e68"><path d="M 92.402344 127.738281 L 145.199219 127.738281 L 145.199219 188.929688 L 92.402344 188.929688 Z M 92.402344 127.738281 "/></clipPath><clipPath id="1afc176729"><path d="M 116.410156 148.554688 L 169.542969 148.554688 L 169.542969 279.179688 L 116.410156 279.179688 Z M 116.410156 148.554688 "/></clipPath><clipPath id="aee4c30c80"><path d="M 169.550781 170.117188 L 197.878906 170.117188 L 197.878906 283.339844 L 169.550781 283.339844 Z M 169.550781 170.117188 "/></clipPath><clipPath id="ff36feea2e"><path d="M 197.871094 148.554688 L 250.671875 148.554688 L 250.671875 279.179688 L 197.871094 279.179688 Z M 197.871094 148.554688 "/></clipPath><clipPath id="4daaaaf866"><path d="M 235.882812 127.734375 L 284.175781 127.734375 L 284.175781 188.207031 L 235.882812 188.207031 Z M 235.882812 127.734375 "/></clipPath><clipPath id="5e1bb8134e"><path d="M 122.867188 208.023438 L 143.6875 208.023438 L 143.6875 229.761719 L 122.867188 229.761719 Z M 122.867188 208.023438 "/></clipPath><clipPath id="ed27ad5587"><path d="M 133.714844 221.039062 L 154.53125 221.039062 L 154.53125 241.273438 L 133.714844 241.273438 Z M 133.714844 221.039062 "/></clipPath><clipPath id="9951df07ae"><path d="M 145.203125 231.15625 L 165.878906 231.15625 L 165.878906 252.453125 L 145.203125 252.453125 Z M 145.203125 231.15625 "/></clipPath><clipPath id="b6b02b06c4"><path d="M 156.214844 242.113281 L 186.730469 242.113281 L 186.730469 262.578125 L 156.214844 262.578125 Z M 156.214844 242.113281 "/></clipPath><clipPath id="9cfa816f00"><path d="M 166.28125 262.15625 L 177.71875 262.15625 L 177.71875 272.640625 L 166.28125 272.640625 Z M 166.28125 262.15625 "/></clipPath><clipPath id="7c0c2be3ea"><path d="M 177.199219 231.460938 L 197.875 231.460938 L 197.875 252.757812 L 177.199219 252.757812 Z M 177.199219 231.460938 "/></clipPath><clipPath id="ba321da619"><path d="M 188.402344 221.039062 L 209.222656 221.039062 L 209.222656 241.273438 L 188.402344 241.273438 Z M 188.402344 221.039062 "/></clipPath><clipPath id="0c70c4889e"><path d="M 198.8125 208.777344 L 219.628906 208.777344 L 219.628906 230.679688 L 198.8125 230.679688 Z M 198.8125 208.777344 "/></clipPath><clipPath id="be29f035e7"><path d="M 209.15625 198.097656 L 229.972656 198.097656 L 229.972656 219.730469 L 209.15625 219.730469 Z M 209.15625 198.097656 "/></clipPath><clipPath id="cd1592bd71"><path d="M 220.839844 187.25 L 240.15625 187.25 L 240.15625 209.714844 L 220.839844 209.714844 Z M 220.839844 187.25 "/></clipPath><clipPath id="92432b7e3a"><path d="M 231.359375 176.972656 L 250.675781 176.972656 L 250.675781 199.4375 L 231.359375 199.4375 Z M 231.359375 176.972656 "/></clipPath><clipPath id="e64615304c"><path d="M 198.042969 108.910156 L 216.394531 108.910156 L 216.394531 127.265625 L 198.042969 127.265625 Z M 198.042969 108.910156 "/></clipPath><clipPath id="c2ff0fc936"><path d="M 159.832031 73.539062 L 178.1875 73.539062 L 178.1875 91.894531 L 159.832031 91.894531 Z M 159.832031 73.539062 "/></clipPath><clipPath id="a15ee9cb2b"><path d="M 198.042969 37.5 L 216.394531 37.5 L 216.394531 55.851562 L 198.042969 55.851562 Z M 198.042969 37.5 "/></clipPath></defs><g id="9d24e57f61"><rect x="0" width="375" y="0" height="374.999991" style="fill:#ffffff;fill-opacity:1;stroke:none;"/><rect x="0" width="375" y="0" height="374.999991" style="fill:#1b0d34;fill-opacity:1;stroke:none;"/><g clip-rule="nonzero" clip-path="url(#154b07b821)"><path style=" stroke:none;fill-rule:nonzero;fill:#1350a7;fill-opacity:1;" d="M 58.941406 149.050781 L 73.757812 149.050781 L 73.757812 292.867188 L 58.941406 292.867188 Z M 58.941406 149.050781 "/></g><g clip-rule="nonzero" clip-path="url(#bc129a77ad)"><path style=" stroke:none;fill-rule:nonzero;fill:#1350a7;fill-opacity:1;" d="M 103.3125 279.613281 L 103.3125 292.839844 L 58.925781 292.839844 L 58.925781 279.613281 Z M 103.3125 279.613281 "/></g><g clip-rule="nonzero" clip-path="url(#c187bb1f46)"><path style=" stroke:none;fill-rule:nonzero;fill:#1350a7;fill-opacity:1;" d="M 136.304688 291.769531 L 136.304688 304.996094 L 84.582031 304.996094 L 84.582031 291.769531 Z M 136.304688 291.769531 "/></g><g clip-rule="nonzero" clip-path="url(#a31f8b1301)"><path style=" stroke:none;fill-rule:nonzero;fill:#1350a7;fill-opacity:1;" d="M 155.410156 303.929688 L 155.410156 317.160156 L 124.148438 317.160156 L 124.148438 303.929688 Z M 155.410156 303.929688 "/></g><g clip-rule="nonzero" clip-path="url(#af5b3fa762)"><path style=" stroke:none;fill-rule:nonzero;fill:#1350a7;fill-opacity:1;" d="M 165.78125 314.300781 L 165.78125 327.527344 L 143.40625 327.527344 L 143.40625 314.300781 Z M 165.78125 314.300781 "/></g><g clip-rule="nonzero" clip-path="url(#a635d42947)"><path style=" stroke:none;fill-rule:nonzero;fill:#1350a7;fill-opacity:1;" d="M 214.453125 326.054688 L 214.453125 337.5 L 159.96875 337.5 L 159.96875 326.054688 Z M 214.453125 326.054688 "/></g><g clip-rule="nonzero" clip-path="url(#588249d1a7)"><path style=" stroke:none;fill-rule:nonzero;fill:#1350a7;fill-opacity:1;" d="M 228.515625 314.300781 L 228.515625 327.527344 L 206.140625 327.527344 L 206.140625 314.300781 Z M 228.515625 314.300781 "/></g><g clip-rule="nonzero" clip-path="url(#6df48b7b0b)"><path style=" stroke:none;fill-rule:nonzero;fill:#1350a7;fill-opacity:1;" d="M 248.625 303.929688 L 248.625 317.160156 L 217.363281 317.160156 L 217.363281 303.929688 Z M 248.625 303.929688 "/></g><g clip-rule="nonzero" clip-path="url(#3ab7465ece)"><path style=" stroke:none;fill-rule:nonzero;fill:#1350a7;fill-opacity:1;" d="M 288.972656 291.769531 L 288.972656 304.996094 L 237.246094 304.996094 L 237.246094 291.769531 Z M 288.972656 291.769531 "/></g><g clip-rule="nonzero" clip-path="url(#af44ccdf7a)"><path style=" stroke:none;fill-rule:nonzero;fill:#1350a7;fill-opacity:1;" d="M 316.046875 279.613281 L 316.046875 292.839844 L 271.660156 292.839844 L 271.660156 279.613281 Z M 316.046875 279.613281 "/></g><g clip-rule="nonzero" clip-path="url(#91f0183eac)"><path style=" stroke:none;fill-rule:nonzero;fill:#1350a7;fill-opacity:1;" d="M 301.242188 149.050781 L 316.058594 149.050781 L 316.058594 292.867188 L 301.242188 292.867188 Z M 301.242188 149.050781 "/></g><g clip-rule="nonzero" clip-path="url(#247ec7dd86)"><path style=" stroke:none;fill-rule:nonzero;fill:#faf3ff;fill-opacity:1;" d="M 125.960938 156.558594 L 125.960938 269.9375 L 81.582031 269.9375 L 81.582031 156.558594 Z M 125.960938 156.558594 "/></g><g clip-rule="nonzero" clip-path="url(#e046ae1940)"><path style=" stroke:none;fill-rule:nonzero;fill:#faf3ff;fill-opacity:1;" d="M 155.492188 266.832031 L 155.492188 280.058594 L 111.105469 280.058594 L 111.105469 266.832031 Z M 155.492188 266.832031 "/></g><g clip-rule="nonzero" clip-path="url(#56d4f7dac9)"><path style=" stroke:none;fill-rule:nonzero;fill:#faf3ff;fill-opacity:1;" d="M 229.074219 170.113281 L 229.074219 292.460938 L 144.648438 292.460938 L 144.648438 170.113281 Z M 229.074219 170.113281 "/></g><g clip-rule="nonzero" clip-path="url(#f935ae949d)"><path style=" stroke:none;fill-rule:nonzero;fill:#faf3ff;fill-opacity:1;" d="M 208.382812 289.019531 L 208.382812 302.246094 L 163.476562 302.246094 L 163.476562 289.019531 Z M 208.382812 289.019531 "/></g><g clip-rule="nonzero" clip-path="url(#b9ad56c46f)"><path style=" stroke:none;fill-rule:nonzero;fill:#faf3ff;fill-opacity:1;" d="M 197.875 299.535156 L 197.875 312.765625 L 174.207031 312.765625 L 174.207031 299.535156 Z M 197.875 299.535156 "/></g><g clip-rule="nonzero" clip-path="url(#27ca1be2a2)"><path style=" stroke:none;fill-rule:nonzero;fill:#faf3ff;fill-opacity:1;" d="M 263.113281 266.832031 L 263.113281 280.058594 L 218.726562 280.058594 L 218.726562 266.832031 Z M 263.113281 266.832031 "/></g><g clip-rule="nonzero" clip-path="url(#5f9c07891e)"><path style=" stroke:none;fill-rule:nonzero;fill:#faf3ff;fill-opacity:1;" d="M 293.003906 156.558594 L 293.003906 269.9375 L 248.621094 269.9375 L 248.621094 156.558594 Z M 293.003906 156.558594 "/></g><g clip-rule="nonzero" clip-path="url(#487bdc6e68)"><path style=" stroke:none;fill-rule:nonzero;fill:#faf3ff;fill-opacity:1;" d="M 145.199219 127.738281 L 145.199219 188.992188 L 92.402344 188.992188 L 92.402344 127.738281 Z M 145.199219 127.738281 "/></g><g clip-rule="nonzero" clip-path="url(#1afc176729)"><path style=" stroke:none;fill-rule:nonzero;fill:#faf3ff;fill-opacity:1;" d="M 169.542969 148.554688 L 169.542969 279.101562 L 116.410156 279.101562 L 116.410156 148.554688 Z M 169.542969 148.554688 "/></g><g clip-rule="nonzero" clip-path="url(#aee4c30c80)"><path style=" stroke:none;fill-rule:nonzero;fill:#faf3ff;fill-opacity:1;" d="M 197.878906 170.117188 L 197.878906 283.3125 L 169.550781 283.3125 L 169.550781 170.117188 Z M 197.878906 170.117188 "/></g><g clip-rule="nonzero" clip-path="url(#ff36feea2e)"><path style=" stroke:none;fill-rule:nonzero;fill:#faf3ff;fill-opacity:1;" d="M 250.671875 148.554688 L 250.671875 279.105469 L 197.871094 279.105469 L 197.871094 148.554688 Z M 250.671875 148.554688 "/></g><g clip-rule="nonzero" clip-path="url(#4daaaaf866)"><path style=" stroke:none;fill-rule:nonzero;fill:#faf3ff;fill-opacity:1;" d="M 284.175781 127.734375 L 284.175781 188.289062 L 235.882812 188.289062 L 235.882812 127.734375 Z M 284.175781 127.734375 "/></g><g clip-rule="nonzero" clip-path="url(#5e1bb8134e)"><path style=" stroke:none;fill-rule:nonzero;fill:#134b9a;fill-opacity:1;" d="M 143.6875 208.023438 L 143.6875 229.738281 L 122.867188 229.738281 L 122.867188 208.023438 Z M 143.6875 208.023438 "/></g><g clip-rule="nonzero" clip-path="url(#ed27ad5587)"><path style=" stroke:none;fill-rule:nonzero;fill:#134b9a;fill-opacity:1;" d="M 154.53125 221.039062 L 154.53125 241.273438 L 133.742188 241.273438 L 133.742188 221.039062 Z M 154.53125 221.039062 "/></g><g clip-rule="nonzero" clip-path="url(#9951df07ae)"><path style=" stroke:none;fill-rule:nonzero;fill:#134b9a;fill-opacity:1;" d="M 165.878906 231.15625 L 165.878906 252.476562 L 145.203125 252.476562 L 145.203125 231.15625 Z M 165.878906 231.15625 "/></g><g clip-rule="nonzero" clip-path="url(#b6b02b06c4)"><path style=" stroke:none;fill-rule:nonzero;fill:#134b9a;fill-opacity:1;" d="M 186.730469 242.113281 L 186.730469 262.578125 L 156.199219 262.578125 L 156.199219 242.113281 Z M 186.730469 242.113281 "/></g><g clip-rule="nonzero" clip-path="url(#9cfa816f00)"><path style=" stroke:none;fill-rule:nonzero;fill:#134b9a;fill-opacity:1;" d="M 177.71875 262.15625 L 177.71875 272.640625 L 166.292969 272.640625 L 166.292969 262.15625 Z M 177.71875 262.15625 "/></g><g clip-rule="nonzero" clip-path="url(#7c0c2be3ea)"><path style=" stroke:none;fill-rule:nonzero;fill:#134b9a;fill-opacity:1;" d="M 197.875 231.460938 L 197.875 252.78125 L 177.199219 252.78125 L 177.199219 231.460938 Z M 197.875 231.460938 "/></g><g clip-rule="nonzero" clip-path="url(#ba321da619)"><path style=" stroke:none;fill-rule:nonzero;fill:#134b9a;fill-opacity:1;" d="M 209.222656 221.039062 L 209.222656 241.273438 L 188.433594 241.273438 L 188.433594 221.039062 Z M 209.222656 221.039062 "/></g><g clip-rule="nonzero" clip-path="url(#0c70c4889e)"><path style=" stroke:none;fill-rule:nonzero;fill:#134b9a;fill-opacity:1;" d="M 219.628906 208.777344 L 219.628906 230.652344 L 198.8125 230.652344 L 198.8125 208.777344 Z M 219.628906 208.777344 "/></g><g clip-rule="nonzero" clip-path="url(#be29f035e7)"><path style=" stroke:none;fill-rule:nonzero;fill:#134b9a;fill-opacity:1;" d="M 229.972656 198.097656 L 229.972656 219.730469 L 209.15625 219.730469 L 209.15625 198.097656 Z M 229.972656 198.097656 "/></g><g clip-rule="nonzero" clip-path="url(#cd1592bd71)"><path style=" stroke:none;fill-rule:nonzero;fill:#134b9a;fill-opacity:1;" d="M 240.15625 187.25 L 240.15625 209.734375 L 220.839844 209.734375 L 220.839844 187.25 Z M 240.15625 187.25 "/></g><g clip-rule="nonzero" clip-path="url(#92432b7e3a)"><path style=" stroke:none;fill-rule:nonzero;fill:#134b9a;fill-opacity:1;" d="M 250.675781 176.972656 L 250.675781 199.457031 L 231.359375 199.457031 L 231.359375 176.972656 Z M 250.675781 176.972656 "/></g><g clip-rule="nonzero" clip-path="url(#e64615304c)"><path style=" stroke:none;fill-rule:nonzero;fill:#faf3ff;fill-opacity:1;" d="M 198.042969 108.910156 L 216.394531 108.910156 L 216.394531 127.265625 L 198.042969 127.265625 Z M 198.042969 108.910156 "/></g><g clip-rule="nonzero" clip-path="url(#c2ff0fc936)"><path style=" stroke:none;fill-rule:nonzero;fill:#faf3ff;fill-opacity:1;" d="M 159.832031 73.539062 L 178.1875 73.539062 L 178.1875 91.894531 L 159.832031 91.894531 Z M 159.832031 73.539062 "/></g><g clip-rule="nonzero" clip-path="url(#a15ee9cb2b)"><path style=" stroke:none;fill-rule:nonzero;fill:#faf3ff;fill-opacity:1;" d="M 198.042969 37.5 L 216.394531 37.5 L 216.394531 55.851562 L 198.042969 55.851562 Z M 198.042969 37.5 "/></g></g></svg>