<svg xmlns="http://www.w3.org/2000/svg" xmlns:xlink="http://www.w3.org/1999/xlink" width="500" zoomAndPan="magnify" viewBox="0 0 375 374.999991" height="500" preserveAspectRatio="xMidYMid meet" version="1.2"><defs><clipPath id="c5ff775e59"><path d="M 37.503906 37.492188 L 55.3125 37.492188 L 55.3125 319.683594 L 37.503906 319.683594 Z M 37.503906 37.492188 "/></clipPath><clipPath id="7815389a2d"><path d="M 55.3125 55.304688 L 73.121094 55.304688 L 73.121094 337.492188 L 55.3125 337.492188 Z M 55.3125 55.304688 "/></clipPath><clipPath id="d44cfd25d9"><path d="M 55.308594 319.691406 L 227.617188 319.691406 L 227.617188 337.5 L 55.308594 337.5 Z M 55.308594 319.691406 "/></clipPath><clipPath id="8b7ecdaaca"><path d="M 55.308594 301.882812 L 209.808594 301.882812 L 209.808594 319.691406 L 55.308594 319.691406 Z M 55.308594 301.882812 "/></clipPath><clipPath id="d5a7a70ead"><path d="M 319.683594 55.304688 L 337.492188 55.304688 L 337.492188 337.496094 L 319.683594 337.496094 Z M 319.683594 55.304688 "/></clipPath><clipPath id="8d36e65ab4"><path d="M 301.875 37.496094 L 319.683594 37.496094 L 319.683594 319.6875 L 301.875 319.6875 Z M 301.875 37.496094 "/></clipPath><clipPath id="d54845bfeb"><path d="M 147.375 37.492188 L 319.683594 37.492188 L 319.683594 55.300781 L 147.375 55.300781 Z M 147.375 37.492188 "/></clipPath><clipPath id="cbb1cc76e8"><path d="M 165.179688 55.300781 L 319.679688 55.300781 L 319.679688 73.109375 L 165.179688 73.109375 Z M 165.179688 55.300781 "/></clipPath><clipPath id="05710ae739"><path d="M 46.40625 55.300781 L 64.214844 55.300781 L 64.214844 319.683594 L 46.40625 319.683594 Z M 46.40625 55.300781 "/></clipPath><clipPath id="b838cb267b"><path d="M 55.308594 310.785156 L 209.808594 310.785156 L 209.808594 328.59375 L 55.308594 328.59375 Z M 55.308594 310.785156 "/></clipPath><clipPath id="cbb7ebe82c"><path d="M 310.777344 55.308594 L 328.585938 55.308594 L 328.585938 319.691406 L 310.777344 319.691406 Z M 310.777344 55.308594 "/></clipPath><clipPath id="3eca6c0bd7"><path d="M 165.179688 46.394531 L 319.679688 46.394531 L 319.679688 64.207031 L 165.179688 64.207031 Z M 165.179688 46.394531 "/></clipPath><clipPath id="0c141b2fbb"><path d="M 105.203125 162.886719 L 114.6875 162.886719 L 114.6875 254.933594 L 105.203125 254.933594 Z M 105.203125 162.886719 "/></clipPath><clipPath id="33533ac0fb"><path d="M 105.195312 246.46875 L 133.605469 246.46875 L 133.605469 254.9375 L 105.195312 254.9375 Z M 105.195312 246.46875 "/></clipPath><clipPath id="d26b9d7330"><path d="M 121.617188 254.25 L 154.726562 254.25 L 154.726562 262.71875 L 121.617188 262.71875 Z M 121.617188 254.25 "/></clipPath><clipPath id="0888f21999"><path d="M 146.929688 262.035156 L 166.957031 262.035156 L 166.957031 270.503906 L 146.929688 270.503906 Z M 146.929688 262.035156 "/></clipPath><clipPath id="e48fe84893"><path d="M 159.285156 268.675781 L 173.597656 268.675781 L 173.597656 277.140625 L 159.285156 277.140625 Z M 159.285156 268.675781 "/></clipPath><clipPath id="17556bb6da"><path d="M 169.867188 276.199219 L 204.753906 276.199219 L 204.753906 283.523438 L 169.867188 283.523438 Z M 169.867188 276.199219 "/></clipPath><clipPath id="f61ad236f0"><path d="M 199.445312 268.675781 L 213.757812 268.675781 L 213.757812 277.140625 L 199.445312 277.140625 Z M 199.445312 268.675781 "/></clipPath><clipPath id="83da74026c"><path d="M 206.601562 262.035156 L 226.628906 262.035156 L 226.628906 270.503906 L 206.601562 270.503906 Z M 206.601562 262.035156 "/></clipPath><clipPath id="e9f20740ad"><path d="M 219.347656 254.25 L 252.460938 254.25 L 252.460938 262.71875 L 219.347656 262.71875 Z M 219.347656 254.25 "/></clipPath><clipPath id="5ea98e356f"><path d="M 241.382812 246.46875 L 269.792969 246.46875 L 269.792969 254.9375 L 241.382812 254.9375 Z M 241.382812 246.46875 "/></clipPath><clipPath id="e24c16be64"><path d="M 260.3125 162.886719 L 269.796875 162.886719 L 269.796875 254.933594 L 260.3125 254.933594 Z M 260.3125 162.886719 "/></clipPath><clipPath id="17652a77dc"><path d="M 119.695312 167.691406 L 148.105469 167.691406 L 148.105469 240.238281 L 119.695312 240.238281 Z M 119.695312 167.691406 "/></clipPath><clipPath id="8b2f570ad7"><path d="M 138.597656 238.285156 L 167.011719 238.285156 L 167.011719 246.753906 L 138.597656 246.753906 Z M 138.597656 238.285156 "/></clipPath><clipPath id="0aeb5bb86a"><path d="M 160.070312 176.371094 L 214.113281 176.371094 L 214.113281 254.652344 L 160.070312 254.652344 Z M 160.070312 176.371094 "/></clipPath><clipPath id="aba3ac3b85"><path d="M 172.136719 252.488281 L 200.867188 252.488281 L 200.867188 260.957031 L 172.136719 260.957031 Z M 172.136719 252.488281 "/></clipPath><clipPath id="555d8c3e2c"><path d="M 178.976562 259.222656 L 194.140625 259.222656 L 194.140625 267.691406 L 178.976562 267.691406 Z M 178.976562 259.222656 "/></clipPath><clipPath id="a6d49ca583"><path d="M 207.492188 238.285156 L 235.90625 238.285156 L 235.90625 246.753906 L 207.492188 246.753906 Z M 207.492188 238.285156 "/></clipPath><clipPath id="8b09b81cff"><path d="M 226.628906 167.691406 L 255.039062 167.691406 L 255.039062 240.238281 L 226.628906 240.238281 Z M 226.628906 167.691406 "/></clipPath><clipPath id="4429dee751"><path d="M 126.621094 149.242188 L 160.421875 149.242188 L 160.421875 188.417969 L 126.621094 188.417969 Z M 126.621094 149.242188 "/></clipPath><clipPath id="9438dad93b"><path d="M 141.992188 162.566406 L 176.003906 162.566406 L 176.003906 246.191406 L 141.992188 246.191406 Z M 141.992188 162.566406 "/></clipPath><clipPath id="d732085214"><path d="M 176.007812 176.371094 L 194.144531 176.371094 L 194.144531 248.855469 L 176.007812 248.855469 Z M 176.007812 176.371094 "/></clipPath><clipPath id="24ecf39ab6"><path d="M 194.140625 162.570312 L 227.941406 162.570312 L 227.941406 246.191406 L 194.140625 246.191406 Z M 194.140625 162.570312 "/></clipPath><clipPath id="221e6d3274"><path d="M 218.472656 149.238281 L 249.386719 149.238281 L 249.386719 187.953125 L 218.472656 187.953125 Z M 218.472656 149.238281 "/></clipPath><clipPath id="b5fc6269c5"><path d="M 146.125 200.640625 L 159.453125 200.640625 L 159.453125 214.554688 L 146.125 214.554688 Z M 146.125 200.640625 "/></clipPath><clipPath id="14c9f1fba6"><path d="M 153.066406 208.972656 L 166.394531 208.972656 L 166.394531 221.925781 L 153.066406 221.925781 Z M 153.066406 208.972656 "/></clipPath><clipPath id="ef6d5cd480"><path d="M 160.421875 215.445312 L 173.65625 215.445312 L 173.65625 229.082031 L 160.421875 229.082031 Z M 160.421875 215.445312 "/></clipPath><clipPath id="f3716e7a00"><path d="M 167.472656 222.460938 L 187.007812 222.460938 L 187.007812 235.5625 L 167.472656 235.5625 Z M 167.472656 222.460938 "/></clipPath><clipPath id="e13ae8a9a7"><path d="M 173.914062 235.292969 L 181.238281 235.292969 L 181.238281 242.003906 L 173.914062 242.003906 Z M 173.914062 235.292969 "/></clipPath><clipPath id="36fc3da77c"><path d="M 180.90625 215.640625 L 194.140625 215.640625 L 194.140625 229.273438 L 180.90625 229.273438 Z M 180.90625 215.640625 "/></clipPath><clipPath id="d36b8539e5"><path d="M 188.078125 208.972656 L 201.40625 208.972656 L 201.40625 221.925781 L 188.078125 221.925781 Z M 188.078125 208.972656 "/></clipPath><clipPath id="84f2ae2ebc"><path d="M 194.742188 201.121094 L 208.066406 201.121094 L 208.066406 215.144531 L 194.742188 215.144531 Z M 194.742188 201.121094 "/></clipPath><clipPath id="810d83db12"><path d="M 201.363281 194.285156 L 214.691406 194.285156 L 214.691406 208.132812 L 201.363281 208.132812 Z M 201.363281 194.285156 "/></clipPath><clipPath id="93e0579f17"><path d="M 208.84375 187.339844 L 221.207031 187.339844 L 221.207031 201.722656 L 208.84375 201.722656 Z M 208.84375 187.339844 "/></clipPath><clipPath id="1d088177dc"><path d="M 215.578125 180.761719 L 227.945312 180.761719 L 227.945312 195.140625 L 215.578125 195.140625 Z M 215.578125 180.761719 "/></clipPath><clipPath id="dbe367cb1f"><path d="M 194.25 137.191406 L 205.996094 137.191406 L 205.996094 148.9375 L 194.25 148.9375 Z M 194.25 137.191406 "/></clipPath><clipPath id="3b7e4b7fe5"><path d="M 169.789062 114.546875 L 181.539062 114.546875 L 181.539062 126.296875 L 169.789062 126.296875 Z M 169.789062 114.546875 "/></clipPath><clipPath id="5e22de6e3b"><path d="M 194.25 91.472656 L 205.996094 91.472656 L 205.996094 103.222656 L 194.25 103.222656 Z M 194.25 91.472656 "/></clipPath></defs><g id="36dadb0a14"><rect x="0" width="375" y="0" height="374.999991" style="fill:#ffffff;fill-opacity:1;stroke:none;"/><rect x="0" width="375" y="0" height="374.999991" style="fill:#1b0d34;fill-opacity:1;stroke:none;"/><g clip-rule="nonzero" clip-path="url(#c5ff775e59)"><path style=" stroke:none;fill-rule:nonzero;fill:#1553ad;fill-opacity:1;" d="M 37.503906 319.683594 L 37.503906 37.523438 L 55.3125 37.523438 L 55.3125 319.683594 Z M 37.503906 319.683594 "/></g><g clip-rule="nonzero" clip-path="url(#7815389a2d)"><path style=" stroke:none;fill-rule:nonzero;fill:#1553ad;fill-opacity:1;" d="M 55.3125 337.492188 L 55.3125 55.332031 L 73.121094 55.332031 L 73.121094 337.492188 Z M 55.3125 337.492188 "/></g><g clip-rule="nonzero" clip-path="url(#d44cfd25d9)"><path style=" stroke:none;fill-rule:nonzero;fill:#1553ad;fill-opacity:1;" d="M 55.308594 319.691406 L 227.625 319.691406 L 227.625 337.5 L 55.308594 337.5 Z M 55.308594 319.691406 "/></g><g clip-rule="nonzero" clip-path="url(#8b7ecdaaca)"><path style=" stroke:none;fill-rule:nonzero;fill:#1553ad;fill-opacity:1;" d="M 55.308594 301.882812 L 209.816406 301.882812 L 209.816406 319.691406 L 55.308594 319.691406 Z M 55.308594 301.882812 "/></g><g clip-rule="nonzero" clip-path="url(#d5a7a70ead)"><path style=" stroke:none;fill-rule:nonzero;fill:#faf3ff;fill-opacity:1;" d="M 337.492188 55.304688 L 337.492188 337.46875 L 319.683594 337.46875 L 319.683594 55.304688 Z M 337.492188 55.304688 "/></g><g clip-rule="nonzero" clip-path="url(#8d36e65ab4)"><path style=" stroke:none;fill-rule:nonzero;fill:#faf3ff;fill-opacity:1;" d="M 319.683594 37.496094 L 319.683594 319.65625 L 301.875 319.65625 L 301.875 37.496094 Z M 319.683594 37.496094 "/></g><g clip-rule="nonzero" clip-path="url(#d54845bfeb)"><path style=" stroke:none;fill-rule:nonzero;fill:#faf3ff;fill-opacity:1;" d="M 319.683594 55.300781 L 147.367188 55.300781 L 147.367188 37.492188 L 319.683594 37.492188 Z M 319.683594 55.300781 "/></g><g clip-rule="nonzero" clip-path="url(#cbb1cc76e8)"><path style=" stroke:none;fill-rule:nonzero;fill:#faf3ff;fill-opacity:1;" d="M 319.679688 73.109375 L 165.175781 73.109375 L 165.175781 55.300781 L 319.679688 55.300781 Z M 319.679688 73.109375 "/></g><g clip-rule="nonzero" clip-path="url(#05710ae739)"><path style=" stroke:none;fill-rule:nonzero;fill:#1553ad;fill-opacity:1;" d="M 46.40625 319.683594 L 46.40625 55.332031 L 64.214844 55.332031 L 64.214844 319.683594 Z M 46.40625 319.683594 "/></g><g clip-rule="nonzero" clip-path="url(#b838cb267b)"><path style=" stroke:none;fill-rule:nonzero;fill:#1553ad;fill-opacity:1;" d="M 55.308594 310.785156 L 209.816406 310.785156 L 209.816406 328.59375 L 55.308594 328.59375 Z M 55.308594 310.785156 "/></g><g clip-rule="nonzero" clip-path="url(#cbb7ebe82c)"><path style=" stroke:none;fill-rule:nonzero;fill:#faf3ff;fill-opacity:1;" d="M 328.585938 55.308594 L 328.585938 319.660156 L 310.777344 319.660156 L 310.777344 55.308594 Z M 328.585938 55.308594 "/></g><g clip-rule="nonzero" clip-path="url(#3eca6c0bd7)"><path style=" stroke:none;fill-rule:nonzero;fill:#faf3ff;fill-opacity:1;" d="M 319.679688 64.207031 L 165.175781 64.207031 L 165.175781 46.394531 L 319.679688 46.394531 Z M 319.679688 64.207031 "/></g><g clip-rule="nonzero" clip-path="url(#0c141b2fbb)"><path style=" stroke:none;fill-rule:nonzero;fill:#1350a7;fill-opacity:1;" d="M 105.203125 162.886719 L 114.6875 162.886719 L 114.6875 254.953125 L 105.203125 254.953125 Z M 105.203125 162.886719 "/></g><g clip-rule="nonzero" clip-path="url(#33533ac0fb)"><path style=" stroke:none;fill-rule:nonzero;fill:#1350a7;fill-opacity:1;" d="M 133.605469 246.46875 L 133.605469 254.9375 L 105.191406 254.9375 L 105.191406 246.46875 Z M 133.605469 246.46875 "/></g><g clip-rule="nonzero" clip-path="url(#d26b9d7330)"><path style=" stroke:none;fill-rule:nonzero;fill:#1350a7;fill-opacity:1;" d="M 154.726562 254.25 L 154.726562 262.71875 L 121.613281 262.71875 L 121.613281 254.25 Z M 154.726562 254.25 "/></g><g clip-rule="nonzero" clip-path="url(#0888f21999)"><path style=" stroke:none;fill-rule:nonzero;fill:#1350a7;fill-opacity:1;" d="M 166.957031 262.035156 L 166.957031 270.503906 L 146.945312 270.503906 L 146.945312 262.035156 Z M 166.957031 262.035156 "/></g><g clip-rule="nonzero" clip-path="url(#e48fe84893)"><path style=" stroke:none;fill-rule:nonzero;fill:#1350a7;fill-opacity:1;" d="M 173.597656 268.675781 L 173.597656 277.140625 L 159.273438 277.140625 L 159.273438 268.675781 Z M 173.597656 268.675781 "/></g><g clip-rule="nonzero" clip-path="url(#17556bb6da)"><path style=" stroke:none;fill-rule:nonzero;fill:#1350a7;fill-opacity:1;" d="M 204.753906 276.199219 L 204.753906 283.523438 L 169.875 283.523438 L 169.875 276.199219 Z M 204.753906 276.199219 "/></g><g clip-rule="nonzero" clip-path="url(#f61ad236f0)"><path style=" stroke:none;fill-rule:nonzero;fill:#1350a7;fill-opacity:1;" d="M 213.757812 268.675781 L 213.757812 277.140625 L 199.433594 277.140625 L 199.433594 268.675781 Z M 213.757812 268.675781 "/></g><g clip-rule="nonzero" clip-path="url(#83da74026c)"><path style=" stroke:none;fill-rule:nonzero;fill:#1350a7;fill-opacity:1;" d="M 226.628906 262.035156 L 226.628906 270.503906 L 206.617188 270.503906 L 206.617188 262.035156 Z M 226.628906 262.035156 "/></g><g clip-rule="nonzero" clip-path="url(#e9f20740ad)"><path style=" stroke:none;fill-rule:nonzero;fill:#1350a7;fill-opacity:1;" d="M 252.460938 254.25 L 252.460938 262.71875 L 219.347656 262.71875 L 219.347656 254.25 Z M 252.460938 254.25 "/></g><g clip-rule="nonzero" clip-path="url(#5ea98e356f)"><path style=" stroke:none;fill-rule:nonzero;fill:#1350a7;fill-opacity:1;" d="M 269.792969 246.46875 L 269.792969 254.9375 L 241.375 254.9375 L 241.375 246.46875 Z M 269.792969 246.46875 "/></g><g clip-rule="nonzero" clip-path="url(#e24c16be64)"><path style=" stroke:none;fill-rule:nonzero;fill:#1350a7;fill-opacity:1;" d="M 260.3125 162.886719 L 269.796875 162.886719 L 269.796875 254.953125 L 260.3125 254.953125 Z M 260.3125 162.886719 "/></g><g clip-rule="nonzero" clip-path="url(#17652a77dc)"><path style=" stroke:none;fill-rule:nonzero;fill:#faf3ff;fill-opacity:1;" d="M 148.105469 167.691406 L 148.105469 240.273438 L 119.695312 240.273438 L 119.695312 167.691406 Z M 148.105469 167.691406 "/></g><g clip-rule="nonzero" clip-path="url(#8b2f570ad7)"><path style=" stroke:none;fill-rule:nonzero;fill:#faf3ff;fill-opacity:1;" d="M 167.011719 238.285156 L 167.011719 246.753906 L 138.59375 246.753906 L 138.59375 238.285156 Z M 167.011719 238.285156 "/></g><g clip-rule="nonzero" clip-path="url(#0aeb5bb86a)"><path style=" stroke:none;fill-rule:nonzero;fill:#faf3ff;fill-opacity:1;" d="M 214.113281 176.371094 L 214.113281 254.695312 L 160.070312 254.695312 L 160.070312 176.371094 Z M 214.113281 176.371094 "/></g><g clip-rule="nonzero" clip-path="url(#aba3ac3b85)"><path style=" stroke:none;fill-rule:nonzero;fill:#faf3ff;fill-opacity:1;" d="M 200.867188 252.488281 L 200.867188 260.957031 L 172.121094 260.957031 L 172.121094 252.488281 Z M 200.867188 252.488281 "/></g><g clip-rule="nonzero" clip-path="url(#555d8c3e2c)"><path style=" stroke:none;fill-rule:nonzero;fill:#faf3ff;fill-opacity:1;" d="M 194.140625 259.222656 L 194.140625 267.691406 L 178.992188 267.691406 L 178.992188 259.222656 Z M 194.140625 259.222656 "/></g><g clip-rule="nonzero" clip-path="url(#a6d49ca583)"><path style=" stroke:none;fill-rule:nonzero;fill:#faf3ff;fill-opacity:1;" d="M 235.90625 238.285156 L 235.90625 246.753906 L 207.488281 246.753906 L 207.488281 238.285156 Z M 235.90625 238.285156 "/></g><g clip-rule="nonzero" clip-path="url(#8b09b81cff)"><path style=" stroke:none;fill-rule:nonzero;fill:#faf3ff;fill-opacity:1;" d="M 255.039062 167.691406 L 255.039062 240.273438 L 226.628906 240.273438 L 226.628906 167.691406 Z M 255.039062 167.691406 "/></g><g clip-rule="nonzero" clip-path="url(#4429dee751)"><path style=" stroke:none;fill-rule:nonzero;fill:#faf3ff;fill-opacity:1;" d="M 160.421875 149.242188 L 160.421875 188.453125 L 126.621094 188.453125 L 126.621094 149.242188 Z M 160.421875 149.242188 "/></g><g clip-rule="nonzero" clip-path="url(#9438dad93b)"><path style=" stroke:none;fill-rule:nonzero;fill:#faf3ff;fill-opacity:1;" d="M 176.003906 162.566406 L 176.003906 246.140625 L 141.992188 246.140625 L 141.992188 162.566406 Z M 176.003906 162.566406 "/></g><g clip-rule="nonzero" clip-path="url(#d732085214)"><path style=" stroke:none;fill-rule:nonzero;fill:#faf3ff;fill-opacity:1;" d="M 194.144531 176.371094 L 194.144531 248.835938 L 176.007812 248.835938 L 176.007812 176.371094 Z M 194.144531 176.371094 "/></g><g clip-rule="nonzero" clip-path="url(#24ecf39ab6)"><path style=" stroke:none;fill-rule:nonzero;fill:#faf3ff;fill-opacity:1;" d="M 227.941406 162.570312 L 227.941406 246.144531 L 194.140625 246.144531 L 194.140625 162.570312 Z M 227.941406 162.570312 "/></g><g clip-rule="nonzero" clip-path="url(#221e6d3274)"><path style=" stroke:none;fill-rule:nonzero;fill:#faf3ff;fill-opacity:1;" d="M 249.386719 149.238281 L 249.386719 188.007812 L 218.472656 188.007812 L 218.472656 149.238281 Z M 249.386719 149.238281 "/></g><g clip-rule="nonzero" clip-path="url(#b5fc6269c5)"><path style=" stroke:none;fill-rule:nonzero;fill:#134b9a;fill-opacity:1;" d="M 159.453125 200.640625 L 159.453125 214.539062 L 146.125 214.539062 L 146.125 200.640625 Z M 159.453125 200.640625 "/></g><g clip-rule="nonzero" clip-path="url(#14c9f1fba6)"><path style=" stroke:none;fill-rule:nonzero;fill:#134b9a;fill-opacity:1;" d="M 166.394531 208.972656 L 166.394531 221.925781 L 153.085938 221.925781 L 153.085938 208.972656 Z M 166.394531 208.972656 "/></g><g clip-rule="nonzero" clip-path="url(#ef6d5cd480)"><path style=" stroke:none;fill-rule:nonzero;fill:#134b9a;fill-opacity:1;" d="M 173.65625 215.445312 L 173.65625 229.09375 L 160.421875 229.09375 L 160.421875 215.445312 Z M 173.65625 215.445312 "/></g><g clip-rule="nonzero" clip-path="url(#f3716e7a00)"><path style=" stroke:none;fill-rule:nonzero;fill:#134b9a;fill-opacity:1;" d="M 187.007812 222.460938 L 187.007812 235.5625 L 167.460938 235.5625 L 167.460938 222.460938 Z M 187.007812 222.460938 "/></g><g clip-rule="nonzero" clip-path="url(#e13ae8a9a7)"><path style=" stroke:none;fill-rule:nonzero;fill:#134b9a;fill-opacity:1;" d="M 181.238281 235.292969 L 181.238281 242.003906 L 173.921875 242.003906 L 173.921875 235.292969 Z M 181.238281 235.292969 "/></g><g clip-rule="nonzero" clip-path="url(#36fc3da77c)"><path style=" stroke:none;fill-rule:nonzero;fill:#134b9a;fill-opacity:1;" d="M 194.140625 215.640625 L 194.140625 229.289062 L 180.90625 229.289062 L 180.90625 215.640625 Z M 194.140625 215.640625 "/></g><g clip-rule="nonzero" clip-path="url(#d36b8539e5)"><path style=" stroke:none;fill-rule:nonzero;fill:#134b9a;fill-opacity:1;" d="M 201.40625 208.972656 L 201.40625 221.925781 L 188.097656 221.925781 L 188.097656 208.972656 Z M 201.40625 208.972656 "/></g><g clip-rule="nonzero" clip-path="url(#84f2ae2ebc)"><path style=" stroke:none;fill-rule:nonzero;fill:#134b9a;fill-opacity:1;" d="M 208.066406 201.121094 L 208.066406 215.125 L 194.742188 215.125 L 194.742188 201.121094 Z M 208.066406 201.121094 "/></g><g clip-rule="nonzero" clip-path="url(#810d83db12)"><path style=" stroke:none;fill-rule:nonzero;fill:#134b9a;fill-opacity:1;" d="M 214.691406 194.285156 L 214.691406 208.132812 L 201.363281 208.132812 L 201.363281 194.285156 Z M 214.691406 194.285156 "/></g><g clip-rule="nonzero" clip-path="url(#93e0579f17)"><path style=" stroke:none;fill-rule:nonzero;fill:#134b9a;fill-opacity:1;" d="M 221.207031 187.339844 L 221.207031 201.734375 L 208.84375 201.734375 L 208.84375 187.339844 Z M 221.207031 187.339844 "/></g><g clip-rule="nonzero" clip-path="url(#1d088177dc)"><path style=" stroke:none;fill-rule:nonzero;fill:#134b9a;fill-opacity:1;" d="M 227.945312 180.761719 L 227.945312 195.15625 L 215.578125 195.15625 L 215.578125 180.761719 Z M 227.945312 180.761719 "/></g><g clip-rule="nonzero" clip-path="url(#dbe367cb1f)"><path style=" stroke:none;fill-rule:nonzero;fill:#faf3ff;fill-opacity:1;" d="M 194.25 137.191406 L 205.996094 137.191406 L 205.996094 148.9375 L 194.25 148.9375 Z M 194.25 137.191406 "/></g><g clip-rule="nonzero" clip-path="url(#3b7e4b7fe5)"><path style=" stroke:none;fill-rule:nonzero;fill:#faf3ff;fill-opacity:1;" d="M 169.789062 114.546875 L 181.539062 114.546875 L 181.539062 126.296875 L 169.789062 126.296875 Z M 169.789062 114.546875 "/></g><g clip-rule="nonzero" clip-path="url(#5e22de6e3b)"><path style=" stroke:none;fill-rule:nonzero;fill:#faf3ff;fill-opacity:1;" d="M 194.25 91.472656 L 205.996094 91.472656 L 205.996094 103.222656 L 194.25 103.222656 Z M 194.25 91.472656 "/></g></g></svg>