<svg xmlns="http://www.w3.org/2000/svg" xmlns:xlink="http://www.w3.org/1999/xlink" width="500" zoomAndPan="magnify" viewBox="0 0 375 374.999991" height="500" preserveAspectRatio="xMidYMid meet" version="1.2"><defs><clipPath id="8c0f13ae7c"><path d="M 37.503906 37.496094 L 55.3125 37.496094 L 55.3125 319.683594 L 37.503906 319.683594 Z M 37.503906 37.496094 "/></clipPath><clipPath id="4b0c32ae2a"><path d="M 55.3125 55.304688 L 73.121094 55.304688 L 73.121094 337.492188 L 55.3125 337.492188 Z M 55.3125 55.304688 "/></clipPath><clipPath id="afe89cf04f"><path d="M 55.308594 319.691406 L 227.617188 319.691406 L 227.617188 337.5 L 55.308594 337.5 Z M 55.308594 319.691406 "/></clipPath><clipPath id="c877f3dbc9"><path d="M 55.308594 301.882812 L 209.808594 301.882812 L 209.808594 319.691406 L 55.308594 319.691406 Z M 55.308594 301.882812 "/></clipPath><clipPath id="b4af40beb5"><path d="M 46.40625 55.300781 L 64.214844 55.300781 L 64.214844 319.683594 L 46.40625 319.683594 Z M 46.40625 55.300781 "/></clipPath><clipPath id="6a320a3d5c"><path d="M 55.308594 310.785156 L 209.808594 310.785156 L 209.808594 328.59375 L 55.308594 328.59375 Z M 55.308594 310.785156 "/></clipPath></defs><g id="c2d3f767d3"><rect x="0" width="375" y="0" height="374.999991" style="fill:#ffffff;fill-opacity:1;stroke:none;"/><rect x="0" width="375" y="0" height="374.999991" style="fill:#1b0d34;fill-opacity:1;stroke:none;"/><g clip-rule="nonzero" clip-path="url(#8c0f13ae7c)"><path style=" stroke:none;fill-rule:nonzero;fill:#1553ad;fill-opacity:1;" d="M 37.503906 319.683594 L 37.503906 37.523438 L 55.3125 37.523438 L 55.3125 319.683594 Z M 37.503906 319.683594 "/></g><g clip-rule="nonzero" clip-path="url(#4b0c32ae2a)"><path style=" stroke:none;fill-rule:nonzero;fill:#1553ad;fill-opacity:1;" d="M 55.3125 337.492188 L 55.3125 55.332031 L 73.121094 55.332031 L 73.121094 337.492188 Z M 55.3125 337.492188 "/></g><g clip-rule="nonzero" clip-path="url(#afe89cf04f)"><path style=" stroke:none;fill-rule:nonzero;fill:#1553ad;fill-opacity:1;" d="M 55.308594 319.691406 L 227.625 319.691406 L 227.625 337.5 L 55.308594 337.5 Z M 55.308594 319.691406 "/></g><g clip-rule="nonzero" clip-path="url(#c877f3dbc9)"><path style=" stroke:none;fill-rule:nonzero;fill:#1553ad;fill-opacity:1;" d="M 55.308594 301.882812 L 209.816406 301.882812 L 209.816406 319.691406 L 55.308594 319.691406 Z M 55.308594 301.882812 "/></g><g clip-rule="nonzero" clip-path="url(#b4af40beb5)"><path style=" stroke:none;fill-rule:nonzero;fill:#1553ad;fill-opacity:1;" d="M 46.40625 319.683594 L 46.40625 55.332031 L 64.214844 55.332031 L 64.214844 319.683594 Z M 46.40625 319.683594 "/></g><g clip-rule="nonzero" clip-path="url(#6a320a3d5c)"><path style=" stroke:none;fill-rule:nonzero;fill:#1553ad;fill-opacity:1;" d="M 55.308594 310.785156 L 209.816406 310.785156 L 209.816406 328.59375 L 55.308594 328.59375 Z M 55.308594 310.785156 "/></g></g></svg>