<svg xmlns="http://www.w3.org/2000/svg" xmlns:xlink="http://www.w3.org/1999/xlink" width="500" zoomAndPan="magnify" viewBox="0 0 375 374.999991" height="500" preserveAspectRatio="xMidYMid meet" version="1.2"><defs><clipPath id="03af003819"><path d="M 26.175781 29.554688 L 29.996094 29.554688 L 29.996094 90.046875 L 26.175781 90.046875 Z M 26.175781 29.554688 "/></clipPath><clipPath id="234cab5fd9"><path d="M 29.996094 33.371094 L 33.8125 33.371094 L 33.8125 93.863281 L 29.996094 93.863281 Z M 29.996094 33.371094 "/></clipPath><clipPath id="f27f64c605"><path d="M 29.996094 90.046875 L 66.929688 90.046875 L 66.929688 93.863281 L 29.996094 93.863281 Z M 29.996094 90.046875 "/></clipPath><clipPath id="d84aa2cd09"><path d="M 29.996094 86.230469 L 63.113281 86.230469 L 63.113281 90.046875 L 29.996094 90.046875 Z M 29.996094 86.230469 "/></clipPath><clipPath id="da61b7a821"><path d="M 86.667969 33.375 L 90.484375 33.375 L 90.484375 93.863281 L 86.667969 93.863281 Z M 86.667969 33.375 "/></clipPath><clipPath id="2bbdac9f4f"><path d="M 82.847656 29.554688 L 86.667969 29.554688 L 86.667969 90.046875 L 82.847656 90.046875 Z M 82.847656 29.554688 "/></clipPath><clipPath id="3bb1760002"><path d="M 49.730469 29.554688 L 86.667969 29.554688 L 86.667969 33.371094 L 49.730469 33.371094 Z M 49.730469 29.554688 "/></clipPath><clipPath id="238f1b79eb"><path d="M 53.546875 33.371094 L 86.664062 33.371094 L 86.664062 37.191406 L 53.546875 37.191406 Z M 53.546875 33.371094 "/></clipPath><clipPath id="61f68330dd"><path d="M 28.085938 33.371094 L 31.902344 33.371094 L 31.902344 90.046875 L 28.085938 90.046875 Z M 28.085938 33.371094 "/></clipPath><clipPath id="6c609ac461"><path d="M 29.996094 88.136719 L 63.113281 88.136719 L 63.113281 91.957031 L 29.996094 91.957031 Z M 29.996094 88.136719 "/></clipPath><clipPath id="882e2006bd"><path d="M 84.757812 33.375 L 88.574219 33.375 L 88.574219 90.046875 L 84.757812 90.046875 Z M 84.757812 33.375 "/></clipPath><clipPath id="b31f271992"><path d="M 53.546875 31.464844 L 86.664062 31.464844 L 86.664062 35.28125 L 53.546875 35.28125 Z M 53.546875 31.464844 "/></clipPath><clipPath id="ab3ac911f9"><path d="M 40.691406 56.433594 L 42.722656 56.433594 L 42.722656 76.164062 L 40.691406 76.164062 Z M 40.691406 56.433594 "/></clipPath><clipPath id="103188ab36"><path d="M 40.6875 74.351562 L 46.777344 74.351562 L 46.777344 76.167969 L 40.6875 76.167969 Z M 40.6875 74.351562 "/></clipPath><clipPath id="eb0fe3c989"><path d="M 44.207031 76.019531 L 51.304688 76.019531 L 51.304688 77.835938 L 44.207031 77.835938 Z M 44.207031 76.019531 "/></clipPath><clipPath id="09d27516e3"><path d="M 49.632812 77.6875 L 53.925781 77.6875 L 53.925781 79.503906 L 49.632812 79.503906 Z M 49.632812 77.6875 "/></clipPath><clipPath id="3232968cfd"><path d="M 52.28125 79.109375 L 55.351562 79.109375 L 55.351562 80.925781 L 52.28125 80.925781 Z M 52.28125 79.109375 "/></clipPath><clipPath id="9f1e4fd146"><path d="M 54.550781 80.722656 L 62.03125 80.722656 L 62.03125 82.292969 L 54.550781 82.292969 Z M 54.550781 80.722656 "/></clipPath><clipPath id="89c4aadcb4"><path d="M 60.890625 79.109375 L 63.960938 79.109375 L 63.960938 80.925781 L 60.890625 80.925781 Z M 60.890625 79.109375 "/></clipPath><clipPath id="c295d357f5"><path d="M 62.425781 77.6875 L 66.71875 77.6875 L 66.71875 79.503906 L 62.425781 79.503906 Z M 62.425781 77.6875 "/></clipPath><clipPath id="13b10f3525"><path d="M 65.160156 76.019531 L 72.257812 76.019531 L 72.257812 77.835938 L 65.160156 77.835938 Z M 65.160156 76.019531 "/></clipPath><clipPath id="94e13201c6"><path d="M 69.882812 74.351562 L 75.972656 74.351562 L 75.972656 76.167969 L 69.882812 76.167969 Z M 69.882812 74.351562 "/></clipPath><clipPath id="facd3789a3"><path d="M 73.941406 56.433594 L 75.972656 56.433594 L 75.972656 76.164062 L 73.941406 76.164062 Z M 73.941406 56.433594 "/></clipPath><clipPath id="a956c89669"><path d="M 43.796875 57.464844 L 49.886719 57.464844 L 49.886719 73.015625 L 43.796875 73.015625 Z M 43.796875 57.464844 "/></clipPath><clipPath id="279ad39448"><path d="M 47.847656 72.597656 L 53.9375 72.597656 L 53.9375 74.414062 L 47.847656 74.414062 Z M 47.847656 72.597656 "/></clipPath><clipPath id="fdf0864ec5"><path d="M 52.449219 59.324219 L 64.035156 59.324219 L 64.035156 76.105469 L 52.449219 76.105469 Z M 52.449219 59.324219 "/></clipPath><clipPath id="5df93801b4"><path d="M 55.039062 75.640625 L 61.195312 75.640625 L 61.195312 77.457031 L 55.039062 77.457031 Z M 55.039062 75.640625 "/></clipPath><clipPath id="88f7f6263d"><path d="M 56.503906 77.085938 L 59.753906 77.085938 L 59.753906 78.898438 L 56.503906 78.898438 Z M 56.503906 77.085938 "/></clipPath><clipPath id="59d2f4c3fd"><path d="M 62.617188 72.597656 L 68.707031 72.597656 L 68.707031 74.414062 L 62.617188 74.414062 Z M 62.617188 72.597656 "/></clipPath><clipPath id="6acc9c94e0"><path d="M 66.71875 57.464844 L 72.808594 57.464844 L 72.808594 73.015625 L 66.71875 73.015625 Z M 66.71875 57.464844 "/></clipPath><clipPath id="f05be7a7ff"><path d="M 45.28125 53.507812 L 52.527344 53.507812 L 52.527344 61.90625 L 45.28125 61.90625 Z M 45.28125 53.507812 "/></clipPath><clipPath id="993e795d19"><path d="M 48.574219 56.367188 L 55.867188 56.367188 L 55.867188 74.292969 L 48.574219 74.292969 Z M 48.574219 56.367188 "/></clipPath><clipPath id="40608d1845"><path d="M 55.867188 59.324219 L 59.753906 59.324219 L 59.753906 74.863281 L 55.867188 74.863281 Z M 55.867188 59.324219 "/></clipPath><clipPath id="bfe0b6e96c"><path d="M 59.753906 56.367188 L 67 56.367188 L 67 74.292969 L 59.753906 74.292969 Z M 59.753906 56.367188 "/></clipPath><clipPath id="39e7621515"><path d="M 64.96875 53.507812 L 71.597656 53.507812 L 71.597656 61.808594 L 64.96875 61.808594 Z M 64.96875 53.507812 "/></clipPath><clipPath id="be1625735c"><path d="M 49.460938 64.527344 L 52.320312 64.527344 L 52.320312 67.511719 L 49.460938 67.511719 Z M 49.460938 64.527344 "/></clipPath><clipPath id="9c4e0e6385"><path d="M 50.949219 66.3125 L 53.808594 66.3125 L 53.808594 69.089844 L 50.949219 69.089844 Z M 50.949219 66.3125 "/></clipPath><clipPath id="9469cbd434"><path d="M 52.527344 67.703125 L 55.363281 67.703125 L 55.363281 70.625 L 52.527344 70.625 Z M 52.527344 67.703125 "/></clipPath><clipPath id="06d766731d"><path d="M 54.039062 69.203125 L 58.226562 69.203125 L 58.226562 72.011719 L 54.039062 72.011719 Z M 54.039062 69.203125 "/></clipPath><clipPath id="2edb0c39cc"><path d="M 55.417969 71.957031 L 56.988281 71.957031 L 56.988281 73.394531 L 55.417969 73.394531 Z M 55.417969 71.957031 "/></clipPath><clipPath id="952fafb374"><path d="M 56.917969 67.742188 L 59.753906 67.742188 L 59.753906 70.664062 L 56.917969 70.664062 Z M 56.917969 67.742188 "/></clipPath><clipPath id="1929321490"><path d="M 58.453125 66.3125 L 61.3125 66.3125 L 61.3125 69.089844 L 58.453125 69.089844 Z M 58.453125 66.3125 "/></clipPath><clipPath id="86d0394eac"><path d="M 59.882812 64.628906 L 62.738281 64.628906 L 62.738281 67.636719 L 59.882812 67.636719 Z M 59.882812 64.628906 "/></clipPath><clipPath id="bdaec603c5"><path d="M 61.304688 63.164062 L 64.160156 63.164062 L 64.160156 66.132812 L 61.304688 66.132812 Z M 61.304688 63.164062 "/></clipPath><clipPath id="8ae3878fb5"><path d="M 62.90625 61.675781 L 65.558594 61.675781 L 65.558594 64.757812 L 62.90625 64.757812 Z M 62.90625 61.675781 "/></clipPath><clipPath id="222daa8f75"><path d="M 64.351562 60.265625 L 67 60.265625 L 67 63.347656 L 64.351562 63.347656 Z M 64.351562 60.265625 "/></clipPath><clipPath id="9214697ea4"><path d="M 59.777344 50.925781 L 62.296875 50.925781 L 62.296875 53.445312 L 59.777344 53.445312 Z M 59.777344 50.925781 "/></clipPath><clipPath id="58357894d6"><path d="M 54.535156 46.070312 L 57.054688 46.070312 L 57.054688 48.589844 L 54.535156 48.589844 Z M 54.535156 46.070312 "/></clipPath><clipPath id="c390562240"><path d="M 59.777344 41.125 L 62.296875 41.125 L 62.296875 43.644531 L 59.777344 43.644531 Z M 59.777344 41.125 "/></clipPath><clipPath id="56a41dc341"><path d="M 155.347656 155.34375 L 159.164062 155.34375 L 159.164062 215.835938 L 155.347656 215.835938 Z M 155.347656 155.34375 "/></clipPath><clipPath id="d502f722bd"><path d="M 159.164062 159.164062 L 162.980469 159.164062 L 162.980469 219.652344 L 159.164062 219.652344 Z M 159.164062 159.164062 "/></clipPath><clipPath id="e5a4456a33"><path d="M 159.164062 215.835938 L 196.097656 215.835938 L 196.097656 219.652344 L 159.164062 219.652344 Z M 159.164062 215.835938 "/></clipPath><clipPath id="cb6c6beab5"><path d="M 159.164062 212.019531 L 192.28125 212.019531 L 192.28125 215.835938 L 159.164062 215.835938 Z M 159.164062 212.019531 "/></clipPath><clipPath id="7343ea9888"><path d="M 215.835938 159.164062 L 219.652344 159.164062 L 219.652344 219.652344 L 215.835938 219.652344 Z M 215.835938 159.164062 "/></clipPath><clipPath id="aec9aa92b4"><path d="M 212.019531 155.34375 L 215.835938 155.34375 L 215.835938 215.835938 L 212.019531 215.835938 Z M 212.019531 155.34375 "/></clipPath><clipPath id="efd8c59e97"><path d="M 178.898438 155.34375 L 215.835938 155.34375 L 215.835938 159.160156 L 178.898438 159.160156 Z M 178.898438 155.34375 "/></clipPath><clipPath id="035d5df19c"><path d="M 182.714844 159.160156 L 215.835938 159.160156 L 215.835938 162.980469 L 182.714844 162.980469 Z M 182.714844 159.160156 "/></clipPath><clipPath id="915413f545"><path d="M 157.253906 159.160156 L 161.074219 159.160156 L 161.074219 215.835938 L 157.253906 215.835938 Z M 157.253906 159.160156 "/></clipPath><clipPath id="a19b6d6595"><path d="M 159.164062 213.929688 L 192.28125 213.929688 L 192.28125 217.746094 L 159.164062 217.746094 Z M 159.164062 213.929688 "/></clipPath><clipPath id="9e4386cb2e"><path d="M 213.925781 159.164062 L 217.742188 159.164062 L 217.742188 215.835938 L 213.925781 215.835938 Z M 213.925781 159.164062 "/></clipPath><clipPath id="b0da5e6659"><path d="M 182.714844 157.253906 L 215.835938 157.253906 L 215.835938 161.070312 L 182.714844 161.070312 Z M 182.714844 157.253906 "/></clipPath><clipPath id="7e603df249"><path d="M 169.859375 182.222656 L 171.890625 182.222656 L 171.890625 201.957031 L 169.859375 201.957031 Z M 169.859375 182.222656 "/></clipPath><clipPath id="7ce172d803"><path d="M 169.855469 200.140625 L 175.949219 200.140625 L 175.949219 201.957031 L 169.855469 201.957031 Z M 169.855469 200.140625 "/></clipPath><clipPath id="fc0a694e6b"><path d="M 173.378906 201.808594 L 180.476562 201.808594 L 180.476562 203.625 L 173.378906 203.625 Z M 173.378906 201.808594 "/></clipPath><clipPath id="874784a8ad"><path d="M 178.804688 203.476562 L 183.097656 203.476562 L 183.097656 205.292969 L 178.804688 205.292969 Z M 178.804688 203.476562 "/></clipPath><clipPath id="5e39dca103"><path d="M 181.453125 204.902344 L 184.519531 204.902344 L 184.519531 206.714844 L 181.453125 206.714844 Z M 181.453125 204.902344 "/></clipPath><clipPath id="6062ff24b3"><path d="M 183.71875 206.511719 L 191.199219 206.511719 L 191.199219 208.082031 L 183.71875 208.082031 Z M 183.71875 206.511719 "/></clipPath><clipPath id="1e487ba90a"><path d="M 190.0625 204.902344 L 193.128906 204.902344 L 193.128906 206.714844 L 190.0625 206.714844 Z M 190.0625 204.902344 "/></clipPath><clipPath id="83e4dbd4f0"><path d="M 191.59375 203.476562 L 195.886719 203.476562 L 195.886719 205.292969 L 191.59375 205.292969 Z M 191.59375 203.476562 "/></clipPath><clipPath id="0f0fb24cb3"><path d="M 194.328125 201.808594 L 201.425781 201.808594 L 201.425781 203.625 L 194.328125 203.625 Z M 194.328125 201.808594 "/></clipPath><clipPath id="d748fa303f"><path d="M 199.050781 200.140625 L 205.140625 200.140625 L 205.140625 201.957031 L 199.050781 201.957031 Z M 199.050781 200.140625 "/></clipPath><clipPath id="687f50afe5"><path d="M 203.109375 182.222656 L 205.140625 182.222656 L 205.140625 201.957031 L 203.109375 201.957031 Z M 203.109375 182.222656 "/></clipPath><clipPath id="a871979b48"><path d="M 172.964844 183.253906 L 179.054688 183.253906 L 179.054688 198.804688 L 172.964844 198.804688 Z M 172.964844 183.253906 "/></clipPath><clipPath id="3272346e4f"><path d="M 177.019531 198.386719 L 183.109375 198.386719 L 183.109375 200.203125 L 177.019531 200.203125 Z M 177.019531 198.386719 "/></clipPath><clipPath id="7dd4c8bbb3"><path d="M 181.621094 185.113281 L 193.203125 185.113281 L 193.203125 201.894531 L 181.621094 201.894531 Z M 181.621094 185.113281 "/></clipPath><clipPath id="dfa0d88112"><path d="M 184.207031 201.429688 L 190.367188 201.429688 L 190.367188 203.246094 L 184.207031 203.246094 Z M 184.207031 201.429688 "/></clipPath><clipPath id="a08cfbd842"><path d="M 185.671875 202.875 L 188.921875 202.875 L 188.921875 204.691406 L 185.671875 204.691406 Z M 185.671875 202.875 "/></clipPath><clipPath id="24a6276fab"><path d="M 191.785156 198.386719 L 197.875 198.386719 L 197.875 200.203125 L 191.785156 200.203125 Z M 191.785156 198.386719 "/></clipPath><clipPath id="5c61a1bdd6"><path d="M 195.886719 183.253906 L 201.976562 183.253906 L 201.976562 198.804688 L 195.886719 198.804688 Z M 195.886719 183.253906 "/></clipPath><clipPath id="f6e9f7721c"><path d="M 174.449219 179.300781 L 181.695312 179.300781 L 181.695312 187.695312 L 174.449219 187.695312 Z M 174.449219 179.300781 "/></clipPath><clipPath id="80114064c1"><path d="M 177.746094 182.15625 L 185.035156 182.15625 L 185.035156 200.082031 L 177.746094 200.082031 Z M 177.746094 182.15625 "/></clipPath><clipPath id="553801fa24"><path d="M 185.035156 185.113281 L 188.925781 185.113281 L 188.925781 200.652344 L 185.035156 200.652344 Z M 185.035156 185.113281 "/></clipPath><clipPath id="11edd1f853"><path d="M 188.921875 182.15625 L 196.167969 182.15625 L 196.167969 200.082031 L 188.921875 200.082031 Z M 188.921875 182.15625 "/></clipPath><clipPath id="34afb73766"><path d="M 194.140625 179.296875 L 200.765625 179.296875 L 200.765625 187.597656 L 194.140625 187.597656 Z M 194.140625 179.296875 "/></clipPath><clipPath id="e5a00312a3"><path d="M 178.628906 190.316406 L 181.488281 190.316406 L 181.488281 193.300781 L 178.628906 193.300781 Z M 178.628906 190.316406 "/></clipPath><clipPath id="a3123430fb"><path d="M 180.117188 192.101562 L 182.976562 192.101562 L 182.976562 194.878906 L 180.117188 194.878906 Z M 180.117188 192.101562 "/></clipPath><clipPath id="c85543a481"><path d="M 181.695312 193.492188 L 184.53125 193.492188 L 184.53125 196.414062 L 181.695312 196.414062 Z M 181.695312 193.492188 "/></clipPath><clipPath id="cab7848fff"><path d="M 183.207031 194.996094 L 187.394531 194.996094 L 187.394531 197.800781 L 183.207031 197.800781 Z M 183.207031 194.996094 "/></clipPath><clipPath id="24707b2515"><path d="M 184.589844 197.746094 L 186.15625 197.746094 L 186.15625 199.183594 L 184.589844 199.183594 Z M 184.589844 197.746094 "/></clipPath><clipPath id="29f4f1531a"><path d="M 186.085938 193.53125 L 188.921875 193.53125 L 188.921875 196.453125 L 186.085938 196.453125 Z M 186.085938 193.53125 "/></clipPath><clipPath id="f65ac06e6e"><path d="M 187.625 192.101562 L 190.480469 192.101562 L 190.480469 194.878906 L 187.625 194.878906 Z M 187.625 192.101562 "/></clipPath><clipPath id="44285f56ca"><path d="M 189.050781 190.417969 L 191.910156 190.417969 L 191.910156 193.425781 L 189.050781 193.425781 Z M 189.050781 190.417969 "/></clipPath><clipPath id="d36339cc05"><path d="M 190.472656 188.953125 L 193.328125 188.953125 L 193.328125 191.921875 L 190.472656 191.921875 Z M 190.472656 188.953125 "/></clipPath><clipPath id="408530d46c"><path d="M 192.074219 187.464844 L 194.726562 187.464844 L 194.726562 190.546875 L 192.074219 190.546875 Z M 192.074219 187.464844 "/></clipPath><clipPath id="0e9c96fe4a"><path d="M 193.519531 186.054688 L 196.167969 186.054688 L 196.167969 189.136719 L 193.519531 189.136719 Z M 193.519531 186.054688 "/></clipPath><clipPath id="29bcfe6bae"><path d="M 188.945312 176.714844 L 191.464844 176.714844 L 191.464844 179.234375 L 188.945312 179.234375 Z M 188.945312 176.714844 "/></clipPath><clipPath id="378fb2b893"><path d="M 183.703125 171.863281 L 186.222656 171.863281 L 186.222656 174.378906 L 183.703125 174.378906 Z M 183.703125 171.863281 "/></clipPath><clipPath id="197c34e5f2"><path d="M 188.945312 166.914062 L 191.464844 166.914062 L 191.464844 169.433594 L 188.945312 169.433594 Z M 188.945312 166.914062 "/></clipPath><clipPath id="91928b3d67"><path d="M 284.515625 280.875 L 288.332031 280.875 L 288.332031 341.363281 L 284.515625 341.363281 Z M 284.515625 280.875 "/></clipPath><clipPath id="5f2b89bdfb"><path d="M 288.332031 284.691406 L 292.148438 284.691406 L 292.148438 345.183594 L 288.332031 345.183594 Z M 288.332031 284.691406 "/></clipPath><clipPath id="c546f57e79"><path d="M 288.332031 341.367188 L 325.269531 341.367188 L 325.269531 345.183594 L 288.332031 345.183594 Z M 288.332031 341.367188 "/></clipPath><clipPath id="84bec03bfc"><path d="M 288.332031 337.546875 L 321.449219 337.546875 L 321.449219 341.367188 L 288.332031 341.367188 Z M 288.332031 337.546875 "/></clipPath><clipPath id="9e33adae90"><path d="M 345.003906 284.691406 L 348.820312 284.691406 L 348.820312 345.183594 L 345.003906 345.183594 Z M 345.003906 284.691406 "/></clipPath><clipPath id="2480cfdb73"><path d="M 341.1875 280.875 L 345.003906 280.875 L 345.003906 341.363281 L 341.1875 341.363281 Z M 341.1875 280.875 "/></clipPath><clipPath id="a9b12f8982"><path d="M 308.066406 280.875 L 345.003906 280.875 L 345.003906 284.691406 L 308.066406 284.691406 Z M 308.066406 280.875 "/></clipPath><clipPath id="0a1e837696"><path d="M 311.882812 284.691406 L 345.003906 284.691406 L 345.003906 288.507812 L 311.882812 288.507812 Z M 311.882812 284.691406 "/></clipPath><clipPath id="04401ccf33"><path d="M 286.421875 284.691406 L 290.242188 284.691406 L 290.242188 341.363281 L 286.421875 341.363281 Z M 286.421875 284.691406 "/></clipPath><clipPath id="7d581e7636"><path d="M 288.332031 339.457031 L 321.449219 339.457031 L 321.449219 343.273438 L 288.332031 343.273438 Z M 288.332031 339.457031 "/></clipPath><clipPath id="7b70b3a7b8"><path d="M 343.09375 284.691406 L 346.914062 284.691406 L 346.914062 341.367188 L 343.09375 341.367188 Z M 343.09375 284.691406 "/></clipPath><clipPath id="8d6a46dd22"><path d="M 311.882812 282.78125 L 345.003906 282.78125 L 345.003906 286.597656 L 311.882812 286.597656 Z M 311.882812 282.78125 "/></clipPath><clipPath id="45d510cf59"><path d="M 299.027344 307.753906 L 301.058594 307.753906 L 301.058594 327.484375 L 299.027344 327.484375 Z M 299.027344 307.753906 "/></clipPath><clipPath id="0124488cf8"><path d="M 299.027344 325.667969 L 305.117188 325.667969 L 305.117188 327.484375 L 299.027344 327.484375 Z M 299.027344 325.667969 "/></clipPath><clipPath id="fcb9f1f4f8"><path d="M 302.546875 327.335938 L 309.644531 327.335938 L 309.644531 329.152344 L 302.546875 329.152344 Z M 302.546875 327.335938 "/></clipPath><clipPath id="d67504c0f0"><path d="M 307.972656 329.007812 L 312.265625 329.007812 L 312.265625 330.820312 L 307.972656 330.820312 Z M 307.972656 329.007812 "/></clipPath><clipPath id="f016637e19"><path d="M 310.621094 330.429688 L 313.6875 330.429688 L 313.6875 332.246094 L 310.621094 332.246094 Z M 310.621094 330.429688 "/></clipPath><clipPath id="38db2ecb87"><path d="M 312.890625 332.042969 L 320.367188 332.042969 L 320.367188 333.613281 L 312.890625 333.613281 Z M 312.890625 332.042969 "/></clipPath><clipPath id="e523fc730c"><path d="M 319.230469 330.429688 L 322.296875 330.429688 L 322.296875 332.246094 L 319.230469 332.246094 Z M 319.230469 330.429688 "/></clipPath><clipPath id="2806157b8a"><path d="M 320.765625 329.007812 L 325.058594 329.007812 L 325.058594 330.820312 L 320.765625 330.820312 Z M 320.765625 329.007812 "/></clipPath><clipPath id="a28aea3fc0"><path d="M 323.496094 327.335938 L 330.59375 327.335938 L 330.59375 329.152344 L 323.496094 329.152344 Z M 323.496094 327.335938 "/></clipPath><clipPath id="da00d038ee"><path d="M 328.21875 325.667969 L 334.308594 325.667969 L 334.308594 327.484375 L 328.21875 327.484375 Z M 328.21875 325.667969 "/></clipPath><clipPath id="2b320fae31"><path d="M 332.277344 307.753906 L 334.308594 307.753906 L 334.308594 327.484375 L 332.277344 327.484375 Z M 332.277344 307.753906 "/></clipPath><clipPath id="78c0f1f38e"><path d="M 302.132812 308.78125 L 308.222656 308.78125 L 308.222656 324.332031 L 302.132812 324.332031 Z M 302.132812 308.78125 "/></clipPath><clipPath id="622c7fa9de"><path d="M 306.1875 323.914062 L 312.277344 323.914062 L 312.277344 325.730469 L 306.1875 325.730469 Z M 306.1875 323.914062 "/></clipPath><clipPath id="ca735b72d1"><path d="M 310.789062 310.644531 L 322.375 310.644531 L 322.375 327.421875 L 310.789062 327.421875 Z M 310.789062 310.644531 "/></clipPath><clipPath id="9f7f02dc45"><path d="M 313.375 326.960938 L 319.535156 326.960938 L 319.535156 328.777344 L 313.375 328.777344 Z M 313.375 326.960938 "/></clipPath><clipPath id="fbce65516e"><path d="M 314.839844 328.402344 L 318.09375 328.402344 L 318.09375 330.21875 L 314.839844 330.21875 Z M 314.839844 328.402344 "/></clipPath><clipPath id="640d9a81b9"><path d="M 320.953125 323.914062 L 327.046875 323.914062 L 327.046875 325.730469 L 320.953125 325.730469 Z M 320.953125 323.914062 "/></clipPath><clipPath id="0723aa7810"><path d="M 325.054688 308.78125 L 331.148438 308.78125 L 331.148438 324.332031 L 325.054688 324.332031 Z M 325.054688 308.78125 "/></clipPath><clipPath id="a4f32f8990"><path d="M 303.617188 304.828125 L 310.863281 304.828125 L 310.863281 313.226562 L 303.617188 313.226562 Z M 303.617188 304.828125 "/></clipPath><clipPath id="c94f5e32bd"><path d="M 306.914062 307.683594 L 314.203125 307.683594 L 314.203125 325.609375 L 306.914062 325.609375 Z M 306.914062 307.683594 "/></clipPath><clipPath id="4f55f2e8fd"><path d="M 314.207031 310.644531 L 318.09375 310.644531 L 318.09375 326.179688 L 314.207031 326.179688 Z M 314.207031 310.644531 "/></clipPath><clipPath id="5ba25fce04"><path d="M 318.09375 307.683594 L 325.335938 307.683594 L 325.335938 325.609375 L 318.09375 325.609375 Z M 318.09375 307.683594 "/></clipPath><clipPath id="367bfb9924"><path d="M 323.308594 304.828125 L 329.933594 304.828125 L 329.933594 313.125 L 323.308594 313.125 Z M 323.308594 304.828125 "/></clipPath><clipPath id="553c30cea7"><path d="M 307.800781 315.84375 L 310.65625 315.84375 L 310.65625 318.828125 L 307.800781 318.828125 Z M 307.800781 315.84375 "/></clipPath><clipPath id="56a1a2ff04"><path d="M 309.289062 317.632812 L 312.144531 317.632812 L 312.144531 320.410156 L 309.289062 320.410156 Z M 309.289062 317.632812 "/></clipPath><clipPath id="d2f98d99e7"><path d="M 310.863281 319.019531 L 313.703125 319.019531 L 313.703125 321.941406 L 310.863281 321.941406 Z M 310.863281 319.019531 "/></clipPath><clipPath id="c2b59854af"><path d="M 312.375 320.523438 L 316.5625 320.523438 L 316.5625 323.332031 L 312.375 323.332031 Z M 312.375 320.523438 "/></clipPath><clipPath id="d1c70845de"><path d="M 313.757812 323.273438 L 315.328125 323.273438 L 315.328125 324.710938 L 313.757812 324.710938 Z M 313.757812 323.273438 "/></clipPath><clipPath id="5e798600cd"><path d="M 315.253906 319.0625 L 318.09375 319.0625 L 318.09375 321.984375 L 315.253906 321.984375 Z M 315.253906 319.0625 "/></clipPath><clipPath id="47546df1dd"><path d="M 316.792969 317.632812 L 319.648438 317.632812 L 319.648438 320.410156 L 316.792969 320.410156 Z M 316.792969 317.632812 "/></clipPath><clipPath id="ae31ad91a5"><path d="M 318.222656 315.949219 L 321.078125 315.949219 L 321.078125 318.953125 L 318.222656 318.953125 Z M 318.222656 315.949219 "/></clipPath><clipPath id="c4f1429d03"><path d="M 319.640625 314.484375 L 322.496094 314.484375 L 322.496094 317.453125 L 319.640625 317.453125 Z M 319.640625 314.484375 "/></clipPath><clipPath id="99df576066"><path d="M 321.242188 312.996094 L 323.894531 312.996094 L 323.894531 316.078125 L 321.242188 316.078125 Z M 321.242188 312.996094 "/></clipPath><clipPath id="3a1550cc1c"><path d="M 322.6875 311.585938 L 325.339844 311.585938 L 325.339844 314.667969 L 322.6875 314.667969 Z M 322.6875 311.585938 "/></clipPath><clipPath id="3ff192999d"><path d="M 318.117188 302.246094 L 320.632812 302.246094 L 320.632812 304.761719 L 318.117188 304.761719 Z M 318.117188 302.246094 "/></clipPath><clipPath id="c2881424c9"><path d="M 312.871094 297.390625 L 315.390625 297.390625 L 315.390625 299.910156 L 312.871094 299.910156 Z M 312.871094 297.390625 "/></clipPath><clipPath id="7e2bf9c059"><path d="M 318.117188 292.445312 L 320.632812 292.445312 L 320.632812 294.964844 L 318.117188 294.964844 Z M 318.117188 292.445312 "/></clipPath></defs><g id="e4d2a382f2"><rect x="0" width="375" y="0" height="374.999991" style="fill:#ffffff;fill-opacity:1;stroke:none;"/><rect x="0" width="375" y="0" height="374.999991" style="fill:#1b0d34;fill-opacity:1;stroke:none;"/><path style="fill:none;stroke-width:4;stroke-linecap:butt;stroke-linejoin:miter;stroke:#faf3ff;stroke-opacity:1;stroke-miterlimit:4;" d="M -0.000006 2.000011 L 500.000027 2.000011 " transform="matrix(0.75,0,0,0.75,0.0000045,120.374992)"/><path style="fill:none;stroke-width:4;stroke-linecap:butt;stroke-linejoin:miter;stroke:#faf3ff;stroke-opacity:1;stroke-miterlimit:4;" d="M 0.00229881 2.001136 L 505.288803 2.001136 " transform="matrix(0.749582,0,0,0.749582,-3.966567,251.624983)"/><g clip-rule="nonzero" clip-path="url(#03af003819)"><path style=" stroke:none;fill-rule:nonzero;fill:#1553ad;fill-opacity:1;" d="M 26.175781 90.046875 L 26.175781 29.5625 L 29.996094 29.5625 L 29.996094 90.046875 Z M 26.175781 90.046875 "/></g><g clip-rule="nonzero" clip-path="url(#234cab5fd9)"><path style=" stroke:none;fill-rule:nonzero;fill:#1553ad;fill-opacity:1;" d="M 29.996094 93.863281 L 29.996094 33.378906 L 33.8125 33.378906 L 33.8125 93.863281 Z M 29.996094 93.863281 "/></g><g clip-rule="nonzero" clip-path="url(#f27f64c605)"><path style=" stroke:none;fill-rule:nonzero;fill:#1553ad;fill-opacity:1;" d="M 29.996094 90.046875 L 66.933594 90.046875 L 66.933594 93.863281 L 29.996094 93.863281 Z M 29.996094 90.046875 "/></g><g clip-rule="nonzero" clip-path="url(#d84aa2cd09)"><path style=" stroke:none;fill-rule:nonzero;fill:#1553ad;fill-opacity:1;" d="M 29.996094 86.230469 L 63.113281 86.230469 L 63.113281 90.046875 L 29.996094 90.046875 Z M 29.996094 86.230469 "/></g><g clip-rule="nonzero" clip-path="url(#da61b7a821)"><path style=" stroke:none;fill-rule:nonzero;fill:#faf3ff;fill-opacity:1;" d="M 90.484375 33.375 L 90.484375 93.859375 L 86.667969 93.859375 L 86.667969 33.375 Z M 90.484375 33.375 "/></g><g clip-rule="nonzero" clip-path="url(#2bbdac9f4f)"><path style=" stroke:none;fill-rule:nonzero;fill:#faf3ff;fill-opacity:1;" d="M 86.667969 29.554688 L 86.667969 90.039062 L 82.847656 90.039062 L 82.847656 29.554688 Z M 86.667969 29.554688 "/></g><g clip-rule="nonzero" clip-path="url(#3bb1760002)"><path style=" stroke:none;fill-rule:nonzero;fill:#faf3ff;fill-opacity:1;" d="M 86.667969 33.371094 L 49.726562 33.371094 L 49.726562 29.554688 L 86.667969 29.554688 Z M 86.667969 33.371094 "/></g><g clip-rule="nonzero" clip-path="url(#238f1b79eb)"><path style=" stroke:none;fill-rule:nonzero;fill:#faf3ff;fill-opacity:1;" d="M 86.664062 37.191406 L 53.546875 37.191406 L 53.546875 33.371094 L 86.664062 33.371094 Z M 86.664062 37.191406 "/></g><g clip-rule="nonzero" clip-path="url(#61f68330dd)"><path style=" stroke:none;fill-rule:nonzero;fill:#1553ad;fill-opacity:1;" d="M 28.085938 90.046875 L 28.085938 33.378906 L 31.902344 33.378906 L 31.902344 90.046875 Z M 28.085938 90.046875 "/></g><g clip-rule="nonzero" clip-path="url(#6c609ac461)"><path style=" stroke:none;fill-rule:nonzero;fill:#1553ad;fill-opacity:1;" d="M 29.996094 88.136719 L 63.113281 88.136719 L 63.113281 91.957031 L 29.996094 91.957031 Z M 29.996094 88.136719 "/></g><g clip-rule="nonzero" clip-path="url(#882e2006bd)"><path style=" stroke:none;fill-rule:nonzero;fill:#faf3ff;fill-opacity:1;" d="M 88.574219 33.375 L 88.574219 90.039062 L 84.757812 90.039062 L 84.757812 33.375 Z M 88.574219 33.375 "/></g><g clip-rule="nonzero" clip-path="url(#b31f271992)"><path style=" stroke:none;fill-rule:nonzero;fill:#faf3ff;fill-opacity:1;" d="M 86.664062 35.28125 L 53.546875 35.28125 L 53.546875 31.464844 L 86.664062 31.464844 Z M 86.664062 35.28125 "/></g><g clip-rule="nonzero" clip-path="url(#ab3ac911f9)"><path style=" stroke:none;fill-rule:nonzero;fill:#1350a7;fill-opacity:1;" d="M 40.691406 56.433594 L 42.722656 56.433594 L 42.722656 76.167969 L 40.691406 76.167969 Z M 40.691406 56.433594 "/></g><g clip-rule="nonzero" clip-path="url(#103188ab36)"><path style=" stroke:none;fill-rule:nonzero;fill:#1350a7;fill-opacity:1;" d="M 46.777344 74.351562 L 46.777344 76.167969 L 40.6875 76.167969 L 40.6875 74.351562 Z M 46.777344 74.351562 "/></g><g clip-rule="nonzero" clip-path="url(#eb0fe3c989)"><path style=" stroke:none;fill-rule:nonzero;fill:#1350a7;fill-opacity:1;" d="M 51.304688 76.019531 L 51.304688 77.835938 L 44.207031 77.835938 L 44.207031 76.019531 Z M 51.304688 76.019531 "/></g><g clip-rule="nonzero" clip-path="url(#09d27516e3)"><path style=" stroke:none;fill-rule:nonzero;fill:#1350a7;fill-opacity:1;" d="M 53.925781 77.6875 L 53.925781 79.503906 L 49.636719 79.503906 L 49.636719 77.6875 Z M 53.925781 77.6875 "/></g><g clip-rule="nonzero" clip-path="url(#3232968cfd)"><path style=" stroke:none;fill-rule:nonzero;fill:#1350a7;fill-opacity:1;" d="M 55.351562 79.109375 L 55.351562 80.925781 L 52.28125 80.925781 L 52.28125 79.109375 Z M 55.351562 79.109375 "/></g><g clip-rule="nonzero" clip-path="url(#9f1e4fd146)"><path style=" stroke:none;fill-rule:nonzero;fill:#1350a7;fill-opacity:1;" d="M 62.03125 80.722656 L 62.03125 82.292969 L 54.554688 82.292969 L 54.554688 80.722656 Z M 62.03125 80.722656 "/></g><g clip-rule="nonzero" clip-path="url(#89c4aadcb4)"><path style=" stroke:none;fill-rule:nonzero;fill:#1350a7;fill-opacity:1;" d="M 63.960938 79.109375 L 63.960938 80.925781 L 60.890625 80.925781 L 60.890625 79.109375 Z M 63.960938 79.109375 "/></g><g clip-rule="nonzero" clip-path="url(#c295d357f5)"><path style=" stroke:none;fill-rule:nonzero;fill:#1350a7;fill-opacity:1;" d="M 66.71875 77.6875 L 66.71875 79.503906 L 62.429688 79.503906 L 62.429688 77.6875 Z M 66.71875 77.6875 "/></g><g clip-rule="nonzero" clip-path="url(#13b10f3525)"><path style=" stroke:none;fill-rule:nonzero;fill:#1350a7;fill-opacity:1;" d="M 72.257812 76.019531 L 72.257812 77.835938 L 65.15625 77.835938 L 65.15625 76.019531 Z M 72.257812 76.019531 "/></g><g clip-rule="nonzero" clip-path="url(#94e13201c6)"><path style=" stroke:none;fill-rule:nonzero;fill:#1350a7;fill-opacity:1;" d="M 75.972656 74.351562 L 75.972656 76.167969 L 69.878906 76.167969 L 69.878906 74.351562 Z M 75.972656 74.351562 "/></g><g clip-rule="nonzero" clip-path="url(#facd3789a3)"><path style=" stroke:none;fill-rule:nonzero;fill:#1350a7;fill-opacity:1;" d="M 73.941406 56.433594 L 75.972656 56.433594 L 75.972656 76.167969 L 73.941406 76.167969 Z M 73.941406 56.433594 "/></g><g clip-rule="nonzero" clip-path="url(#a956c89669)"><path style=" stroke:none;fill-rule:nonzero;fill:#faf3ff;fill-opacity:1;" d="M 49.886719 57.464844 L 49.886719 73.023438 L 43.796875 73.023438 L 43.796875 57.464844 Z M 49.886719 57.464844 "/></g><g clip-rule="nonzero" clip-path="url(#279ad39448)"><path style=" stroke:none;fill-rule:nonzero;fill:#faf3ff;fill-opacity:1;" d="M 53.9375 72.597656 L 53.9375 74.414062 L 47.847656 74.414062 L 47.847656 72.597656 Z M 53.9375 72.597656 "/></g><g clip-rule="nonzero" clip-path="url(#fdf0864ec5)"><path style=" stroke:none;fill-rule:nonzero;fill:#faf3ff;fill-opacity:1;" d="M 64.035156 59.324219 L 64.035156 76.113281 L 52.449219 76.113281 L 52.449219 59.324219 Z M 64.035156 59.324219 "/></g><g clip-rule="nonzero" clip-path="url(#5df93801b4)"><path style=" stroke:none;fill-rule:nonzero;fill:#faf3ff;fill-opacity:1;" d="M 61.195312 75.640625 L 61.195312 77.457031 L 55.035156 77.457031 L 55.035156 75.640625 Z M 61.195312 75.640625 "/></g><g clip-rule="nonzero" clip-path="url(#88f7f6263d)"><path style=" stroke:none;fill-rule:nonzero;fill:#faf3ff;fill-opacity:1;" d="M 59.753906 77.085938 L 59.753906 78.898438 L 56.507812 78.898438 L 56.507812 77.085938 Z M 59.753906 77.085938 "/></g><g clip-rule="nonzero" clip-path="url(#59d2f4c3fd)"><path style=" stroke:none;fill-rule:nonzero;fill:#faf3ff;fill-opacity:1;" d="M 68.707031 72.597656 L 68.707031 74.414062 L 62.617188 74.414062 L 62.617188 72.597656 Z M 68.707031 72.597656 "/></g><g clip-rule="nonzero" clip-path="url(#6acc9c94e0)"><path style=" stroke:none;fill-rule:nonzero;fill:#faf3ff;fill-opacity:1;" d="M 72.808594 57.464844 L 72.808594 73.023438 L 66.71875 73.023438 L 66.71875 57.464844 Z M 72.808594 57.464844 "/></g><g clip-rule="nonzero" clip-path="url(#f05be7a7ff)"><path style=" stroke:none;fill-rule:nonzero;fill:#faf3ff;fill-opacity:1;" d="M 52.527344 53.507812 L 52.527344 61.914062 L 45.28125 61.914062 L 45.28125 53.507812 Z M 52.527344 53.507812 "/></g><g clip-rule="nonzero" clip-path="url(#993e795d19)"><path style=" stroke:none;fill-rule:nonzero;fill:#faf3ff;fill-opacity:1;" d="M 55.867188 56.367188 L 55.867188 74.28125 L 48.574219 74.28125 L 48.574219 56.367188 Z M 55.867188 56.367188 "/></g><g clip-rule="nonzero" clip-path="url(#40608d1845)"><path style=" stroke:none;fill-rule:nonzero;fill:#faf3ff;fill-opacity:1;" d="M 59.753906 59.324219 L 59.753906 74.859375 L 55.867188 74.859375 L 55.867188 59.324219 Z M 59.753906 59.324219 "/></g><g clip-rule="nonzero" clip-path="url(#bfe0b6e96c)"><path style=" stroke:none;fill-rule:nonzero;fill:#faf3ff;fill-opacity:1;" d="M 67 56.367188 L 67 74.28125 L 59.753906 74.28125 L 59.753906 56.367188 Z M 67 56.367188 "/></g><g clip-rule="nonzero" clip-path="url(#39e7621515)"><path style=" stroke:none;fill-rule:nonzero;fill:#faf3ff;fill-opacity:1;" d="M 71.597656 53.507812 L 71.597656 61.820312 L 64.96875 61.820312 L 64.96875 53.507812 Z M 71.597656 53.507812 "/></g><g clip-rule="nonzero" clip-path="url(#be1625735c)"><path style=" stroke:none;fill-rule:nonzero;fill:#134b9a;fill-opacity:1;" d="M 52.320312 64.527344 L 52.320312 67.507812 L 49.460938 67.507812 L 49.460938 64.527344 Z M 52.320312 64.527344 "/></g><g clip-rule="nonzero" clip-path="url(#9c4e0e6385)"><path style=" stroke:none;fill-rule:nonzero;fill:#134b9a;fill-opacity:1;" d="M 53.808594 66.3125 L 53.808594 69.089844 L 50.953125 69.089844 L 50.953125 66.3125 Z M 53.808594 66.3125 "/></g><g clip-rule="nonzero" clip-path="url(#9469cbd434)"><path style=" stroke:none;fill-rule:nonzero;fill:#134b9a;fill-opacity:1;" d="M 55.363281 67.703125 L 55.363281 70.628906 L 52.527344 70.628906 L 52.527344 67.703125 Z M 55.363281 67.703125 "/></g><g clip-rule="nonzero" clip-path="url(#06d766731d)"><path style=" stroke:none;fill-rule:nonzero;fill:#134b9a;fill-opacity:1;" d="M 58.226562 69.203125 L 58.226562 72.011719 L 54.035156 72.011719 L 54.035156 69.203125 Z M 58.226562 69.203125 "/></g><g clip-rule="nonzero" clip-path="url(#2edb0c39cc)"><path style=" stroke:none;fill-rule:nonzero;fill:#134b9a;fill-opacity:1;" d="M 56.988281 71.957031 L 56.988281 73.394531 L 55.421875 73.394531 L 55.421875 71.957031 Z M 56.988281 71.957031 "/></g><g clip-rule="nonzero" clip-path="url(#952fafb374)"><path style=" stroke:none;fill-rule:nonzero;fill:#134b9a;fill-opacity:1;" d="M 59.753906 67.742188 L 59.753906 70.667969 L 56.917969 70.667969 L 56.917969 67.742188 Z M 59.753906 67.742188 "/></g><g clip-rule="nonzero" clip-path="url(#1929321490)"><path style=" stroke:none;fill-rule:nonzero;fill:#134b9a;fill-opacity:1;" d="M 61.3125 66.3125 L 61.3125 69.089844 L 58.460938 69.089844 L 58.460938 66.3125 Z M 61.3125 66.3125 "/></g><g clip-rule="nonzero" clip-path="url(#86d0394eac)"><path style=" stroke:none;fill-rule:nonzero;fill:#134b9a;fill-opacity:1;" d="M 62.738281 64.628906 L 62.738281 67.632812 L 59.882812 67.632812 L 59.882812 64.628906 Z M 62.738281 64.628906 "/></g><g clip-rule="nonzero" clip-path="url(#bdaec603c5)"><path style=" stroke:none;fill-rule:nonzero;fill:#134b9a;fill-opacity:1;" d="M 64.160156 63.164062 L 64.160156 66.132812 L 61.304688 66.132812 L 61.304688 63.164062 Z M 64.160156 63.164062 "/></g><g clip-rule="nonzero" clip-path="url(#8ae3878fb5)"><path style=" stroke:none;fill-rule:nonzero;fill:#134b9a;fill-opacity:1;" d="M 65.558594 61.675781 L 65.558594 64.761719 L 62.90625 64.761719 L 62.90625 61.675781 Z M 65.558594 61.675781 "/></g><g clip-rule="nonzero" clip-path="url(#222daa8f75)"><path style=" stroke:none;fill-rule:nonzero;fill:#134b9a;fill-opacity:1;" d="M 67 60.265625 L 67 63.351562 L 64.351562 63.351562 L 64.351562 60.265625 Z M 67 60.265625 "/></g><g clip-rule="nonzero" clip-path="url(#9214697ea4)"><path style=" stroke:none;fill-rule:nonzero;fill:#faf3ff;fill-opacity:1;" d="M 59.777344 50.925781 L 62.296875 50.925781 L 62.296875 53.445312 L 59.777344 53.445312 Z M 59.777344 50.925781 "/></g><g clip-rule="nonzero" clip-path="url(#58357894d6)"><path style=" stroke:none;fill-rule:nonzero;fill:#faf3ff;fill-opacity:1;" d="M 54.535156 46.070312 L 57.054688 46.070312 L 57.054688 48.589844 L 54.535156 48.589844 Z M 54.535156 46.070312 "/></g><g clip-rule="nonzero" clip-path="url(#c390562240)"><path style=" stroke:none;fill-rule:nonzero;fill:#faf3ff;fill-opacity:1;" d="M 59.777344 41.125 L 62.296875 41.125 L 62.296875 43.644531 L 59.777344 43.644531 Z M 59.777344 41.125 "/></g><g style="fill:#faf3ff;fill-opacity:1;"><g transform="translate(106.509035, 76.809194)"><path style="stroke:none" d="M 10.265625 -5.8125 L 20.125 -5.8125 L 20.125 0 L 2.734375 0 L 2.734375 -30.90625 L 10.265625 -30.90625 Z M 10.265625 -5.8125 "/></g></g><g style="fill:#faf3ff;fill-opacity:1;"><g transform="translate(127.504468, 76.809194)"><path style="stroke:none" d="M 25.890625 -12.6875 C 25.890625 -11.976562 25.847656 -11.242188 25.765625 -10.484375 L 8.71875 -10.484375 C 8.832031 -8.953125 9.320312 -7.78125 10.1875 -6.96875 C 11.050781 -6.164062 12.117188 -5.765625 13.390625 -5.765625 C 15.265625 -5.765625 16.566406 -6.554688 17.296875 -8.140625 L 25.3125 -8.140625 C 24.90625 -6.523438 24.164062 -5.070312 23.09375 -3.78125 C 22.019531 -2.488281 20.675781 -1.472656 19.0625 -0.734375 C 17.445312 -0.00390625 15.644531 0.359375 13.65625 0.359375 C 11.25 0.359375 9.101562 -0.15625 7.21875 -1.1875 C 5.34375 -2.21875 3.875 -3.6875 2.8125 -5.59375 C 1.757812 -7.5 1.234375 -9.726562 1.234375 -12.28125 C 1.234375 -14.832031 1.753906 -17.0625 2.796875 -18.96875 C 3.835938 -20.882812 5.296875 -22.351562 7.171875 -23.375 C 9.054688 -24.40625 11.21875 -24.921875 13.65625 -24.921875 C 16.03125 -24.921875 18.140625 -24.421875 19.984375 -23.421875 C 21.835938 -22.421875 23.285156 -20.992188 24.328125 -19.140625 C 25.367188 -17.296875 25.890625 -15.144531 25.890625 -12.6875 Z M 18.1875 -14.65625 C 18.1875 -15.945312 17.742188 -16.972656 16.859375 -17.734375 C 15.984375 -18.503906 14.882812 -18.890625 13.5625 -18.890625 C 12.300781 -18.890625 11.238281 -18.519531 10.375 -17.78125 C 9.507812 -17.050781 8.972656 -16.007812 8.765625 -14.65625 Z M 18.1875 -14.65625 "/></g></g><g style="fill:#faf3ff;fill-opacity:1;"><g transform="translate(154.618071, 76.809194)"><path style="stroke:none" d="M 13.78125 -7.046875 L 19.109375 -24.5625 L 27.125 -24.5625 L 18.40625 0 L 9.109375 0 L 0.390625 -24.5625 L 8.453125 -24.5625 Z M 13.78125 -7.046875 "/></g></g><g style="fill:#faf3ff;fill-opacity:1;"><g transform="translate(182.171826, 76.809194)"><path style="stroke:none" d="M 25.890625 -12.6875 C 25.890625 -11.976562 25.847656 -11.242188 25.765625 -10.484375 L 8.71875 -10.484375 C 8.832031 -8.953125 9.320312 -7.78125 10.1875 -6.96875 C 11.050781 -6.164062 12.117188 -5.765625 13.390625 -5.765625 C 15.265625 -5.765625 16.566406 -6.554688 17.296875 -8.140625 L 25.3125 -8.140625 C 24.90625 -6.523438 24.164062 -5.070312 23.09375 -3.78125 C 22.019531 -2.488281 20.675781 -1.472656 19.0625 -0.734375 C 17.445312 -0.00390625 15.644531 0.359375 13.65625 0.359375 C 11.25 0.359375 9.101562 -0.15625 7.21875 -1.1875 C 5.34375 -2.21875 3.875 -3.6875 2.8125 -5.59375 C 1.757812 -7.5 1.234375 -9.726562 1.234375 -12.28125 C 1.234375 -14.832031 1.753906 -17.0625 2.796875 -18.96875 C 3.835938 -20.882812 5.296875 -22.351562 7.171875 -23.375 C 9.054688 -24.40625 11.21875 -24.921875 13.65625 -24.921875 C 16.03125 -24.921875 18.140625 -24.421875 19.984375 -23.421875 C 21.835938 -22.421875 23.285156 -20.992188 24.328125 -19.140625 C 25.367188 -17.296875 25.890625 -15.144531 25.890625 -12.6875 Z M 18.1875 -14.65625 C 18.1875 -15.945312 17.742188 -16.972656 16.859375 -17.734375 C 15.984375 -18.503906 14.882812 -18.890625 13.5625 -18.890625 C 12.300781 -18.890625 11.238281 -18.519531 10.375 -17.78125 C 9.507812 -17.050781 8.972656 -16.007812 8.765625 -14.65625 Z M 18.1875 -14.65625 "/></g></g><g style="fill:#faf3ff;fill-opacity:1;"><g transform="translate(209.28543, 76.809194)"><path style="stroke:none" d="M 10.265625 -32.578125 L 10.265625 0 L 2.734375 0 L 2.734375 -32.578125 Z M 10.265625 -32.578125 "/></g></g><g style="fill:#faf3ff;fill-opacity:1;"><g transform="translate(222.270021, 76.809194)"><path style="stroke:none" d="M 10.265625 -5.8125 L 20.125 -5.8125 L 20.125 0 L 2.734375 0 L 2.734375 -30.90625 L 10.265625 -30.90625 Z M 10.265625 -5.8125 "/></g></g><g style="fill:#faf3ff;fill-opacity:1;"><g transform="translate(243.265454, 76.809194)"><path style="stroke:none" d="M 25.890625 -12.6875 C 25.890625 -11.976562 25.847656 -11.242188 25.765625 -10.484375 L 8.71875 -10.484375 C 8.832031 -8.953125 9.320312 -7.78125 10.1875 -6.96875 C 11.050781 -6.164062 12.117188 -5.765625 13.390625 -5.765625 C 15.265625 -5.765625 16.566406 -6.554688 17.296875 -8.140625 L 25.3125 -8.140625 C 24.90625 -6.523438 24.164062 -5.070312 23.09375 -3.78125 C 22.019531 -2.488281 20.675781 -1.472656 19.0625 -0.734375 C 17.445312 -0.00390625 15.644531 0.359375 13.65625 0.359375 C 11.25 0.359375 9.101562 -0.15625 7.21875 -1.1875 C 5.34375 -2.21875 3.875 -3.6875 2.8125 -5.59375 C 1.757812 -7.5 1.234375 -9.726562 1.234375 -12.28125 C 1.234375 -14.832031 1.753906 -17.0625 2.796875 -18.96875 C 3.835938 -20.882812 5.296875 -22.351562 7.171875 -23.375 C 9.054688 -24.40625 11.21875 -24.921875 13.65625 -24.921875 C 16.03125 -24.921875 18.140625 -24.421875 19.984375 -23.421875 C 21.835938 -22.421875 23.285156 -20.992188 24.328125 -19.140625 C 25.367188 -17.296875 25.890625 -15.144531 25.890625 -12.6875 Z M 18.1875 -14.65625 C 18.1875 -15.945312 17.742188 -16.972656 16.859375 -17.734375 C 15.984375 -18.503906 14.882812 -18.890625 13.5625 -18.890625 C 12.300781 -18.890625 11.238281 -18.519531 10.375 -17.78125 C 9.507812 -17.050781 8.972656 -16.007812 8.765625 -14.65625 Z M 18.1875 -14.65625 "/></g></g><g style="fill:#faf3ff;fill-opacity:1;"><g transform="translate(270.379058, 76.809194)"><path style="stroke:none" d="M 1.234375 -12.328125 C 1.234375 -14.847656 1.707031 -17.0625 2.65625 -18.96875 C 3.613281 -20.882812 4.914062 -22.351562 6.5625 -23.375 C 8.207031 -24.40625 10.039062 -24.921875 12.0625 -24.921875 C 13.789062 -24.921875 15.304688 -24.566406 16.609375 -23.859375 C 17.921875 -23.160156 18.929688 -22.238281 19.640625 -21.09375 L 19.640625 -24.5625 L 27.171875 -24.5625 L 27.171875 0 L 19.640625 0 L 19.640625 -3.484375 C 18.898438 -2.335938 17.878906 -1.410156 16.578125 -0.703125 C 15.273438 0.00390625 13.753906 0.359375 12.015625 0.359375 C 10.023438 0.359375 8.207031 -0.160156 6.5625 -1.203125 C 4.914062 -2.253906 3.613281 -3.738281 2.65625 -5.65625 C 1.707031 -7.582031 1.234375 -9.804688 1.234375 -12.328125 Z M 19.640625 -12.28125 C 19.640625 -14.164062 19.117188 -15.648438 18.078125 -16.734375 C 17.035156 -17.816406 15.765625 -18.359375 14.265625 -18.359375 C 12.765625 -18.359375 11.492188 -17.820312 10.453125 -16.75 C 9.410156 -15.675781 8.890625 -14.203125 8.890625 -12.328125 C 8.890625 -10.453125 9.410156 -8.960938 10.453125 -7.859375 C 11.492188 -6.753906 12.765625 -6.203125 14.265625 -6.203125 C 15.765625 -6.203125 17.035156 -6.742188 18.078125 -7.828125 C 19.117188 -8.921875 19.640625 -10.40625 19.640625 -12.28125 Z M 19.640625 -12.28125 "/></g></g><g style="fill:#faf3ff;fill-opacity:1;"><g transform="translate(300.265645, 76.809194)"><path style="stroke:none" d="M 10.265625 -20.46875 C 11.140625 -21.820312 12.238281 -22.882812 13.5625 -23.65625 C 14.882812 -24.4375 16.351562 -24.828125 17.96875 -24.828125 L 17.96875 -16.859375 L 15.890625 -16.859375 C 14.015625 -16.859375 12.609375 -16.453125 11.671875 -15.640625 C 10.734375 -14.835938 10.265625 -13.425781 10.265625 -11.40625 L 10.265625 0 L 2.734375 0 L 2.734375 -24.5625 L 10.265625 -24.5625 Z M 10.265625 -20.46875 "/></g></g><g style="fill:#faf3ff;fill-opacity:1;"><g transform="translate(319.104312, 76.809194)"><path style="stroke:none" d="M 17.703125 -24.828125 C 20.578125 -24.828125 22.875 -23.894531 24.59375 -22.03125 C 26.3125 -20.164062 27.171875 -17.609375 27.171875 -14.359375 L 27.171875 0 L 19.6875 0 L 19.6875 -13.34375 C 19.6875 -14.988281 19.257812 -16.265625 18.40625 -17.171875 C 17.550781 -18.078125 16.40625 -18.53125 14.96875 -18.53125 C 13.53125 -18.53125 12.382812 -18.078125 11.53125 -17.171875 C 10.6875 -16.265625 10.265625 -14.988281 10.265625 -13.34375 L 10.265625 0 L 2.734375 0 L 2.734375 -24.5625 L 10.265625 -24.5625 L 10.265625 -21.3125 C 11.023438 -22.394531 12.050781 -23.25 13.34375 -23.875 C 14.632812 -24.507812 16.085938 -24.828125 17.703125 -24.828125 Z M 17.703125 -24.828125 "/></g></g><g clip-rule="nonzero" clip-path="url(#56a41dc341)"><path style=" stroke:none;fill-rule:nonzero;fill:#1553ad;fill-opacity:1;" d="M 155.347656 215.835938 L 155.347656 155.351562 L 159.164062 155.351562 L 159.164062 215.835938 Z M 155.347656 215.835938 "/></g><g clip-rule="nonzero" clip-path="url(#d502f722bd)"><path style=" stroke:none;fill-rule:nonzero;fill:#1553ad;fill-opacity:1;" d="M 159.164062 219.652344 L 159.164062 159.167969 L 162.980469 159.167969 L 162.980469 219.652344 Z M 159.164062 219.652344 "/></g><g clip-rule="nonzero" clip-path="url(#e5a4456a33)"><path style=" stroke:none;fill-rule:nonzero;fill:#1553ad;fill-opacity:1;" d="M 159.164062 215.835938 L 196.101562 215.835938 L 196.101562 219.652344 L 159.164062 219.652344 Z M 159.164062 215.835938 "/></g><g clip-rule="nonzero" clip-path="url(#cb6c6beab5)"><path style=" stroke:none;fill-rule:nonzero;fill:#1553ad;fill-opacity:1;" d="M 159.164062 212.019531 L 192.285156 212.019531 L 192.285156 215.835938 L 159.164062 215.835938 Z M 159.164062 212.019531 "/></g><g clip-rule="nonzero" clip-path="url(#7343ea9888)"><path style=" stroke:none;fill-rule:nonzero;fill:#faf3ff;fill-opacity:1;" d="M 219.652344 159.164062 L 219.652344 219.648438 L 215.835938 219.648438 L 215.835938 159.164062 Z M 219.652344 159.164062 "/></g><g clip-rule="nonzero" clip-path="url(#aec9aa92b4)"><path style=" stroke:none;fill-rule:nonzero;fill:#faf3ff;fill-opacity:1;" d="M 215.835938 155.34375 L 215.835938 215.828125 L 212.019531 215.828125 L 212.019531 155.34375 Z M 215.835938 155.34375 "/></g><g clip-rule="nonzero" clip-path="url(#efd8c59e97)"><path style=" stroke:none;fill-rule:nonzero;fill:#faf3ff;fill-opacity:1;" d="M 215.835938 159.160156 L 178.898438 159.160156 L 178.898438 155.34375 L 215.835938 155.34375 Z M 215.835938 159.160156 "/></g><g clip-rule="nonzero" clip-path="url(#035d5df19c)"><path style=" stroke:none;fill-rule:nonzero;fill:#faf3ff;fill-opacity:1;" d="M 215.835938 162.980469 L 182.714844 162.980469 L 182.714844 159.160156 L 215.835938 159.160156 Z M 215.835938 162.980469 "/></g><g clip-rule="nonzero" clip-path="url(#915413f545)"><path style=" stroke:none;fill-rule:nonzero;fill:#1553ad;fill-opacity:1;" d="M 157.253906 215.835938 L 157.253906 159.167969 L 161.074219 159.167969 L 161.074219 215.835938 Z M 157.253906 215.835938 "/></g><g clip-rule="nonzero" clip-path="url(#a19b6d6595)"><path style=" stroke:none;fill-rule:nonzero;fill:#1553ad;fill-opacity:1;" d="M 159.164062 213.929688 L 192.285156 213.929688 L 192.285156 217.746094 L 159.164062 217.746094 Z M 159.164062 213.929688 "/></g><g clip-rule="nonzero" clip-path="url(#9e4386cb2e)"><path style=" stroke:none;fill-rule:nonzero;fill:#faf3ff;fill-opacity:1;" d="M 217.742188 159.164062 L 217.742188 215.828125 L 213.925781 215.828125 L 213.925781 159.164062 Z M 217.742188 159.164062 "/></g><g clip-rule="nonzero" clip-path="url(#b0da5e6659)"><path style=" stroke:none;fill-rule:nonzero;fill:#faf3ff;fill-opacity:1;" d="M 215.835938 161.070312 L 182.714844 161.070312 L 182.714844 157.253906 L 215.835938 157.253906 Z M 215.835938 161.070312 "/></g><g clip-rule="nonzero" clip-path="url(#7e603df249)"><path style=" stroke:none;fill-rule:nonzero;fill:#1350a7;fill-opacity:1;" d="M 169.859375 182.222656 L 171.890625 182.222656 L 171.890625 201.960938 L 169.859375 201.960938 Z M 169.859375 182.222656 "/></g><g clip-rule="nonzero" clip-path="url(#7ce172d803)"><path style=" stroke:none;fill-rule:nonzero;fill:#1350a7;fill-opacity:1;" d="M 175.949219 200.140625 L 175.949219 201.957031 L 169.855469 201.957031 L 169.855469 200.140625 Z M 175.949219 200.140625 "/></g><g clip-rule="nonzero" clip-path="url(#fc0a694e6b)"><path style=" stroke:none;fill-rule:nonzero;fill:#1350a7;fill-opacity:1;" d="M 180.476562 201.808594 L 180.476562 203.625 L 173.375 203.625 L 173.375 201.808594 Z M 180.476562 201.808594 "/></g><g clip-rule="nonzero" clip-path="url(#874784a8ad)"><path style=" stroke:none;fill-rule:nonzero;fill:#1350a7;fill-opacity:1;" d="M 183.097656 203.476562 L 183.097656 205.292969 L 178.804688 205.292969 L 178.804688 203.476562 Z M 183.097656 203.476562 "/></g><g clip-rule="nonzero" clip-path="url(#5e39dca103)"><path style=" stroke:none;fill-rule:nonzero;fill:#1350a7;fill-opacity:1;" d="M 184.519531 204.902344 L 184.519531 206.714844 L 181.449219 206.714844 L 181.449219 204.902344 Z M 184.519531 204.902344 "/></g><g clip-rule="nonzero" clip-path="url(#6062ff24b3)"><path style=" stroke:none;fill-rule:nonzero;fill:#1350a7;fill-opacity:1;" d="M 191.199219 206.511719 L 191.199219 208.082031 L 183.722656 208.082031 L 183.722656 206.511719 Z M 191.199219 206.511719 "/></g><g clip-rule="nonzero" clip-path="url(#1e487ba90a)"><path style=" stroke:none;fill-rule:nonzero;fill:#1350a7;fill-opacity:1;" d="M 193.128906 204.902344 L 193.128906 206.714844 L 190.058594 206.714844 L 190.058594 204.902344 Z M 193.128906 204.902344 "/></g><g clip-rule="nonzero" clip-path="url(#83e4dbd4f0)"><path style=" stroke:none;fill-rule:nonzero;fill:#1350a7;fill-opacity:1;" d="M 195.886719 203.476562 L 195.886719 205.292969 L 191.597656 205.292969 L 191.597656 203.476562 Z M 195.886719 203.476562 "/></g><g clip-rule="nonzero" clip-path="url(#0f0fb24cb3)"><path style=" stroke:none;fill-rule:nonzero;fill:#1350a7;fill-opacity:1;" d="M 201.425781 201.808594 L 201.425781 203.625 L 194.328125 203.625 L 194.328125 201.808594 Z M 201.425781 201.808594 "/></g><g clip-rule="nonzero" clip-path="url(#d748fa303f)"><path style=" stroke:none;fill-rule:nonzero;fill:#1350a7;fill-opacity:1;" d="M 205.140625 200.140625 L 205.140625 201.957031 L 199.050781 201.957031 L 199.050781 200.140625 Z M 205.140625 200.140625 "/></g><g clip-rule="nonzero" clip-path="url(#687f50afe5)"><path style=" stroke:none;fill-rule:nonzero;fill:#1350a7;fill-opacity:1;" d="M 203.109375 182.222656 L 205.140625 182.222656 L 205.140625 201.960938 L 203.109375 201.960938 Z M 203.109375 182.222656 "/></g><g clip-rule="nonzero" clip-path="url(#a871979b48)"><path style=" stroke:none;fill-rule:nonzero;fill:#faf3ff;fill-opacity:1;" d="M 179.054688 183.253906 L 179.054688 198.8125 L 172.964844 198.8125 L 172.964844 183.253906 Z M 179.054688 183.253906 "/></g><g clip-rule="nonzero" clip-path="url(#3272346e4f)"><path style=" stroke:none;fill-rule:nonzero;fill:#faf3ff;fill-opacity:1;" d="M 183.109375 198.386719 L 183.109375 200.203125 L 177.015625 200.203125 L 177.015625 198.386719 Z M 183.109375 198.386719 "/></g><g clip-rule="nonzero" clip-path="url(#7dd4c8bbb3)"><path style=" stroke:none;fill-rule:nonzero;fill:#faf3ff;fill-opacity:1;" d="M 193.203125 185.113281 L 193.203125 201.902344 L 181.621094 201.902344 L 181.621094 185.113281 Z M 193.203125 185.113281 "/></g><g clip-rule="nonzero" clip-path="url(#dfa0d88112)"><path style=" stroke:none;fill-rule:nonzero;fill:#faf3ff;fill-opacity:1;" d="M 190.367188 201.429688 L 190.367188 203.246094 L 184.203125 203.246094 L 184.203125 201.429688 Z M 190.367188 201.429688 "/></g><g clip-rule="nonzero" clip-path="url(#a08cfbd842)"><path style=" stroke:none;fill-rule:nonzero;fill:#faf3ff;fill-opacity:1;" d="M 188.921875 202.875 L 188.921875 204.691406 L 185.675781 204.691406 L 185.675781 202.875 Z M 188.921875 202.875 "/></g><g clip-rule="nonzero" clip-path="url(#24a6276fab)"><path style=" stroke:none;fill-rule:nonzero;fill:#faf3ff;fill-opacity:1;" d="M 197.875 198.386719 L 197.875 200.203125 L 191.785156 200.203125 L 191.785156 198.386719 Z M 197.875 198.386719 "/></g><g clip-rule="nonzero" clip-path="url(#5c61a1bdd6)"><path style=" stroke:none;fill-rule:nonzero;fill:#faf3ff;fill-opacity:1;" d="M 201.976562 183.253906 L 201.976562 198.8125 L 195.886719 198.8125 L 195.886719 183.253906 Z M 201.976562 183.253906 "/></g><g clip-rule="nonzero" clip-path="url(#f6e9f7721c)"><path style=" stroke:none;fill-rule:nonzero;fill:#faf3ff;fill-opacity:1;" d="M 181.695312 179.300781 L 181.695312 187.703125 L 174.449219 187.703125 L 174.449219 179.300781 Z M 181.695312 179.300781 "/></g><g clip-rule="nonzero" clip-path="url(#80114064c1)"><path style=" stroke:none;fill-rule:nonzero;fill:#faf3ff;fill-opacity:1;" d="M 185.035156 182.15625 L 185.035156 200.070312 L 177.746094 200.070312 L 177.746094 182.15625 Z M 185.035156 182.15625 "/></g><g clip-rule="nonzero" clip-path="url(#553801fa24)"><path style=" stroke:none;fill-rule:nonzero;fill:#faf3ff;fill-opacity:1;" d="M 188.925781 185.113281 L 188.925781 200.648438 L 185.035156 200.648438 L 185.035156 185.113281 Z M 188.925781 185.113281 "/></g><g clip-rule="nonzero" clip-path="url(#11edd1f853)"><path style=" stroke:none;fill-rule:nonzero;fill:#faf3ff;fill-opacity:1;" d="M 196.167969 182.15625 L 196.167969 200.070312 L 188.921875 200.070312 L 188.921875 182.15625 Z M 196.167969 182.15625 "/></g><g clip-rule="nonzero" clip-path="url(#34afb73766)"><path style=" stroke:none;fill-rule:nonzero;fill:#faf3ff;fill-opacity:1;" d="M 200.765625 179.296875 L 200.765625 187.609375 L 194.140625 187.609375 L 194.140625 179.296875 Z M 200.765625 179.296875 "/></g><g clip-rule="nonzero" clip-path="url(#e5a00312a3)"><path style=" stroke:none;fill-rule:nonzero;fill:#134b9a;fill-opacity:1;" d="M 181.488281 190.316406 L 181.488281 193.296875 L 178.628906 193.296875 L 178.628906 190.316406 Z M 181.488281 190.316406 "/></g><g clip-rule="nonzero" clip-path="url(#a3123430fb)"><path style=" stroke:none;fill-rule:nonzero;fill:#134b9a;fill-opacity:1;" d="M 182.976562 192.101562 L 182.976562 194.878906 L 180.125 194.878906 L 180.125 192.101562 Z M 182.976562 192.101562 "/></g><g clip-rule="nonzero" clip-path="url(#c85543a481)"><path style=" stroke:none;fill-rule:nonzero;fill:#134b9a;fill-opacity:1;" d="M 184.53125 193.492188 L 184.53125 196.417969 L 181.695312 196.417969 L 181.695312 193.492188 Z M 184.53125 193.492188 "/></g><g clip-rule="nonzero" clip-path="url(#cab7848fff)"><path style=" stroke:none;fill-rule:nonzero;fill:#134b9a;fill-opacity:1;" d="M 187.394531 194.996094 L 187.394531 197.800781 L 183.203125 197.800781 L 183.203125 194.996094 Z M 187.394531 194.996094 "/></g><g clip-rule="nonzero" clip-path="url(#24707b2515)"><path style=" stroke:none;fill-rule:nonzero;fill:#134b9a;fill-opacity:1;" d="M 186.15625 197.746094 L 186.15625 199.183594 L 184.589844 199.183594 L 184.589844 197.746094 Z M 186.15625 197.746094 "/></g><g clip-rule="nonzero" clip-path="url(#29f4f1531a)"><path style=" stroke:none;fill-rule:nonzero;fill:#134b9a;fill-opacity:1;" d="M 188.921875 193.53125 L 188.921875 196.457031 L 186.085938 196.457031 L 186.085938 193.53125 Z M 188.921875 193.53125 "/></g><g clip-rule="nonzero" clip-path="url(#f65ac06e6e)"><path style=" stroke:none;fill-rule:nonzero;fill:#134b9a;fill-opacity:1;" d="M 190.480469 192.101562 L 190.480469 194.878906 L 187.628906 194.878906 L 187.628906 192.101562 Z M 190.480469 192.101562 "/></g><g clip-rule="nonzero" clip-path="url(#44285f56ca)"><path style=" stroke:none;fill-rule:nonzero;fill:#134b9a;fill-opacity:1;" d="M 191.910156 190.417969 L 191.910156 193.421875 L 189.050781 193.421875 L 189.050781 190.417969 Z M 191.910156 190.417969 "/></g><g clip-rule="nonzero" clip-path="url(#d36339cc05)"><path style=" stroke:none;fill-rule:nonzero;fill:#134b9a;fill-opacity:1;" d="M 193.328125 188.953125 L 193.328125 191.921875 L 190.472656 191.921875 L 190.472656 188.953125 Z M 193.328125 188.953125 "/></g><g clip-rule="nonzero" clip-path="url(#408530d46c)"><path style=" stroke:none;fill-rule:nonzero;fill:#134b9a;fill-opacity:1;" d="M 194.726562 187.464844 L 194.726562 190.550781 L 192.074219 190.550781 L 192.074219 187.464844 Z M 194.726562 187.464844 "/></g><g clip-rule="nonzero" clip-path="url(#0e9c96fe4a)"><path style=" stroke:none;fill-rule:nonzero;fill:#134b9a;fill-opacity:1;" d="M 196.167969 186.054688 L 196.167969 189.140625 L 193.519531 189.140625 L 193.519531 186.054688 Z M 196.167969 186.054688 "/></g><g clip-rule="nonzero" clip-path="url(#29bcfe6bae)"><path style=" stroke:none;fill-rule:nonzero;fill:#faf3ff;fill-opacity:1;" d="M 188.945312 176.714844 L 191.464844 176.714844 L 191.464844 179.234375 L 188.945312 179.234375 Z M 188.945312 176.714844 "/></g><g clip-rule="nonzero" clip-path="url(#378fb2b893)"><path style=" stroke:none;fill-rule:nonzero;fill:#faf3ff;fill-opacity:1;" d="M 183.703125 171.863281 L 186.222656 171.863281 L 186.222656 174.378906 L 183.703125 174.378906 Z M 183.703125 171.863281 "/></g><g clip-rule="nonzero" clip-path="url(#197c34e5f2)"><path style=" stroke:none;fill-rule:nonzero;fill:#faf3ff;fill-opacity:1;" d="M 188.945312 166.914062 L 191.464844 166.914062 L 191.464844 169.433594 L 188.945312 169.433594 Z M 188.945312 166.914062 "/></g><g clip-rule="nonzero" clip-path="url(#91928b3d67)"><path style=" stroke:none;fill-rule:nonzero;fill:#1553ad;fill-opacity:1;" d="M 284.515625 341.363281 L 284.515625 280.878906 L 288.332031 280.878906 L 288.332031 341.363281 Z M 284.515625 341.363281 "/></g><g clip-rule="nonzero" clip-path="url(#5f2b89bdfb)"><path style=" stroke:none;fill-rule:nonzero;fill:#1553ad;fill-opacity:1;" d="M 288.332031 345.183594 L 288.332031 284.699219 L 292.148438 284.699219 L 292.148438 345.183594 Z M 288.332031 345.183594 "/></g><g clip-rule="nonzero" clip-path="url(#c546f57e79)"><path style=" stroke:none;fill-rule:nonzero;fill:#1553ad;fill-opacity:1;" d="M 288.332031 341.367188 L 325.269531 341.367188 L 325.269531 345.183594 L 288.332031 345.183594 Z M 288.332031 341.367188 "/></g><g clip-rule="nonzero" clip-path="url(#84bec03bfc)"><path style=" stroke:none;fill-rule:nonzero;fill:#1553ad;fill-opacity:1;" d="M 288.332031 337.546875 L 321.453125 337.546875 L 321.453125 341.367188 L 288.332031 341.367188 Z M 288.332031 337.546875 "/></g><g clip-rule="nonzero" clip-path="url(#9e33adae90)"><path style=" stroke:none;fill-rule:nonzero;fill:#faf3ff;fill-opacity:1;" d="M 348.820312 284.691406 L 348.820312 345.175781 L 345.003906 345.175781 L 345.003906 284.691406 Z M 348.820312 284.691406 "/></g><g clip-rule="nonzero" clip-path="url(#2480cfdb73)"><path style=" stroke:none;fill-rule:nonzero;fill:#faf3ff;fill-opacity:1;" d="M 345.003906 280.875 L 345.003906 341.359375 L 341.1875 341.359375 L 341.1875 280.875 Z M 345.003906 280.875 "/></g><g clip-rule="nonzero" clip-path="url(#a9b12f8982)"><path style=" stroke:none;fill-rule:nonzero;fill:#faf3ff;fill-opacity:1;" d="M 345.003906 284.691406 L 308.066406 284.691406 L 308.066406 280.875 L 345.003906 280.875 Z M 345.003906 284.691406 "/></g><g clip-rule="nonzero" clip-path="url(#0a1e837696)"><path style=" stroke:none;fill-rule:nonzero;fill:#faf3ff;fill-opacity:1;" d="M 345.003906 288.507812 L 311.882812 288.507812 L 311.882812 284.691406 L 345.003906 284.691406 Z M 345.003906 288.507812 "/></g><g clip-rule="nonzero" clip-path="url(#04401ccf33)"><path style=" stroke:none;fill-rule:nonzero;fill:#1553ad;fill-opacity:1;" d="M 286.421875 341.363281 L 286.421875 284.699219 L 290.242188 284.699219 L 290.242188 341.363281 Z M 286.421875 341.363281 "/></g><g clip-rule="nonzero" clip-path="url(#7d581e7636)"><path style=" stroke:none;fill-rule:nonzero;fill:#1553ad;fill-opacity:1;" d="M 288.332031 339.457031 L 321.453125 339.457031 L 321.453125 343.273438 L 288.332031 343.273438 Z M 288.332031 339.457031 "/></g><g clip-rule="nonzero" clip-path="url(#7b70b3a7b8)"><path style=" stroke:none;fill-rule:nonzero;fill:#faf3ff;fill-opacity:1;" d="M 346.914062 284.691406 L 346.914062 341.359375 L 343.09375 341.359375 L 343.09375 284.691406 Z M 346.914062 284.691406 "/></g><g clip-rule="nonzero" clip-path="url(#8d6a46dd22)"><path style=" stroke:none;fill-rule:nonzero;fill:#faf3ff;fill-opacity:1;" d="M 345.003906 286.597656 L 311.882812 286.597656 L 311.882812 282.78125 L 345.003906 282.78125 Z M 345.003906 286.597656 "/></g><g clip-rule="nonzero" clip-path="url(#45d510cf59)"><path style=" stroke:none;fill-rule:nonzero;fill:#1350a7;fill-opacity:1;" d="M 299.027344 307.753906 L 301.058594 307.753906 L 301.058594 327.488281 L 299.027344 327.488281 Z M 299.027344 307.753906 "/></g><g clip-rule="nonzero" clip-path="url(#0124488cf8)"><path style=" stroke:none;fill-rule:nonzero;fill:#1350a7;fill-opacity:1;" d="M 305.117188 325.667969 L 305.117188 327.484375 L 299.023438 327.484375 L 299.023438 325.667969 Z M 305.117188 325.667969 "/></g><g clip-rule="nonzero" clip-path="url(#fcb9f1f4f8)"><path style=" stroke:none;fill-rule:nonzero;fill:#1350a7;fill-opacity:1;" d="M 309.644531 327.335938 L 309.644531 329.152344 L 302.546875 329.152344 L 302.546875 327.335938 Z M 309.644531 327.335938 "/></g><g clip-rule="nonzero" clip-path="url(#d67504c0f0)"><path style=" stroke:none;fill-rule:nonzero;fill:#1350a7;fill-opacity:1;" d="M 312.265625 329.007812 L 312.265625 330.820312 L 307.976562 330.820312 L 307.976562 329.007812 Z M 312.265625 329.007812 "/></g><g clip-rule="nonzero" clip-path="url(#f016637e19)"><path style=" stroke:none;fill-rule:nonzero;fill:#1350a7;fill-opacity:1;" d="M 313.6875 330.429688 L 313.6875 332.246094 L 310.617188 332.246094 L 310.617188 330.429688 Z M 313.6875 330.429688 "/></g><g clip-rule="nonzero" clip-path="url(#38db2ecb87)"><path style=" stroke:none;fill-rule:nonzero;fill:#1350a7;fill-opacity:1;" d="M 320.367188 332.042969 L 320.367188 333.613281 L 312.890625 333.613281 L 312.890625 332.042969 Z M 320.367188 332.042969 "/></g><g clip-rule="nonzero" clip-path="url(#e523fc730c)"><path style=" stroke:none;fill-rule:nonzero;fill:#1350a7;fill-opacity:1;" d="M 322.296875 330.429688 L 322.296875 332.246094 L 319.226562 332.246094 L 319.226562 330.429688 Z M 322.296875 330.429688 "/></g><g clip-rule="nonzero" clip-path="url(#2806157b8a)"><path style=" stroke:none;fill-rule:nonzero;fill:#1350a7;fill-opacity:1;" d="M 325.058594 329.007812 L 325.058594 330.820312 L 320.765625 330.820312 L 320.765625 329.007812 Z M 325.058594 329.007812 "/></g><g clip-rule="nonzero" clip-path="url(#a28aea3fc0)"><path style=" stroke:none;fill-rule:nonzero;fill:#1350a7;fill-opacity:1;" d="M 330.59375 327.335938 L 330.59375 329.152344 L 323.496094 329.152344 L 323.496094 327.335938 Z M 330.59375 327.335938 "/></g><g clip-rule="nonzero" clip-path="url(#da00d038ee)"><path style=" stroke:none;fill-rule:nonzero;fill:#1350a7;fill-opacity:1;" d="M 334.308594 325.667969 L 334.308594 327.484375 L 328.21875 327.484375 L 328.21875 325.667969 Z M 334.308594 325.667969 "/></g><g clip-rule="nonzero" clip-path="url(#2b320fae31)"><path style=" stroke:none;fill-rule:nonzero;fill:#1350a7;fill-opacity:1;" d="M 332.277344 307.753906 L 334.308594 307.753906 L 334.308594 327.488281 L 332.277344 327.488281 Z M 332.277344 307.753906 "/></g><g clip-rule="nonzero" clip-path="url(#78c0f1f38e)"><path style=" stroke:none;fill-rule:nonzero;fill:#faf3ff;fill-opacity:1;" d="M 308.222656 308.78125 L 308.222656 324.339844 L 302.132812 324.339844 L 302.132812 308.78125 Z M 308.222656 308.78125 "/></g><g clip-rule="nonzero" clip-path="url(#622c7fa9de)"><path style=" stroke:none;fill-rule:nonzero;fill:#faf3ff;fill-opacity:1;" d="M 312.277344 323.914062 L 312.277344 325.730469 L 306.1875 325.730469 L 306.1875 323.914062 Z M 312.277344 323.914062 "/></g><g clip-rule="nonzero" clip-path="url(#ca735b72d1)"><path style=" stroke:none;fill-rule:nonzero;fill:#faf3ff;fill-opacity:1;" d="M 322.375 310.644531 L 322.375 327.433594 L 310.789062 327.433594 L 310.789062 310.644531 Z M 322.375 310.644531 "/></g><g clip-rule="nonzero" clip-path="url(#9f7f02dc45)"><path style=" stroke:none;fill-rule:nonzero;fill:#faf3ff;fill-opacity:1;" d="M 319.535156 326.960938 L 319.535156 328.777344 L 313.371094 328.777344 L 313.371094 326.960938 Z M 319.535156 326.960938 "/></g><g clip-rule="nonzero" clip-path="url(#fbce65516e)"><path style=" stroke:none;fill-rule:nonzero;fill:#faf3ff;fill-opacity:1;" d="M 318.09375 328.402344 L 318.09375 330.21875 L 314.84375 330.21875 L 314.84375 328.402344 Z M 318.09375 328.402344 "/></g><g clip-rule="nonzero" clip-path="url(#640d9a81b9)"><path style=" stroke:none;fill-rule:nonzero;fill:#faf3ff;fill-opacity:1;" d="M 327.046875 323.914062 L 327.046875 325.730469 L 320.953125 325.730469 L 320.953125 323.914062 Z M 327.046875 323.914062 "/></g><g clip-rule="nonzero" clip-path="url(#0723aa7810)"><path style=" stroke:none;fill-rule:nonzero;fill:#faf3ff;fill-opacity:1;" d="M 331.148438 308.78125 L 331.148438 324.339844 L 325.054688 324.339844 L 325.054688 308.78125 Z M 331.148438 308.78125 "/></g><g clip-rule="nonzero" clip-path="url(#a4f32f8990)"><path style=" stroke:none;fill-rule:nonzero;fill:#faf3ff;fill-opacity:1;" d="M 310.863281 304.828125 L 310.863281 313.234375 L 303.617188 313.234375 L 303.617188 304.828125 Z M 310.863281 304.828125 "/></g><g clip-rule="nonzero" clip-path="url(#c94f5e32bd)"><path style=" stroke:none;fill-rule:nonzero;fill:#faf3ff;fill-opacity:1;" d="M 314.203125 307.683594 L 314.203125 325.597656 L 306.914062 325.597656 L 306.914062 307.683594 Z M 314.203125 307.683594 "/></g><g clip-rule="nonzero" clip-path="url(#4f55f2e8fd)"><path style=" stroke:none;fill-rule:nonzero;fill:#faf3ff;fill-opacity:1;" d="M 318.09375 310.644531 L 318.09375 326.175781 L 314.207031 326.175781 L 314.207031 310.644531 Z M 318.09375 310.644531 "/></g><g clip-rule="nonzero" clip-path="url(#5ba25fce04)"><path style=" stroke:none;fill-rule:nonzero;fill:#faf3ff;fill-opacity:1;" d="M 325.335938 307.683594 L 325.335938 325.601562 L 318.09375 325.601562 L 318.09375 307.683594 Z M 325.335938 307.683594 "/></g><g clip-rule="nonzero" clip-path="url(#367bfb9924)"><path style=" stroke:none;fill-rule:nonzero;fill:#faf3ff;fill-opacity:1;" d="M 329.933594 304.828125 L 329.933594 313.136719 L 323.308594 313.136719 L 323.308594 304.828125 Z M 329.933594 304.828125 "/></g><g clip-rule="nonzero" clip-path="url(#553c30cea7)"><path style=" stroke:none;fill-rule:nonzero;fill:#134b9a;fill-opacity:1;" d="M 310.65625 315.84375 L 310.65625 318.824219 L 307.800781 318.824219 L 307.800781 315.84375 Z M 310.65625 315.84375 "/></g><g clip-rule="nonzero" clip-path="url(#56a1a2ff04)"><path style=" stroke:none;fill-rule:nonzero;fill:#134b9a;fill-opacity:1;" d="M 312.144531 317.632812 L 312.144531 320.410156 L 309.292969 320.410156 L 309.292969 317.632812 Z M 312.144531 317.632812 "/></g><g clip-rule="nonzero" clip-path="url(#d2f98d99e7)"><path style=" stroke:none;fill-rule:nonzero;fill:#134b9a;fill-opacity:1;" d="M 313.703125 319.019531 L 313.703125 321.945312 L 310.863281 321.945312 L 310.863281 319.019531 Z M 313.703125 319.019531 "/></g><g clip-rule="nonzero" clip-path="url(#c2b59854af)"><path style=" stroke:none;fill-rule:nonzero;fill:#134b9a;fill-opacity:1;" d="M 316.5625 320.523438 L 316.5625 323.332031 L 312.375 323.332031 L 312.375 320.523438 Z M 316.5625 320.523438 "/></g><g clip-rule="nonzero" clip-path="url(#d1c70845de)"><path style=" stroke:none;fill-rule:nonzero;fill:#134b9a;fill-opacity:1;" d="M 315.328125 323.273438 L 315.328125 324.710938 L 313.757812 324.710938 L 313.757812 323.273438 Z M 315.328125 323.273438 "/></g><g clip-rule="nonzero" clip-path="url(#5e798600cd)"><path style=" stroke:none;fill-rule:nonzero;fill:#134b9a;fill-opacity:1;" d="M 318.09375 319.0625 L 318.09375 321.988281 L 315.253906 321.988281 L 315.253906 319.0625 Z M 318.09375 319.0625 "/></g><g clip-rule="nonzero" clip-path="url(#47546df1dd)"><path style=" stroke:none;fill-rule:nonzero;fill:#134b9a;fill-opacity:1;" d="M 319.648438 317.632812 L 319.648438 320.410156 L 316.796875 320.410156 L 316.796875 317.632812 Z M 319.648438 317.632812 "/></g><g clip-rule="nonzero" clip-path="url(#ae31ad91a5)"><path style=" stroke:none;fill-rule:nonzero;fill:#134b9a;fill-opacity:1;" d="M 321.078125 315.949219 L 321.078125 318.949219 L 318.222656 318.949219 L 318.222656 315.949219 Z M 321.078125 315.949219 "/></g><g clip-rule="nonzero" clip-path="url(#c4f1429d03)"><path style=" stroke:none;fill-rule:nonzero;fill:#134b9a;fill-opacity:1;" d="M 322.496094 314.484375 L 322.496094 317.453125 L 319.640625 317.453125 L 319.640625 314.484375 Z M 322.496094 314.484375 "/></g><g clip-rule="nonzero" clip-path="url(#99df576066)"><path style=" stroke:none;fill-rule:nonzero;fill:#134b9a;fill-opacity:1;" d="M 323.894531 312.996094 L 323.894531 316.082031 L 321.242188 316.082031 L 321.242188 312.996094 Z M 323.894531 312.996094 "/></g><g clip-rule="nonzero" clip-path="url(#3a1550cc1c)"><path style=" stroke:none;fill-rule:nonzero;fill:#134b9a;fill-opacity:1;" d="M 325.339844 311.585938 L 325.339844 314.671875 L 322.6875 314.671875 L 322.6875 311.585938 Z M 325.339844 311.585938 "/></g><g clip-rule="nonzero" clip-path="url(#3ff192999d)"><path style=" stroke:none;fill-rule:nonzero;fill:#faf3ff;fill-opacity:1;" d="M 318.117188 302.246094 L 320.632812 302.246094 L 320.632812 304.761719 L 318.117188 304.761719 Z M 318.117188 302.246094 "/></g><g clip-rule="nonzero" clip-path="url(#c2881424c9)"><path style=" stroke:none;fill-rule:nonzero;fill:#faf3ff;fill-opacity:1;" d="M 312.871094 297.390625 L 315.390625 297.390625 L 315.390625 299.910156 L 312.871094 299.910156 Z M 312.871094 297.390625 "/></g><g clip-rule="nonzero" clip-path="url(#7e2bf9c059)"><path style=" stroke:none;fill-rule:nonzero;fill:#faf3ff;fill-opacity:1;" d="M 318.117188 292.445312 L 320.632812 292.445312 L 320.632812 294.964844 L 318.117188 294.964844 Z M 318.117188 292.445312 "/></g><g style="fill:#faf3ff;fill-opacity:1;"><g transform="translate(26.200478, 328.029002)"><path style="stroke:none" d="M 10.265625 -5.8125 L 20.125 -5.8125 L 20.125 0 L 2.734375 0 L 2.734375 -30.90625 L 10.265625 -30.90625 Z M 10.265625 -5.8125 "/></g></g><g style="fill:#faf3ff;fill-opacity:1;"><g transform="translate(47.195911, 328.029002)"><path style="stroke:none" d="M 25.890625 -12.6875 C 25.890625 -11.976562 25.847656 -11.242188 25.765625 -10.484375 L 8.71875 -10.484375 C 8.832031 -8.953125 9.320312 -7.78125 10.1875 -6.96875 C 11.050781 -6.164062 12.117188 -5.765625 13.390625 -5.765625 C 15.265625 -5.765625 16.566406 -6.554688 17.296875 -8.140625 L 25.3125 -8.140625 C 24.90625 -6.523438 24.164062 -5.070312 23.09375 -3.78125 C 22.019531 -2.488281 20.675781 -1.472656 19.0625 -0.734375 C 17.445312 -0.00390625 15.644531 0.359375 13.65625 0.359375 C 11.25 0.359375 9.101562 -0.15625 7.21875 -1.1875 C 5.34375 -2.21875 3.875 -3.6875 2.8125 -5.59375 C 1.757812 -7.5 1.234375 -9.726562 1.234375 -12.28125 C 1.234375 -14.832031 1.753906 -17.0625 2.796875 -18.96875 C 3.835938 -20.882812 5.296875 -22.351562 7.171875 -23.375 C 9.054688 -24.40625 11.21875 -24.921875 13.65625 -24.921875 C 16.03125 -24.921875 18.140625 -24.421875 19.984375 -23.421875 C 21.835938 -22.421875 23.285156 -20.992188 24.328125 -19.140625 C 25.367188 -17.296875 25.890625 -15.144531 25.890625 -12.6875 Z M 18.1875 -14.65625 C 18.1875 -15.945312 17.742188 -16.972656 16.859375 -17.734375 C 15.984375 -18.503906 14.882812 -18.890625 13.5625 -18.890625 C 12.300781 -18.890625 11.238281 -18.519531 10.375 -17.78125 C 9.507812 -17.050781 8.972656 -16.007812 8.765625 -14.65625 Z M 18.1875 -14.65625 "/></g></g><g style="fill:#faf3ff;fill-opacity:1;"><g transform="translate(74.309515, 328.029002)"><path style="stroke:none" d="M 13.78125 -7.046875 L 19.109375 -24.5625 L 27.125 -24.5625 L 18.40625 0 L 9.109375 0 L 0.390625 -24.5625 L 8.453125 -24.5625 Z M 13.78125 -7.046875 "/></g></g><g style="fill:#faf3ff;fill-opacity:1;"><g transform="translate(101.863269, 328.029002)"><path style="stroke:none" d="M 25.890625 -12.6875 C 25.890625 -11.976562 25.847656 -11.242188 25.765625 -10.484375 L 8.71875 -10.484375 C 8.832031 -8.953125 9.320312 -7.78125 10.1875 -6.96875 C 11.050781 -6.164062 12.117188 -5.765625 13.390625 -5.765625 C 15.265625 -5.765625 16.566406 -6.554688 17.296875 -8.140625 L 25.3125 -8.140625 C 24.90625 -6.523438 24.164062 -5.070312 23.09375 -3.78125 C 22.019531 -2.488281 20.675781 -1.472656 19.0625 -0.734375 C 17.445312 -0.00390625 15.644531 0.359375 13.65625 0.359375 C 11.25 0.359375 9.101562 -0.15625 7.21875 -1.1875 C 5.34375 -2.21875 3.875 -3.6875 2.8125 -5.59375 C 1.757812 -7.5 1.234375 -9.726562 1.234375 -12.28125 C 1.234375 -14.832031 1.753906 -17.0625 2.796875 -18.96875 C 3.835938 -20.882812 5.296875 -22.351562 7.171875 -23.375 C 9.054688 -24.40625 11.21875 -24.921875 13.65625 -24.921875 C 16.03125 -24.921875 18.140625 -24.421875 19.984375 -23.421875 C 21.835938 -22.421875 23.285156 -20.992188 24.328125 -19.140625 C 25.367188 -17.296875 25.890625 -15.144531 25.890625 -12.6875 Z M 18.1875 -14.65625 C 18.1875 -15.945312 17.742188 -16.972656 16.859375 -17.734375 C 15.984375 -18.503906 14.882812 -18.890625 13.5625 -18.890625 C 12.300781 -18.890625 11.238281 -18.519531 10.375 -17.78125 C 9.507812 -17.050781 8.972656 -16.007812 8.765625 -14.65625 Z M 18.1875 -14.65625 "/></g></g><g style="fill:#faf3ff;fill-opacity:1;"><g transform="translate(128.976873, 328.029002)"><path style="stroke:none" d="M 10.265625 -32.578125 L 10.265625 0 L 2.734375 0 L 2.734375 -32.578125 Z M 10.265625 -32.578125 "/></g></g><g style="fill:#faf3ff;fill-opacity:1;"><g transform="translate(141.961465, 328.029002)"><path style="stroke:none" d="M 10.265625 -5.8125 L 20.125 -5.8125 L 20.125 0 L 2.734375 0 L 2.734375 -30.90625 L 10.265625 -30.90625 Z M 10.265625 -5.8125 "/></g></g><g style="fill:#faf3ff;fill-opacity:1;"><g transform="translate(162.956897, 328.029002)"><path style="stroke:none" d="M 25.890625 -12.6875 C 25.890625 -11.976562 25.847656 -11.242188 25.765625 -10.484375 L 8.71875 -10.484375 C 8.832031 -8.953125 9.320312 -7.78125 10.1875 -6.96875 C 11.050781 -6.164062 12.117188 -5.765625 13.390625 -5.765625 C 15.265625 -5.765625 16.566406 -6.554688 17.296875 -8.140625 L 25.3125 -8.140625 C 24.90625 -6.523438 24.164062 -5.070312 23.09375 -3.78125 C 22.019531 -2.488281 20.675781 -1.472656 19.0625 -0.734375 C 17.445312 -0.00390625 15.644531 0.359375 13.65625 0.359375 C 11.25 0.359375 9.101562 -0.15625 7.21875 -1.1875 C 5.34375 -2.21875 3.875 -3.6875 2.8125 -5.59375 C 1.757812 -7.5 1.234375 -9.726562 1.234375 -12.28125 C 1.234375 -14.832031 1.753906 -17.0625 2.796875 -18.96875 C 3.835938 -20.882812 5.296875 -22.351562 7.171875 -23.375 C 9.054688 -24.40625 11.21875 -24.921875 13.65625 -24.921875 C 16.03125 -24.921875 18.140625 -24.421875 19.984375 -23.421875 C 21.835938 -22.421875 23.285156 -20.992188 24.328125 -19.140625 C 25.367188 -17.296875 25.890625 -15.144531 25.890625 -12.6875 Z M 18.1875 -14.65625 C 18.1875 -15.945312 17.742188 -16.972656 16.859375 -17.734375 C 15.984375 -18.503906 14.882812 -18.890625 13.5625 -18.890625 C 12.300781 -18.890625 11.238281 -18.519531 10.375 -17.78125 C 9.507812 -17.050781 8.972656 -16.007812 8.765625 -14.65625 Z M 18.1875 -14.65625 "/></g></g><g style="fill:#faf3ff;fill-opacity:1;"><g transform="translate(190.070501, 328.029002)"><path style="stroke:none" d="M 1.234375 -12.328125 C 1.234375 -14.847656 1.707031 -17.0625 2.65625 -18.96875 C 3.613281 -20.882812 4.914062 -22.351562 6.5625 -23.375 C 8.207031 -24.40625 10.039062 -24.921875 12.0625 -24.921875 C 13.789062 -24.921875 15.304688 -24.566406 16.609375 -23.859375 C 17.921875 -23.160156 18.929688 -22.238281 19.640625 -21.09375 L 19.640625 -24.5625 L 27.171875 -24.5625 L 27.171875 0 L 19.640625 0 L 19.640625 -3.484375 C 18.898438 -2.335938 17.878906 -1.410156 16.578125 -0.703125 C 15.273438 0.00390625 13.753906 0.359375 12.015625 0.359375 C 10.023438 0.359375 8.207031 -0.160156 6.5625 -1.203125 C 4.914062 -2.253906 3.613281 -3.738281 2.65625 -5.65625 C 1.707031 -7.582031 1.234375 -9.804688 1.234375 -12.328125 Z M 19.640625 -12.28125 C 19.640625 -14.164062 19.117188 -15.648438 18.078125 -16.734375 C 17.035156 -17.816406 15.765625 -18.359375 14.265625 -18.359375 C 12.765625 -18.359375 11.492188 -17.820312 10.453125 -16.75 C 9.410156 -15.675781 8.890625 -14.203125 8.890625 -12.328125 C 8.890625 -10.453125 9.410156 -8.960938 10.453125 -7.859375 C 11.492188 -6.753906 12.765625 -6.203125 14.265625 -6.203125 C 15.765625 -6.203125 17.035156 -6.742188 18.078125 -7.828125 C 19.117188 -8.921875 19.640625 -10.40625 19.640625 -12.28125 Z M 19.640625 -12.28125 "/></g></g><g style="fill:#faf3ff;fill-opacity:1;"><g transform="translate(219.957088, 328.029002)"><path style="stroke:none" d="M 10.265625 -20.46875 C 11.140625 -21.820312 12.238281 -22.882812 13.5625 -23.65625 C 14.882812 -24.4375 16.351562 -24.828125 17.96875 -24.828125 L 17.96875 -16.859375 L 15.890625 -16.859375 C 14.015625 -16.859375 12.609375 -16.453125 11.671875 -15.640625 C 10.734375 -14.835938 10.265625 -13.425781 10.265625 -11.40625 L 10.265625 0 L 2.734375 0 L 2.734375 -24.5625 L 10.265625 -24.5625 Z M 10.265625 -20.46875 "/></g></g><g style="fill:#faf3ff;fill-opacity:1;"><g transform="translate(238.795755, 328.029002)"><path style="stroke:none" d="M 17.703125 -24.828125 C 20.578125 -24.828125 22.875 -23.894531 24.59375 -22.03125 C 26.3125 -20.164062 27.171875 -17.609375 27.171875 -14.359375 L 27.171875 0 L 19.6875 0 L 19.6875 -13.34375 C 19.6875 -14.988281 19.257812 -16.265625 18.40625 -17.171875 C 17.550781 -18.078125 16.40625 -18.53125 14.96875 -18.53125 C 13.53125 -18.53125 12.382812 -18.078125 11.53125 -17.171875 C 10.6875 -16.265625 10.265625 -14.988281 10.265625 -13.34375 L 10.265625 0 L 2.734375 0 L 2.734375 -24.5625 L 10.265625 -24.5625 L 10.265625 -21.3125 C 11.023438 -22.394531 12.050781 -23.25 13.34375 -23.875 C 14.632812 -24.507812 16.085938 -24.828125 17.703125 -24.828125 Z M 17.703125 -24.828125 "/></g></g></g></svg>