<svg xmlns="http://www.w3.org/2000/svg" xmlns:xlink="http://www.w3.org/1999/xlink" width="500" zoomAndPan="magnify" viewBox="0 0 375 374.999991" height="500" preserveAspectRatio="xMidYMid meet" version="1.2"><defs><clipPath id="4a08c8fb26"><path d="M 319.683594 55.304688 L 337.492188 55.304688 L 337.492188 337.496094 L 319.683594 337.496094 Z M 319.683594 55.304688 "/></clipPath><clipPath id="b4ac0560b0"><path d="M 301.875 37.496094 L 319.683594 37.496094 L 319.683594 319.6875 L 301.875 319.6875 Z M 301.875 37.496094 "/></clipPath><clipPath id="ec0ca31a42"><path d="M 147.375 37.492188 L 319.683594 37.492188 L 319.683594 55.300781 L 147.375 55.300781 Z M 147.375 37.492188 "/></clipPath><clipPath id="bc6d29e1b8"><path d="M 165.179688 55.300781 L 319.679688 55.300781 L 319.679688 73.109375 L 165.179688 73.109375 Z M 165.179688 55.300781 "/></clipPath><clipPath id="a792ad669e"><path d="M 310.777344 55.308594 L 328.585938 55.308594 L 328.585938 319.691406 L 310.777344 319.691406 Z M 310.777344 55.308594 "/></clipPath><clipPath id="948bd574fc"><path d="M 165.179688 46.394531 L 319.679688 46.394531 L 319.679688 64.207031 L 165.179688 64.207031 Z M 165.179688 46.394531 "/></clipPath></defs><g id="3c096a2097"><rect x="0" width="375" y="0" height="374.999991" style="fill:#ffffff;fill-opacity:1;stroke:none;"/><rect x="0" width="375" y="0" height="374.999991" style="fill:#1b0d34;fill-opacity:1;stroke:none;"/><g clip-rule="nonzero" clip-path="url(#4a08c8fb26)"><path style=" stroke:none;fill-rule:nonzero;fill:#faf3ff;fill-opacity:1;" d="M 337.492188 55.304688 L 337.492188 337.46875 L 319.683594 337.46875 L 319.683594 55.304688 Z M 337.492188 55.304688 "/></g><g clip-rule="nonzero" clip-path="url(#b4ac0560b0)"><path style=" stroke:none;fill-rule:nonzero;fill:#faf3ff;fill-opacity:1;" d="M 319.683594 37.496094 L 319.683594 319.65625 L 301.875 319.65625 L 301.875 37.496094 Z M 319.683594 37.496094 "/></g><g clip-rule="nonzero" clip-path="url(#ec0ca31a42)"><path style=" stroke:none;fill-rule:nonzero;fill:#faf3ff;fill-opacity:1;" d="M 319.683594 55.300781 L 147.367188 55.300781 L 147.367188 37.492188 L 319.683594 37.492188 Z M 319.683594 55.300781 "/></g><g clip-rule="nonzero" clip-path="url(#bc6d29e1b8)"><path style=" stroke:none;fill-rule:nonzero;fill:#faf3ff;fill-opacity:1;" d="M 319.679688 73.109375 L 165.171875 73.109375 L 165.171875 55.300781 L 319.679688 55.300781 Z M 319.679688 73.109375 "/></g><g clip-rule="nonzero" clip-path="url(#a792ad669e)"><path style=" stroke:none;fill-rule:nonzero;fill:#faf3ff;fill-opacity:1;" d="M 328.585938 55.308594 L 328.585938 319.660156 L 310.777344 319.660156 L 310.777344 55.308594 Z M 328.585938 55.308594 "/></g><g clip-rule="nonzero" clip-path="url(#948bd574fc)"><path style=" stroke:none;fill-rule:nonzero;fill:#faf3ff;fill-opacity:1;" d="M 319.679688 64.207031 L 165.171875 64.207031 L 165.171875 46.394531 L 319.679688 46.394531 Z M 319.679688 64.207031 "/></g></g></svg>