<svg xmlns="http://www.w3.org/2000/svg" xmlns:xlink="http://www.w3.org/1999/xlink" width="500" zoomAndPan="magnify" viewBox="0 0 375 374.999991" height="500" preserveAspectRatio="xMidYMid meet" version="1.2"><defs><clipPath id="ba5518d31a"><path d="M 0 0 L 123.550781 0 L 123.550781 375 L 0 375 Z M 0 0 "/></clipPath><clipPath id="5070938609"><path d="M 123.550781 0 L 254.433594 0 L 254.433594 375 L 123.550781 375 Z M 123.550781 0 "/></clipPath><clipPath id="b185ed9de1"><path d="M 249.058594 0 L 375 0 L 375 375 L 249.058594 375 Z M 249.058594 0 "/></clipPath></defs><g id="49af17d672"><rect x="0" width="375" y="0" height="374.999991" style="fill:#ffffff;fill-opacity:1;stroke:none;"/><rect x="0" width="375" y="0" height="374.999991" style="fill:#134b9a;fill-opacity:1;stroke:none;"/><g clip-rule="nonzero" clip-path="url(#ba5518d31a)"><path style=" stroke:none;fill-rule:nonzero;fill:#1b0d34;fill-opacity:1;" d="M 0 0 L 123.550781 0 L 123.550781 374.996094 L 0 374.996094 Z M 0 0 "/></g><g clip-rule="nonzero" clip-path="url(#5070938609)"><path style=" stroke:none;fill-rule:nonzero;fill:#1553ad;fill-opacity:1;" d="M 123.550781 0 L 254.433594 0 L 254.433594 374.757812 L 123.550781 374.757812 Z M 123.550781 0 "/></g><g clip-rule="nonzero" clip-path="url(#b185ed9de1)"><path style=" stroke:none;fill-rule:nonzero;fill:#faf3ff;fill-opacity:1;" d="M 249.058594 0 L 375 0 L 375 374.867188 L 249.058594 374.867188 Z M 249.058594 0 "/></g><g style="fill:#faf3ff;fill-opacity:1;"><g transform="translate(143.179022, 35.994505)"><path style="stroke:none" d="M 10.734375 -9.0625 L 10.234375 -6.578125 L 13 -6.578125 L 13 -4.359375 L 9.8125 -4.359375 L 8.984375 0 L 6.625 0 L 7.453125 -4.359375 L 5.375 -4.359375 L 4.5625 0 L 2.25 0 L 3.046875 -4.359375 L 0.484375 -4.359375 L 0.484375 -6.578125 L 3.453125 -6.578125 L 3.96875 -9.0625 L 1.25 -9.0625 L 1.25 -11.3125 L 4.359375 -11.3125 L 5.1875 -15.6875 L 7.546875 -15.6875 L 6.71875 -11.3125 L 8.84375 -11.3125 L 9.671875 -15.6875 L 11.984375 -15.6875 L 11.15625 -11.3125 L 13.734375 -11.3125 L 13.734375 -9.0625 Z M 5.796875 -6.578125 L 7.890625 -6.578125 L 8.40625 -9.0625 L 6.296875 -9.0625 Z M 5.796875 -6.578125 "/></g></g><g style="fill:#faf3ff;fill-opacity:1;"><g transform="translate(157.388418, 35.994505)"><path style="stroke:none" d="M 9.09375 0 L 5.765625 0 L 5.765625 -9.09375 L 5.796875 -10.578125 L 5.859375 -12.21875 C 5.304688 -11.664062 4.921875 -11.300781 4.703125 -11.125 L 2.90625 -9.671875 L 1.296875 -11.671875 L 6.359375 -15.703125 L 9.09375 -15.703125 Z M 9.09375 0 "/></g></g><g style="fill:#faf3ff;fill-opacity:1;"><g transform="translate(169.94381, 35.994505)"><path style="stroke:none" d="M 6.59375 -10.03125 C 8.113281 -10.03125 9.320312 -9.601562 10.21875 -8.75 C 11.113281 -7.90625 11.5625 -6.738281 11.5625 -5.25 C 11.5625 -3.5 11.019531 -2.148438 9.9375 -1.203125 C 8.863281 -0.253906 7.320312 0.21875 5.3125 0.21875 C 3.5625 0.21875 2.148438 -0.0664062 1.078125 -0.640625 L 1.078125 -3.5 C 1.640625 -3.195312 2.296875 -2.953125 3.046875 -2.765625 C 3.796875 -2.578125 4.507812 -2.484375 5.1875 -2.484375 C 7.21875 -2.484375 8.234375 -3.3125 8.234375 -4.96875 C 8.234375 -6.550781 7.179688 -7.34375 5.078125 -7.34375 C 4.703125 -7.34375 4.285156 -7.304688 3.828125 -7.234375 C 3.367188 -7.160156 2.992188 -7.082031 2.703125 -7 L 1.390625 -7.703125 L 1.984375 -15.703125 L 10.5 -15.703125 L 10.5 -12.890625 L 4.890625 -12.890625 L 4.59375 -9.8125 L 4.96875 -9.890625 C 5.40625 -9.984375 5.945312 -10.03125 6.59375 -10.03125 Z M 6.59375 -10.03125 "/></g></g><g style="fill:#faf3ff;fill-opacity:1;"><g transform="translate(182.499203, 35.994505)"><path style="stroke:none" d="M 6.59375 -10.03125 C 8.113281 -10.03125 9.320312 -9.601562 10.21875 -8.75 C 11.113281 -7.90625 11.5625 -6.738281 11.5625 -5.25 C 11.5625 -3.5 11.019531 -2.148438 9.9375 -1.203125 C 8.863281 -0.253906 7.320312 0.21875 5.3125 0.21875 C 3.5625 0.21875 2.148438 -0.0664062 1.078125 -0.640625 L 1.078125 -3.5 C 1.640625 -3.195312 2.296875 -2.953125 3.046875 -2.765625 C 3.796875 -2.578125 4.507812 -2.484375 5.1875 -2.484375 C 7.21875 -2.484375 8.234375 -3.3125 8.234375 -4.96875 C 8.234375 -6.550781 7.179688 -7.34375 5.078125 -7.34375 C 4.703125 -7.34375 4.285156 -7.304688 3.828125 -7.234375 C 3.367188 -7.160156 2.992188 -7.082031 2.703125 -7 L 1.390625 -7.703125 L 1.984375 -15.703125 L 10.5 -15.703125 L 10.5 -12.890625 L 4.890625 -12.890625 L 4.59375 -9.8125 L 4.96875 -9.890625 C 5.40625 -9.984375 5.945312 -10.03125 6.59375 -10.03125 Z M 6.59375 -10.03125 "/></g></g><g style="fill:#faf3ff;fill-opacity:1;"><g transform="translate(195.054595, 35.994505)"><path style="stroke:none" d="M 11.25 -12.1875 C 11.25 -11.207031 10.953125 -10.375 10.359375 -9.6875 C 9.765625 -9 8.929688 -8.523438 7.859375 -8.265625 L 7.859375 -8.203125 C 9.117188 -8.046875 10.070312 -7.660156 10.71875 -7.046875 C 11.375 -6.441406 11.703125 -5.617188 11.703125 -4.578125 C 11.703125 -3.066406 11.15625 -1.890625 10.0625 -1.046875 C 8.96875 -0.203125 7.40625 0.21875 5.375 0.21875 C 3.664062 0.21875 2.15625 -0.0664062 0.84375 -0.640625 L 0.84375 -3.453125 C 1.445312 -3.148438 2.113281 -2.898438 2.84375 -2.703125 C 3.570312 -2.515625 4.296875 -2.421875 5.015625 -2.421875 C 6.109375 -2.421875 6.914062 -2.601562 7.4375 -2.96875 C 7.96875 -3.34375 8.234375 -3.941406 8.234375 -4.765625 C 8.234375 -5.503906 7.929688 -6.023438 7.328125 -6.328125 C 6.722656 -6.640625 5.765625 -6.796875 4.453125 -6.796875 L 3.25 -6.796875 L 3.25 -9.34375 L 4.46875 -9.34375 C 5.6875 -9.34375 6.578125 -9.5 7.140625 -9.8125 C 7.703125 -10.132812 7.984375 -10.6875 7.984375 -11.46875 C 7.984375 -12.65625 7.238281 -13.25 5.75 -13.25 C 5.226562 -13.25 4.703125 -13.160156 4.171875 -12.984375 C 3.640625 -12.816406 3.046875 -12.519531 2.390625 -12.09375 L 0.859375 -14.390625 C 2.296875 -15.421875 4.003906 -15.9375 5.984375 -15.9375 C 7.609375 -15.9375 8.890625 -15.601562 9.828125 -14.9375 C 10.773438 -14.28125 11.25 -13.363281 11.25 -12.1875 Z M 11.25 -12.1875 "/></g></g><g style="fill:#faf3ff;fill-opacity:1;"><g transform="translate(207.609987, 35.994505)"><path style="stroke:none" d="M 9.34375 0 L 8.71875 -1.640625 L 8.625 -1.640625 C 8.070312 -0.941406 7.503906 -0.457031 6.921875 -0.1875 C 6.335938 0.0820312 5.578125 0.21875 4.640625 0.21875 C 3.484375 0.21875 2.570312 -0.109375 1.90625 -0.765625 C 1.25 -1.429688 0.921875 -2.375 0.921875 -3.59375 C 0.921875 -4.863281 1.363281 -5.800781 2.25 -6.40625 C 3.144531 -7.007812 4.492188 -7.34375 6.296875 -7.40625 L 8.375 -7.484375 L 8.375 -8 C 8.375 -9.21875 7.753906 -9.828125 6.515625 -9.828125 C 5.554688 -9.828125 4.425781 -9.535156 3.125 -8.953125 L 2.046875 -11.171875 C 3.421875 -11.890625 4.953125 -12.25 6.640625 -12.25 C 8.253906 -12.25 9.488281 -11.898438 10.34375 -11.203125 C 11.207031 -10.503906 11.640625 -9.4375 11.640625 -8 L 11.640625 0 Z M 8.375 -5.5625 L 7.109375 -5.515625 C 6.160156 -5.492188 5.453125 -5.320312 4.984375 -5 C 4.515625 -4.6875 4.28125 -4.207031 4.28125 -3.5625 C 4.28125 -2.644531 4.8125 -2.1875 5.875 -2.1875 C 6.632812 -2.1875 7.238281 -2.398438 7.6875 -2.828125 C 8.144531 -3.265625 8.375 -3.847656 8.375 -4.578125 Z M 8.375 -5.5625 "/></g></g><g style="fill:#faf3ff;fill-opacity:1;"><g transform="translate(220.895719, 35.994505)"><path style="stroke:none" d="M 5.515625 0.21875 C 4.109375 0.21875 3 -0.328125 2.1875 -1.421875 C 1.382812 -2.523438 0.984375 -4.046875 0.984375 -5.984375 C 0.984375 -7.953125 1.394531 -9.484375 2.21875 -10.578125 C 3.039062 -11.679688 4.171875 -12.234375 5.609375 -12.234375 C 7.117188 -12.234375 8.269531 -11.644531 9.0625 -10.46875 L 9.171875 -10.46875 C 9.003906 -11.363281 8.921875 -12.164062 8.921875 -12.875 L 8.921875 -16.71875 L 12.21875 -16.71875 L 12.21875 0 L 9.703125 0 L 9.0625 -1.5625 L 8.921875 -1.5625 C 8.179688 -0.375 7.046875 0.21875 5.515625 0.21875 Z M 6.671875 -2.390625 C 7.503906 -2.390625 8.113281 -2.632812 8.5 -3.125 C 8.894531 -3.613281 9.113281 -4.441406 9.15625 -5.609375 L 9.15625 -5.96875 C 9.15625 -7.25 8.953125 -8.171875 8.546875 -8.734375 C 8.148438 -9.296875 7.507812 -9.578125 6.625 -9.578125 C 5.882812 -9.578125 5.3125 -9.265625 4.90625 -8.640625 C 4.507812 -8.023438 4.3125 -7.125 4.3125 -5.9375 C 4.3125 -4.757812 4.515625 -3.875 4.921875 -3.28125 C 5.328125 -2.6875 5.910156 -2.390625 6.671875 -2.390625 Z M 6.671875 -2.390625 "/></g></g><g style="fill:#faf3ff;fill-opacity:1;"><g transform="translate(15.632964, 35.994505)"><path style="stroke:none" d="M 10.734375 -9.0625 L 10.234375 -6.578125 L 13 -6.578125 L 13 -4.359375 L 9.8125 -4.359375 L 8.984375 0 L 6.625 0 L 7.453125 -4.359375 L 5.375 -4.359375 L 4.5625 0 L 2.25 0 L 3.046875 -4.359375 L 0.484375 -4.359375 L 0.484375 -6.578125 L 3.453125 -6.578125 L 3.96875 -9.0625 L 1.25 -9.0625 L 1.25 -11.3125 L 4.359375 -11.3125 L 5.1875 -15.6875 L 7.546875 -15.6875 L 6.71875 -11.3125 L 8.84375 -11.3125 L 9.671875 -15.6875 L 11.984375 -15.6875 L 11.15625 -11.3125 L 13.734375 -11.3125 L 13.734375 -9.0625 Z M 5.796875 -6.578125 L 7.890625 -6.578125 L 8.40625 -9.0625 L 6.296875 -9.0625 Z M 5.796875 -6.578125 "/></g></g><g style="fill:#faf3ff;fill-opacity:1;"><g transform="translate(29.84236, 35.994505)"><path style="stroke:none" d="M 9.09375 0 L 5.765625 0 L 5.765625 -9.09375 L 5.796875 -10.578125 L 5.859375 -12.21875 C 5.304688 -11.664062 4.921875 -11.300781 4.703125 -11.125 L 2.90625 -9.671875 L 1.296875 -11.671875 L 6.359375 -15.703125 L 9.09375 -15.703125 Z M 9.09375 0 "/></g></g><g style="fill:#faf3ff;fill-opacity:1;"><g transform="translate(42.397752, 35.994505)"><path style="stroke:none" d="M 8.40625 -12.234375 C 9.820312 -12.234375 10.929688 -11.679688 11.734375 -10.578125 C 12.535156 -9.472656 12.9375 -7.957031 12.9375 -6.03125 C 12.9375 -4.039062 12.519531 -2.5 11.6875 -1.40625 C 10.863281 -0.320312 9.738281 0.21875 8.3125 0.21875 C 6.90625 0.21875 5.800781 -0.296875 5 -1.328125 L 4.765625 -1.328125 L 4.21875 0 L 1.71875 0 L 1.71875 -16.71875 L 5 -16.71875 L 5 -12.828125 C 5 -12.328125 4.953125 -11.535156 4.859375 -10.453125 L 5 -10.453125 C 5.757812 -11.640625 6.894531 -12.234375 8.40625 -12.234375 Z M 7.34375 -9.609375 C 6.539062 -9.609375 5.953125 -9.359375 5.578125 -8.859375 C 5.203125 -8.367188 5.007812 -7.550781 5 -6.40625 L 5 -6.046875 C 5 -4.753906 5.1875 -3.828125 5.5625 -3.265625 C 5.945312 -2.710938 6.554688 -2.4375 7.390625 -2.4375 C 8.066406 -2.4375 8.601562 -2.742188 9 -3.359375 C 9.394531 -3.984375 9.59375 -4.882812 9.59375 -6.0625 C 9.59375 -7.25 9.390625 -8.132812 8.984375 -8.71875 C 8.585938 -9.3125 8.039062 -9.609375 7.34375 -9.609375 Z M 7.34375 -9.609375 "/></g></g><g style="fill:#faf3ff;fill-opacity:1;"><g transform="translate(56.317154, 35.994505)"><path style="stroke:none" d="M 11.78125 -7.859375 C 11.78125 -5.109375 11.328125 -3.070312 10.421875 -1.75 C 9.523438 -0.4375 8.144531 0.21875 6.28125 0.21875 C 4.46875 0.21875 3.097656 -0.460938 2.171875 -1.828125 C 1.253906 -3.191406 0.796875 -5.203125 0.796875 -7.859375 C 0.796875 -10.628906 1.242188 -12.671875 2.140625 -13.984375 C 3.035156 -15.296875 4.414062 -15.953125 6.28125 -15.953125 C 8.082031 -15.953125 9.445312 -15.265625 10.375 -13.890625 C 11.3125 -12.515625 11.78125 -10.503906 11.78125 -7.859375 Z M 4.09375 -7.859375 C 4.09375 -5.929688 4.257812 -4.546875 4.59375 -3.703125 C 4.925781 -2.867188 5.488281 -2.453125 6.28125 -2.453125 C 7.050781 -2.453125 7.609375 -2.875 7.953125 -3.71875 C 8.296875 -4.570312 8.46875 -5.953125 8.46875 -7.859375 C 8.46875 -9.785156 8.289062 -11.164062 7.9375 -12 C 7.59375 -12.84375 7.039062 -13.265625 6.28125 -13.265625 C 5.5 -13.265625 4.9375 -12.84375 4.59375 -12 C 4.257812 -11.164062 4.09375 -9.785156 4.09375 -7.859375 Z M 4.09375 -7.859375 "/></g></g><g style="fill:#faf3ff;fill-opacity:1;"><g transform="translate(68.872547, 35.994505)"><path style="stroke:none" d="M 5.515625 0.21875 C 4.109375 0.21875 3 -0.328125 2.1875 -1.421875 C 1.382812 -2.523438 0.984375 -4.046875 0.984375 -5.984375 C 0.984375 -7.953125 1.394531 -9.484375 2.21875 -10.578125 C 3.039062 -11.679688 4.171875 -12.234375 5.609375 -12.234375 C 7.117188 -12.234375 8.269531 -11.644531 9.0625 -10.46875 L 9.171875 -10.46875 C 9.003906 -11.363281 8.921875 -12.164062 8.921875 -12.875 L 8.921875 -16.71875 L 12.21875 -16.71875 L 12.21875 0 L 9.703125 0 L 9.0625 -1.5625 L 8.921875 -1.5625 C 8.179688 -0.375 7.046875 0.21875 5.515625 0.21875 Z M 6.671875 -2.390625 C 7.503906 -2.390625 8.113281 -2.632812 8.5 -3.125 C 8.894531 -3.613281 9.113281 -4.441406 9.15625 -5.609375 L 9.15625 -5.96875 C 9.15625 -7.25 8.953125 -8.171875 8.546875 -8.734375 C 8.148438 -9.296875 7.507812 -9.578125 6.625 -9.578125 C 5.882812 -9.578125 5.3125 -9.265625 4.90625 -8.640625 C 4.507812 -8.023438 4.3125 -7.125 4.3125 -5.9375 C 4.3125 -4.757812 4.515625 -3.875 4.921875 -3.28125 C 5.328125 -2.6875 5.910156 -2.390625 6.671875 -2.390625 Z M 6.671875 -2.390625 "/></g></g><g style="fill:#faf3ff;fill-opacity:1;"><g transform="translate(82.791949, 35.994505)"><path style="stroke:none" d="M 11.25 -12.1875 C 11.25 -11.207031 10.953125 -10.375 10.359375 -9.6875 C 9.765625 -9 8.929688 -8.523438 7.859375 -8.265625 L 7.859375 -8.203125 C 9.117188 -8.046875 10.070312 -7.660156 10.71875 -7.046875 C 11.375 -6.441406 11.703125 -5.617188 11.703125 -4.578125 C 11.703125 -3.066406 11.15625 -1.890625 10.0625 -1.046875 C 8.96875 -0.203125 7.40625 0.21875 5.375 0.21875 C 3.664062 0.21875 2.15625 -0.0664062 0.84375 -0.640625 L 0.84375 -3.453125 C 1.445312 -3.148438 2.113281 -2.898438 2.84375 -2.703125 C 3.570312 -2.515625 4.296875 -2.421875 5.015625 -2.421875 C 6.109375 -2.421875 6.914062 -2.601562 7.4375 -2.96875 C 7.96875 -3.34375 8.234375 -3.941406 8.234375 -4.765625 C 8.234375 -5.503906 7.929688 -6.023438 7.328125 -6.328125 C 6.722656 -6.640625 5.765625 -6.796875 4.453125 -6.796875 L 3.25 -6.796875 L 3.25 -9.34375 L 4.46875 -9.34375 C 5.6875 -9.34375 6.578125 -9.5 7.140625 -9.8125 C 7.703125 -10.132812 7.984375 -10.6875 7.984375 -11.46875 C 7.984375 -12.65625 7.238281 -13.25 5.75 -13.25 C 5.226562 -13.25 4.703125 -13.160156 4.171875 -12.984375 C 3.640625 -12.816406 3.046875 -12.519531 2.390625 -12.09375 L 0.859375 -14.390625 C 2.296875 -15.421875 4.003906 -15.9375 5.984375 -15.9375 C 7.609375 -15.9375 8.890625 -15.601562 9.828125 -14.9375 C 10.773438 -14.28125 11.25 -13.363281 11.25 -12.1875 Z M 11.25 -12.1875 "/></g></g><g style="fill:#faf3ff;fill-opacity:1;"><g transform="translate(95.347341, 35.994505)"><path style="stroke:none" d="M 12.21875 -3.25 L 10.328125 -3.25 L 10.328125 0 L 7.078125 0 L 7.078125 -3.25 L 0.375 -3.25 L 0.375 -5.5625 L 7.265625 -15.703125 L 10.328125 -15.703125 L 10.328125 -5.828125 L 12.21875 -5.828125 Z M 7.078125 -5.828125 L 7.078125 -8.5 C 7.078125 -8.9375 7.09375 -9.578125 7.125 -10.421875 C 7.164062 -11.273438 7.195312 -11.769531 7.21875 -11.90625 L 7.140625 -11.90625 C 6.867188 -11.3125 6.546875 -10.738281 6.171875 -10.1875 L 3.296875 -5.828125 Z M 7.078125 -5.828125 "/></g></g><g style="fill:#1b0d34;fill-opacity:1;"><g transform="translate(274.963755, 35.994505)"><path style="stroke:none" d="M 10.734375 -9.0625 L 10.234375 -6.578125 L 13 -6.578125 L 13 -4.359375 L 9.8125 -4.359375 L 8.984375 0 L 6.625 0 L 7.453125 -4.359375 L 5.375 -4.359375 L 4.5625 0 L 2.25 0 L 3.046875 -4.359375 L 0.484375 -4.359375 L 0.484375 -6.578125 L 3.453125 -6.578125 L 3.96875 -9.0625 L 1.25 -9.0625 L 1.25 -11.3125 L 4.359375 -11.3125 L 5.1875 -15.6875 L 7.546875 -15.6875 L 6.71875 -11.3125 L 8.84375 -11.3125 L 9.671875 -15.6875 L 11.984375 -15.6875 L 11.15625 -11.3125 L 13.734375 -11.3125 L 13.734375 -9.0625 Z M 5.796875 -6.578125 L 7.890625 -6.578125 L 8.40625 -9.0625 L 6.296875 -9.0625 Z M 5.796875 -6.578125 "/></g></g><g style="fill:#1b0d34;fill-opacity:1;"><g transform="translate(289.173151, 35.994505)"><path style="stroke:none" d="M 8.359375 -9.546875 L 5.515625 -9.546875 L 5.515625 0 L 2.25 0 L 2.25 -9.546875 L 0.4375 -9.546875 L 0.4375 -11.125 L 2.25 -12.015625 L 2.25 -12.890625 C 2.25 -14.253906 2.582031 -15.25 3.25 -15.875 C 3.925781 -16.507812 5.003906 -16.828125 6.484375 -16.828125 C 7.617188 -16.828125 8.625 -16.660156 9.5 -16.328125 L 8.671875 -13.921875 C 8.015625 -14.128906 7.40625 -14.234375 6.84375 -14.234375 C 6.375 -14.234375 6.035156 -14.09375 5.828125 -13.8125 C 5.617188 -13.539062 5.515625 -13.191406 5.515625 -12.765625 L 5.515625 -12.015625 L 8.359375 -12.015625 Z M 8.359375 -9.546875 "/></g></g><g style="fill:#1b0d34;fill-opacity:1;"><g transform="translate(297.690198, 35.994505)"><path style="stroke:none" d="M 9.34375 0 L 8.71875 -1.640625 L 8.625 -1.640625 C 8.070312 -0.941406 7.503906 -0.457031 6.921875 -0.1875 C 6.335938 0.0820312 5.578125 0.21875 4.640625 0.21875 C 3.484375 0.21875 2.570312 -0.109375 1.90625 -0.765625 C 1.25 -1.429688 0.921875 -2.375 0.921875 -3.59375 C 0.921875 -4.863281 1.363281 -5.800781 2.25 -6.40625 C 3.144531 -7.007812 4.492188 -7.34375 6.296875 -7.40625 L 8.375 -7.484375 L 8.375 -8 C 8.375 -9.21875 7.753906 -9.828125 6.515625 -9.828125 C 5.554688 -9.828125 4.425781 -9.535156 3.125 -8.953125 L 2.046875 -11.171875 C 3.421875 -11.890625 4.953125 -12.25 6.640625 -12.25 C 8.253906 -12.25 9.488281 -11.898438 10.34375 -11.203125 C 11.207031 -10.503906 11.640625 -9.4375 11.640625 -8 L 11.640625 0 Z M 8.375 -5.5625 L 7.109375 -5.515625 C 6.160156 -5.492188 5.453125 -5.320312 4.984375 -5 C 4.515625 -4.6875 4.28125 -4.207031 4.28125 -3.5625 C 4.28125 -2.644531 4.8125 -2.1875 5.875 -2.1875 C 6.632812 -2.1875 7.238281 -2.398438 7.6875 -2.828125 C 8.144531 -3.265625 8.375 -3.847656 8.375 -4.578125 Z M 8.375 -5.5625 "/></g></g><g style="fill:#1b0d34;fill-opacity:1;"><g transform="translate(310.97593, 35.994505)"><path style="stroke:none" d="M 8.359375 -9.546875 L 5.515625 -9.546875 L 5.515625 0 L 2.25 0 L 2.25 -9.546875 L 0.4375 -9.546875 L 0.4375 -11.125 L 2.25 -12.015625 L 2.25 -12.890625 C 2.25 -14.253906 2.582031 -15.25 3.25 -15.875 C 3.925781 -16.507812 5.003906 -16.828125 6.484375 -16.828125 C 7.617188 -16.828125 8.625 -16.660156 9.5 -16.328125 L 8.671875 -13.921875 C 8.015625 -14.128906 7.40625 -14.234375 6.84375 -14.234375 C 6.375 -14.234375 6.035156 -14.09375 5.828125 -13.8125 C 5.617188 -13.539062 5.515625 -13.191406 5.515625 -12.765625 L 5.515625 -12.015625 L 8.359375 -12.015625 Z M 8.359375 -9.546875 "/></g></g><g style="fill:#1b0d34;fill-opacity:1;"><g transform="translate(319.492977, 35.994505)"><path style="stroke:none" d="M 11.25 -12.1875 C 11.25 -11.207031 10.953125 -10.375 10.359375 -9.6875 C 9.765625 -9 8.929688 -8.523438 7.859375 -8.265625 L 7.859375 -8.203125 C 9.117188 -8.046875 10.070312 -7.660156 10.71875 -7.046875 C 11.375 -6.441406 11.703125 -5.617188 11.703125 -4.578125 C 11.703125 -3.066406 11.15625 -1.890625 10.0625 -1.046875 C 8.96875 -0.203125 7.40625 0.21875 5.375 0.21875 C 3.664062 0.21875 2.15625 -0.0664062 0.84375 -0.640625 L 0.84375 -3.453125 C 1.445312 -3.148438 2.113281 -2.898438 2.84375 -2.703125 C 3.570312 -2.515625 4.296875 -2.421875 5.015625 -2.421875 C 6.109375 -2.421875 6.914062 -2.601562 7.4375 -2.96875 C 7.96875 -3.34375 8.234375 -3.941406 8.234375 -4.765625 C 8.234375 -5.503906 7.929688 -6.023438 7.328125 -6.328125 C 6.722656 -6.640625 5.765625 -6.796875 4.453125 -6.796875 L 3.25 -6.796875 L 3.25 -9.34375 L 4.46875 -9.34375 C 5.6875 -9.34375 6.578125 -9.5 7.140625 -9.8125 C 7.703125 -10.132812 7.984375 -10.6875 7.984375 -11.46875 C 7.984375 -12.65625 7.238281 -13.25 5.75 -13.25 C 5.226562 -13.25 4.703125 -13.160156 4.171875 -12.984375 C 3.640625 -12.816406 3.046875 -12.519531 2.390625 -12.09375 L 0.859375 -14.390625 C 2.296875 -15.421875 4.003906 -15.9375 5.984375 -15.9375 C 7.609375 -15.9375 8.890625 -15.601562 9.828125 -14.9375 C 10.773438 -14.28125 11.25 -13.363281 11.25 -12.1875 Z M 11.25 -12.1875 "/></g></g><g style="fill:#1b0d34;fill-opacity:1;"><g transform="translate(332.048369, 35.994505)"><path style="stroke:none" d="M 8.359375 -9.546875 L 5.515625 -9.546875 L 5.515625 0 L 2.25 0 L 2.25 -9.546875 L 0.4375 -9.546875 L 0.4375 -11.125 L 2.25 -12.015625 L 2.25 -12.890625 C 2.25 -14.253906 2.582031 -15.25 3.25 -15.875 C 3.925781 -16.507812 5.003906 -16.828125 6.484375 -16.828125 C 7.617188 -16.828125 8.625 -16.660156 9.5 -16.328125 L 8.671875 -13.921875 C 8.015625 -14.128906 7.40625 -14.234375 6.84375 -14.234375 C 6.375 -14.234375 6.035156 -14.09375 5.828125 -13.8125 C 5.617188 -13.539062 5.515625 -13.191406 5.515625 -12.765625 L 5.515625 -12.015625 L 8.359375 -12.015625 Z M 8.359375 -9.546875 "/></g></g><g style="fill:#1b0d34;fill-opacity:1;"><g transform="translate(340.565417, 35.994505)"><path style="stroke:none" d="M 8.359375 -9.546875 L 5.515625 -9.546875 L 5.515625 0 L 2.25 0 L 2.25 -9.546875 L 0.4375 -9.546875 L 0.4375 -11.125 L 2.25 -12.015625 L 2.25 -12.890625 C 2.25 -14.253906 2.582031 -15.25 3.25 -15.875 C 3.925781 -16.507812 5.003906 -16.828125 6.484375 -16.828125 C 7.617188 -16.828125 8.625 -16.660156 9.5 -16.328125 L 8.671875 -13.921875 C 8.015625 -14.128906 7.40625 -14.234375 6.84375 -14.234375 C 6.375 -14.234375 6.035156 -14.09375 5.828125 -13.8125 C 5.617188 -13.539062 5.515625 -13.191406 5.515625 -12.765625 L 5.515625 -12.015625 L 8.359375 -12.015625 Z M 8.359375 -9.546875 "/></g></g></g></svg>